<?xml version="1.0" encoding="iso-8859-1"?>
<!-- Generator: Adobe Illustrator 17.1.0, SVG Export Plug-In . SVG Version: 6.00 Build 0)  -->
<!DOCTYPE svg PUBLIC "-//W3C//DTD SVG 1.1//EN" "http://www.w3.org/Graphics/SVG/1.1/DTD/svg11.dtd">
<svg version="1.1" id="Capa_1" xmlns="http://www.w3.org/2000/svg" xmlns:xlink="http://www.w3.org/1999/xlink" x="0px" y="0px"
	 viewBox="0 0 196.609 196.609" style="enable-background:new 0 0 196.609 196.609;" xml:space="preserve">
<path d="M175.922,90.871c-6.463-15.911-18.036-26.937-32.587-31.045c-3.983-1.125-8.113-1.695-12.273-1.695
	c-8.761,0-17.694,2.576-25.984,7.374c2.012-8.189,6.288-19.719,15.372-30.417c1.787-2.105,1.529-5.261-0.575-7.048
	c-2.105-1.787-5.26-1.53-7.048,0.575c-4.453,5.245-7.881,10.631-10.535,15.812l-7.124-6.505c0.798-5.891,1.446-21.472-11.819-30.905
	C76.892,2.426,68.636,0,59.471,0c-6.793,0-11.798,1.335-12.008,1.393c-2.329,0.631-3.875,2.836-3.674,5.241
	c0.069,0.839,1.876,20.668,16.041,31.033c8.099,5.926,16.906,7.17,22.869,7.17c1.906,0,3.566-0.125,4.902-0.28l10.464,9.555
	c-1.822,4.999-2.949,9.518-3.642,13.163c-9.08-5.941-19.087-9.145-28.876-9.145c-4.16,0-8.29,0.57-12.273,1.695
	C38.723,63.934,27.15,74.959,20.687,90.871c-6.286,15.475-6.978,33.812-1.945,51.633c8.994,31.856,33.827,54.105,60.39,54.105
	c4.163,0,8.296-0.571,12.284-1.697c2.331-0.658,4.639-1.525,6.889-2.587c2.25,1.062,4.559,1.929,6.89,2.588
	c3.986,1.125,8.118,1.696,12.283,1.696c0.001,0,0.001,0,0.002,0c26.562,0,51.395-22.25,60.388-54.105
	C182.899,124.683,182.208,106.346,175.922,90.871z"/>
</svg>
