<?xml version="1.0" ?><svg id="Layer_1" style="enable-background:new 0 0 48 48;" version="1.1" viewBox="0 0 48 48" xml:space="preserve" xmlns="http://www.w3.org/2000/svg" xmlns:xlink="http://www.w3.org/1999/xlink"><path d="M22.24988,34.90416c0,0,0.67051-0.99586,0.4827-1.21944  c-0.18781-0.22358-0.94958-0.10817-1.2752,0.22762s-0.40891,0.8956-0.40891,0.8956l-0.60551,2.06945  c0,0-0.50958,2.62038-0.34861,2.97811s0.85217,0.90892,0.85217,0.90892s0.46366,0.34689,0.79396,0.17062  c0.33031-0.17628,0.4981-0.05393,0.22193-0.31633s-1.07189-0.54627-0.9794-1.08873c0.09249-0.54245,0.97617-3.77364,0.97617-3.77364  L22.24988,34.90416z" style="fill:#CCCCCC;"/><path d="M19.63508,36.14248c0,0-0.89573,3.66231-1.35415,3.89819l-0.3349,0.24937l-1.67841,0.10807  c0,0-0.42325,0.06092-0.93656,0.61581l1.11666-0.0935c0,0,1.41384,0.25215,1.77406,0.22063  c0.36021-0.03152,2.37601,0.01038,2.67459,0.04953c0.29859,0.03915,0.24765-0.24314,0.24765-0.24314l-0.37785-0.35013  c0,0-0.88001-0.57021-0.70135-1.46535c0.17866-0.89514,0.41886-2.43713,0.41886-2.43713l0.31345-1.07156  c0,0,0.23882-0.35823-0.20244-0.33572s-0.60299,0.15826-0.60299,0.15826S19.7606,35.51601,19.63508,36.14248z" style="fill:#E6E6E6;"/><g id="Layer_1_1_"><g><path d="M15.2052,16.12833c-0.10999,0.08002-0.48999,0.33002-0.94,0.72003h-0.01001    c-0.58997,0.51001-1.28998,1.23999-1.54999,2c-0.48999,1.41998-0.84998,2.69-1.52002,3.35999    c-0.67999,0.67999-1.01996,1.09998-2.19995,1.56c-1.18005,0.46002-1.29004,2.12-1.29004,2.12s-0.56-1.33997-0.78998-3.34998    c-0.22003-2.01001-0.06-3.02002,0.39001-3.92004c0.13995-0.27997,0.28998-0.50995,0.41998-0.70996    c0.28998-0.42999,0.52002-0.72003,0.52997-1.09003c0-0.07996,1.21002-0.34998,3.5-0.13    C12.50518,16.76834,14.92517,16.18832,15.2052,16.12833z" style="fill:#B2AAAA;"/><path d="M12.35336,21.29815c0,0-0.80165,0.478-1.31558,1.05667    c-0.51393,0.57867-1.22401,0.96901-2.04844,1.4106c-0.82443,0.4416-1.30769,1.1844-1.29761,2.12271    c0,0,0.52591,1.81921,2.00463,3.34695s7.19516,3.10519,9.10546,2.83022s5.29833-2.28657,6.20204-3.18384    c0.90371-0.89726,0-3.2562,0-3.2562L12.35336,21.29815z" style="fill:#CCA687;"/><path d="M37.42517,36.60837c-0.12994-0.06-1.20996-0.61005-2.08997-0.92999    c-0.92999-0.33002-2-0.79004-2.82001-1.25c-0.83002-0.46002-1.47998-0.47003-2.70001-0.64001    c-1.21997-0.17004-2.04999-0.54004-2.04999-0.54004s-0.23999-0.07996-0.91998,0.03003c-0.67004,0.09998-1.62,0.56-2.37,0.75    c-0.76001,0.17999-1.42999,0.40997-2.03003,0.35999c-0.59998-0.06-0.25-0.32001-0.39996-0.53998    c-0.15002-0.21002,0.00995-0.20001-0.40002-0.09003c-0.40997,0.12-0.42999,0.47003-0.54999,0.79999    c-0.10999,0.33002-0.17999,0.58002-0.17999,0.58002c-0.07001,0.22003-0.51001,0.19-0.71002,0.19    c-0.19,0-0.42999,0.09003-0.42999,0.09003l0.01001-0.37c0,0-0.53003-0.27002-1.14001-0.51001s-3.15003-0.51001-5.83002-2.32001    c-2.69-1.79999-3.53998-3.70001-3.53998-3.70001c0.03998,0.02002,0.08997,0.03998,0.13,0.04999    c1.04999,0.44,2.60999,0.5,3.64996,0.79004c1.07001,0.31,1.10004-0.05005,1.10004-0.05005    c1.21997,0.36005,3.56,0.10004,4.96997,0.37006c1.42004,0.25995,3.04999-0.37006,3.04999-0.37006l-0.25-0.33997    c1.21002-0.10004,2.02002-0.87,2.19-1.08002c1.10004-1.37,3.12006-0.64001,3.26001-0.67999l2.33002,1.20001    c0,0,1.46002,2.07001,1.90002,2.63c0.21997,0.27997,0.63,0.63,1.02997,0.95001c0.41003,0.31995,0.81,0.60999,1.02002,0.75995    c0.42999,0.30005,1.20996,0.86005,2.12,1.74005C36.62518,35.30832,37.34521,36.45834,37.42517,36.60837z" style="fill:#B57448;"/><path d="M14.25518,16.84836c-0.58997,0.51001-1.28998,1.23999-1.54999,2    c-0.48999,1.41998-0.84998,2.69-1.52002,3.35999c-0.67999,0.67999-1.01996,1.09998-2.19995,1.56    c-1.18005,0.46002-1.29004,2.12-1.29004,2.12s-0.56-1.33997-0.78998-3.34998c-0.22003-2.01001-0.06-3.02002,0.39001-3.92004    c0.13995-0.27997,0.28998-0.50995,0.41998-0.70996c-0.22003,0.57001-0.40002,1.37-0.16998,2.20001    c0.41998,1.53998,2.37994,1.07001,3.48999-0.09003C12.1452,18.85837,12.55517,17.48837,14.25518,16.84836z" style="fill:#A39898;"/><path d="M37.42517,36.60837c-0.12994-0.06-1.20996-0.61005-2.08997-0.92999    c-0.92999-0.33002-2-0.79004-2.82001-1.25c-0.83002-0.46002-1.47998-0.47003-2.70001-0.64001    c-1.21997-0.17004-2.04999-0.54004-2.04999-0.54004s-0.23999-0.07996-0.91998,0.03003c-0.67004,0.09998-1.62,0.56-2.37,0.75    c-0.76001,0.17999-1.42999,0.40997-2.03003,0.35999c-0.59998-0.06-0.25-0.32001-0.39996-0.53998    c-0.15002-0.21002,0.00995-0.20001-0.40002-0.09003c-0.40997,0.12-0.42999,0.47003-0.54999,0.79999    c-0.10999,0.33002-0.17999,0.58002-0.17999,0.58002c-0.07001,0.22003-0.51001,0.19-0.71002,0.19    c-0.19,0-0.42999,0.09003-0.42999,0.09003l0.01001-0.37c0,0-0.53003-0.27002-1.14001-0.51001s-3.15003-0.51001-5.83002-2.32001    c-2.69-1.79999-3.53998-3.70001-3.53998-3.70001c0.03998,0.02002,0.08997,0.03998,0.13,0.04999    c0.34998,0.65002,1.48999,1.69,4.97998,2.63c5.48999,1.47003,5.47003,1.26001,7.19,0.60004c1.72003-0.65002,2.94-0.85004,5-0.63    c1.71002,0.19,3.88,0.20996,6.06,0.82001c0.41003,0.31995,0.81,0.60999,1.02002,0.75995    c0.42999,0.30005,1.20996,0.86005,2.12,1.74005C36.62518,35.30832,37.34521,36.45834,37.42517,36.60837z" style="fill:#A06944;"/><path d="M29.42908,27.84814c0,0,0.39917,1.19364,1.99561,2.91616c0,0,0.62817,0.7247,1.69455,1.51868    c1.06639,0.79398,1.86841,1.41313,2.44126,2.01013c0.57284,0.597,1.62784,1.70219,1.87613,2.18775    c0.24829,0.48555,0.74739,0.87222,1.38121,1.38839s2.07584,1.61261,2.07584,1.61261l-2.41207-3.40371l3.5322,1.86791    c0,0-1.61987-1.75344-2.648-2.86097s-2.005-2.27523-2.43743-2.56235c-0.43242-0.28711-1.30756-1.26447-1.72675-2.15567    c-0.41919-0.8912-1.09571-2.53055-1.54296-3.22173c-0.44724-0.69118-0.93897-1.30673-0.93897-1.30673    s-1.38156,0.10885-1.86719,0.60286L29.42908,27.84814z" style="fill:#B2AAAA;"/><path d="M31.97522,26.46835c1.46997,1.48999,0.64996,2.02997-1.07001,2.04999    c-1.73004,0.02002-3.04004-0.44-4.45001-0.79999c-1.40002-0.35999-1.07001-0.33002-2.65997-0.63    c-1.59003-0.29999-3.32001-0.59003-3.32001-0.59003l0.39996-0.21997c-0.51001-0.03998-1.01996-0.51001-2.57001-0.92999    c-1.56-0.42999-2.47998-0.76001-2.47998-0.76001l0.34998-0.17999c0,0-0.29999-0.29004-2.5-1.16003    c-1.07634-0.42565-1.89179-0.86567-2.31516-1.21463c-0.15597-0.12856,0.10585-0.18037,0.06286-0.27895    c-0.07881-0.18075,0.23601-0.35054,0.23601-0.35054c0.39001-0.03003,0.4063-0.32586,0.50634-0.63586    c0.19995-0.57001,0.03998-1.34998,0.03998-1.34998c0.15997-0.84003,1.48999-2.84003,3.03003-3.30005    c1.53998-0.44995,3.42999-0.11999,3.42999-0.11999c0.79999,0.09003,3.91998,1.56,5.63,2.27002    c1.70996,0.71002,4.40997,3.10999,5.73999,4.41003l0.56,0.56c1.14996,1.22998,2.22998,2.64996,2.22998,2.64996    C32.75518,26.43832,31.97522,26.46835,31.97522,26.46835z" style="fill:#B57448;"/><path d="M31.97522,26.46835c1.46997,1.48999,0.64996,2.02997-1.07001,2.04999    c-1.73004,0.02002-3.04004-0.44-4.45001-0.79999c-1.40002-0.35999-1.07001-0.33002-2.65997-0.63    c-1.59003-0.29999-3.32001-0.59003-3.32001-0.59003l0.39996-0.21997c-0.51001-0.03998-1.01996-0.51001-2.57001-0.92999    c-1.56-0.42999-2.47998-0.76001-2.47998-0.76001l0.34998-0.17999c0,0-0.29999-0.29004-2.5-1.16003    c-1.07634-0.42565-1.89179-0.86567-2.31516-1.21463c-0.22097-0.18214,0.10717-0.15075,0.11848-0.2683    s-0.00302-0.3733,0.27395-0.42561c0.22044-0.04163,0.2333-0.30767,0.33333-0.61767    c0.59998,0.33002,1.67942,0.79623,3.14945,1.05624c2.62,0.46002,3.25,0.96002,4.41998,1.82001s3,0.77997,5.34998,1.19    c2.13,0.38,5.5,1.33997,5.59003-1.54999c1.14996,1.22998,2.22998,2.64996,2.22998,2.64996    C32.75518,26.43832,31.97522,26.46835,31.97522,26.46835z" style="fill:#A06944;"/><path d="M14.16,12.48586c0,0-2.45461,3.77517-3.30491,3.89022s-1.86574,0.02894-1.86574,0.02894    s1.42068-0.00073,2.28905,0.4624s1.86514,0.29092,3.87056-0.4624c2.00542-0.75332,3.9793-0.20686,3.9793-0.20686    s-1.88704-0.89119-3.04486-2.02138S14.16,12.48586,14.16,12.48586z" style="fill:#C7CBD1;"/><path d="M10.11411,9.62315l-0.26291,0.8303c0,0,1.95883,0.75389,2.84907,1.78598    c0.72478,0.84027,1.15767,0.44023,1.15767,0.44023s2.39882,2.81506,4.81192,3.31673c0,0-1.20068-0.62004-2.15447-1.65351    s-1.2427-1.29717-1.78754-1.85703c-0.54484-0.55986-1.40491-1.02417-2.12731-1.5136    C11.87814,10.48283,11.09465,9.73183,10.11411,9.62315z" style="fill:#E5C8AC;"/><path d="M8.0077,17.62167c0,0,0.40039-0.90721,1.3754-0.85245    c0.97501,0.05477,2.05741-0.10169,2.86256-0.95777c0.80516-0.85608,1.06958-1.41918,1.34361-1.73684    s0.68928-0.53788,0.53878-1.01052c-0.11861-0.37247-1.10273-1.13883-1.55868-1.46068s-1.59112-1.46199-2.5322-1.37469    c0,0-1.06277,1.22718-1.66574,1.85746s-1.15279,2.0773-0.60297,2.9161C8.31828,15.8411,8.0077,17.62167,8.0077,17.62167z" style="fill:#FFFFFF;"/><path d="M6.97395,13.08116c0,0-0.38762-0.22513,0-1.04992s0.89501-1.54961,1.44111-1.79954    c0.5461-0.24994,0.74605-0.33092,1.80828-0.22794l-0.28526,0.34472c0.26508,0.04745,0.54605,0.20609,0.84058,0.46002    l-0.06859,0.07178c0,0,0.16966,0.10639,0.66369,0.57983s0.35145,0.50443,0.35145,0.50443s-1.05132-0.32925-1.31892,0    s-0.65871,0.66889-0.72046,0.86444c0,0,0.11919,0.41693,1.0182,0.25217l-1.13578,0.48702l-1.15319,0.00024L8.16277,13.2147H7.3215    L6.97395,13.08116z" style="fill:#E5C8AC;"/><path d="M7.49654,14.56527c0,0,0.06785-0.36177,0.52177-0.64354    c0.45392-0.28177,0.73269-0.31345,0.90375-0.30078c0.17106,0.01267-0.03801,0.45365-0.03801,0.45365    S8.2188,14.82534,7.49654,14.56527z" style="fill:#FFFFFF;"/><path d="M10.84512,12.33498c0,0,0.03887-0.15724-0.03688-0.27685    c-0.07575-0.11961-0.5502-0.17542-0.76948-0.07575c-0.21928,0.09967-0.14353,0.64588,0.01595,0.72562    s0.32294,0.04784,0.47843-0.02392C10.68863,12.61231,10.83778,12.47589,10.84512,12.33498z" style="fill:#FFFFFF;"/><path d="M6.80912,12.36643c0,0-0.1583,0.40621,0.10812,0.64075s0.09888,0.28104,0.60987,0.20753    s0.67015-0.14052,0.88795,0.35371c0,0-0.5445,0.46911-0.74554,0.69528c-0.20105,0.22618-0.42125,0.30157-0.42125,0.30157    s-0.16988-0.2935-0.48583-0.37712c-0.31595-0.08361-1.11175-0.05848-1.11175-0.05848S5.63878,12.95709,6.80912,12.36643z" style="fill:#93897F;"/><g><g><path d="      M19.77337,35.00595c-1.09536-0.63247-2.35938-0.81693-3.55349-1.19376c-1.08955-0.34391-2.11989-0.84833-3.07883-1.46986      c-1.96021-1.27063-3.65663-3.02358-4.77467-5.08114c-0.04327-0.07955-0.0856-0.15957-0.12701-0.24017      c-1.45498-2.85576-1.473-5.6301-1.36461-6.90434c0.11747-1.2832,1.28331-3.03638,1.28331-3.03638      s0.09932-0.07234,0.01803-0.6598c-0.0813-0.59641-1.0393-2.10559-1.18387-2.20503      c-0.15364-0.09944-1.24714-0.0542-1.24714-0.0542c0.01814-0.96696,1.15677-1.8617,1.15677-1.8617      c0.10851-0.67771,0.7953-1.39171,1.31041-1.84355c0.4066-0.36148,0.94882-0.54221,1.48208-0.4608      c0.45185,0.06315,1.08443,0.20784,1.92485,0.53314c0,0,1.89787,0.59641,3.34377,2.08756      c1.44591,1.49115,2.6478,3.24433,4.90715,3.78655c2.2683,0.55129,6.29885,2.49428,9.05517,5.14208      c2.76527,2.64792,3.56964,3.72328,4.65407,5.40412c1.0935,1.69003,1.48208,3.84086,2.87378,5.07893      c1.40078,1.229,5.80177,6.20848,5.80177,6.20848l-4.02916-2.5572l3.0622,4.04823c0,0-2.22306-1.59047-3.15396-2.52126      c-0.92172-0.92184-0.79518-0.63258-1.68084-1.04837c-0.88566-0.42475-2.61174-1.13863-3.86784-1.78936      c-1.26529-0.65061-2.61175-0.31623-4.71745-1.11153c0,0-0.55189-0.13831-1.84355,0.28925      c-1.53327,0.50753-2.36762,0.80425-3.58766,0.82228c0,0-0.714,2.02441-0.97603,2.9552      c-0.13349,0.48058-0.24811,0.96646-0.34502,1.45573c-0.05549,0.28014-0.10301,0.56137-0.14699,0.84349      c-0.01478,0.09479,0.10944,0.22648,0.16384,0.29622c0.11574,0.14838,0.24897,0.28307,0.39367,0.40324      c0.11303,0.09386,0.23338,0.17885,0.35925,0.25461c0,0,0.77692,0.44336,1.13944,0.40718c0,0-1.36507-0.17783-1.71562,0.06513" style="fill:none;stroke:#303030;stroke-width:0.4;stroke-linecap:round;stroke-linejoin:round;stroke-miterlimit:10;"/><path d="      M18.82186,33.63435c0.33763,0.04454,0.6605,0.58281,0.86101,0.99615c0.14131,0.29111,0.17295,0.61839,0.09584,0.93265      c-0.16062,0.65441-0.3329,1.30612-0.51074,1.95604c-0.18874,0.6898-0.37039,1.38744-0.64055,2.0507      c-0.0813,0.19959-0.14452,0.42672-0.32604,0.56129c-0.24279,0.18-0.59424,0.16338-0.87831,0.13686      c-1.01419-0.04602-1.70061,0.3424-1.70061,0.3424l-1.61036,0.80704c0,0,2.37937-0.65003,3.06324-0.40358      c0.68399,0.24657,2.13257,0.12328,2.93368,0.09246c0.80123-0.03082,1.60245,0.27739,1.60245,0.27739l-0.87647-0.7297      c0,0-0.84752-0.65422-0.79542-1.28006c0.05223-0.62584,0.39986-2.86843,0.69539-3.52905      c0.11332-0.41385,0.25015-0.81876,0.36936-1.22985c0.0131-0.04518,0.0262-0.09037,0.04078-0.13509      c0.06605-0.20268,0.15506-0.40295,0.30296-0.55862c0.13784-0.14509,0.31595-0.24367,0.51112-0.28706" style="fill:none;stroke:#303030;stroke-width:0.4;stroke-linecap:round;stroke-linejoin:round;stroke-miterlimit:10;"/><path d="M8.79961,9.9865c0,0,0.05827-0.64863,0.00372-1.09059      c-0.05245-0.42498-0.27064-1.39427-1.2561-0.75098S6.11018,9.02081,5.95956,9.00721      C5.80906,8.99348,5.57633,8.8224,5.57633,8.8224s0.17108,0.04792,0.21214-0.08211      c0.04106-0.13003-0.07525-0.29425-0.10944-0.33531l0.00675-0.21214c0,0-0.06839-0.43114,0.16434-0.66387      c0.23261-0.23261,0.4722-0.45161,0.4722-0.45161S6.6781,6.52305,7.09563,6.44768      C7.51305,6.37243,8.33428,6.22879,8.73112,6.9336c0.23505,0.4173,0.37624,0.87496,0.41881,1.3517      c0.0164,0.18388,0.02873,0.36811,0.04106,0.55222c0.01198,0.17992,0.03477,0.36183,0.03315,0.54222      c-0.0014,0.14364,0.00512,0.27308,0.04024,0.40765" style="fill:#303030;"/><path d="M11.42043,12.93216c-0.19888-0.37043-0.34344-0.44277-0.34344-0.44277      s-0.18074,0.7682-1.03931,0.75005c-0.84949-0.01803-1.34647,0.07223-1.34647,0.07223L7.905,13.73652l-0.62363,0.56931      c0,0,0.41763,0.7631,0.64719,1.42872c0.16568,0.48041,0.2087,1.74613,0.2087,1.74613s0.58468-0.93009,1.60222-0.97866      c0.68877-0.03288,1.33751-0.24412,1.66281-0.714c0.33438-0.47906,0.55129-0.97615,0.51511-1.40985      C11.88135,13.9354,11.6192,13.29375,11.42043,12.93216z M8.08573,14.32386H7.89592l0.13561-0.17167      c0,0,0.28913-0.33438,0.68679-0.36136C8.71832,13.79084,8.50141,14.22466,8.08573,14.32386z" style="fill:#303030;"/><path d="      M6.89896,12.30132c0,0-0.1377,0.82728,0.28844,0.85996c0.42614,0.0328,0.94265-0.20888,1.21713,0.3053" style="fill:none;stroke:#303030;stroke-width:0.4;stroke-linecap:round;stroke-linejoin:round;stroke-miterlimit:10;"/><path d="M10.87822,12.31772c-0.03617,0.20784-0.10851,0.29832-0.10851,0.29832      c-0.42475,0.63247-1.32844,0.27111-1.32844,0.27111c-0.1084-0.28925,0.14457-0.714,0.56931-0.89485      c0.07234-0.03617,0.15364-0.04501,0.22598-0.04501c0,0,0.20784,0.09921,0.14457,0.28902      c-0.06327,0.18969-0.01803,0.33449,0.18074,0.36159C10.67934,12.60697,10.78785,12.46217,10.87822,12.31772z" style="fill:#303030;"/><path d="      M29.66988,28.42677c0.59583,0.88892,1.36728,1.89208,2.10663,2.66527c0.86787,0.90753,1.96881,1.54093,2.91844,2.35402      c1.14968,0.98441,2.14712,2.12071,3.0187,3.3561" style="fill:none;stroke:#303030;stroke-width:0.4;stroke-linecap:round;stroke-linejoin:round;stroke-miterlimit:10;"/><path d="      M19.16136,16.18091c-2.47393-0.23215-3.90751,0.087-4.74235,0.49209" style="fill:none;stroke:#303030;stroke-width:0.4;stroke-linecap:round;stroke-linejoin:round;stroke-miterlimit:10;"/><path d="      M32.85675,25.87087c0,0-0.02803,0.80634-1.06919,0.53768c0,0,1.30983,0.77238,0.90683,1.6456      c-0.40311,0.87322-4.09743,0.40311-7.65741-0.80599" style="fill:none;stroke:#303030;stroke-width:0.4;stroke-linecap:round;stroke-linejoin:round;stroke-miterlimit:10;"/><path d="M14.41948,12.11442c0,0-1.97137-2.06302-3.34052-2.51266      C9.92487,9.22272,9.83333,8.8959,9.83333,8.8959S9.32357,9.58873,9.16667,9.4972c-0.15678-0.09153,0,0.47836,0,0.47836h0.79739      l0.91416,0.29541l0.57594,0.16736l0.36602,0.23528l0.41823,0.10456" style="fill:#303030;"/><path d="      M5.74905,14.15952c0,0,1.2897-0.87252,2.38821-0.96208" style="fill:none;stroke:#303030;stroke-width:0.4;stroke-linecap:round;stroke-linejoin:round;stroke-miterlimit:10;"/><path d="      M27.86786,33.25659c-0.48197-0.16015-0.9829-0.34449-1.45638-0.52826c-0.42824-0.16631-0.87822-0.43417-1.33216-0.50034      c-0.61339-0.08955-1.26389-0.00756-1.85507,0.17365" style="fill:none;stroke:#303030;stroke-width:0.4;stroke-linecap:round;stroke-linejoin:round;stroke-miterlimit:10;"/><polyline points="      19.7787,35.56316 20.23138,35.34154 20.68984,35.30822 20.94652,35.11992     " style="fill:none;stroke:#303030;stroke-width:0.4;stroke-linecap:round;stroke-linejoin:round;stroke-miterlimit:10;"/><path d="M12.27877,15.79419c0,0,1.25842-2.59023-0.52047-3.84691c0,0,1.01837,0.46103,1.77889,1.25668      S12.27877,15.79419,12.27877,15.79419z" style="fill:#303030;"/><path d="      M28.9468,30.2622c0,0,0.8674,0.86985,1.59222,1.52209" style="fill:none;stroke:#303030;stroke-width:0.4;stroke-linecap:round;stroke-linejoin:round;stroke-miterlimit:10;"/><path d="      M17.54472,30.84792c0,0-1.81099-0.00616-3.3411-1.02895" style="fill:none;stroke:#303030;stroke-width:0.4;stroke-linecap:round;stroke-linejoin:round;stroke-miterlimit:10;"/><path d="      M19.68961,30.46795c0,0-1.17573-0.27518-2.70596-1.29797" style="fill:none;stroke:#303030;stroke-width:0.4;stroke-linecap:round;stroke-linejoin:round;stroke-miterlimit:10;"/><path d="      M22.68121,30.2622c0,0-1.85693-0.46115-2.5722-1.20969" style="fill:none;stroke:#303030;stroke-width:0.4;stroke-linecap:round;stroke-linejoin:round;stroke-miterlimit:10;"/><path d="      M31.18184,28.50332c-0.16492-0.00221,1.07105,1.76516,2.14211,2.51998" style="fill:none;stroke:#303030;stroke-width:0.4;stroke-linecap:round;stroke-linejoin:round;stroke-miterlimit:10;"/><path d="      M7.72484,25.87087c0,0-0.38555-1.39648,1.87658-2.42915c1.81797-0.82995,2.38914-2.45427,2.78504-3.56266" style="fill:none;stroke:#303030;stroke-width:0.4;stroke-linecap:round;stroke-linejoin:round;stroke-miterlimit:10;"/><path d="      M19.37559,18.02132c0,0,2.40414,0.40974,3.74282,1.61187" style="fill:none;stroke:#303030;stroke-width:0.4;stroke-linecap:round;stroke-linejoin:round;stroke-miterlimit:10;"/><path d="      M17.17533,41.01392c0,0,1.11851-0.0749,1.54139-0.39521" style="fill:none;stroke:#303030;stroke-width:0.4;stroke-linecap:round;stroke-linejoin:round;stroke-miterlimit:10;"/></g><line style="fill:none;stroke:#303030;stroke-width:0.4;stroke-linecap:round;stroke-linejoin:round;stroke-miterlimit:10;" x1="38.22574" x2="36.89568" y1="35.67888" y2="34.33668"/></g></g></g></svg>