<?xml version="1.0" ?><svg id="Layer_1" style="enable-background:new 0 0 64 64;" version="1.1" viewBox="0 0 64 64" xml:space="preserve" xmlns="http://www.w3.org/2000/svg" xmlns:xlink="http://www.w3.org/1999/xlink"><style type="text/css">
	.st0{fill:#322E63;}
	.st1{fill:#B9D5EA;}
	.st2{fill:#9BB7CC;}
	.st3{fill:#EBF3FF;}
	.st4{fill:#EDC45F;}
	.st5{fill:#FFDC7B;}
	.st6{fill:none;}
	.st7{fill:#36C8E3;}
	.st8{fill:#28B1D5;}
	.st9{fill:#2799C5;}
	.st10{fill:#C5DEED;}
	.st11{fill:#EFEFEF;}
	.st12{fill:#E2B34B;}
	.st13{fill:#D3D3D3;}
	.st14{fill:#E2E2E2;}
	.st15{fill:#799CAD;}
	.st16{fill:#D8D8D8;}
	.st17{fill:#CCCCCC;}
	.st18{fill:#D7EAFF;}
	.st19{fill:#FFE5AB;}
	.st20{fill:#81A9C1;}
	.st21{fill:#FFABAB;}
	.st22{fill:#C0FFC3;}
	.st23{fill:#E29393;}
	.st24{fill:#9CE59C;}
	.st25{fill:#E2B652;}
	.st26{fill:#D1A143;}
	.st27{fill:#CC9A37;}
	.st28{fill:#C19038;}
	.st29{fill:#7599AA;}
</style><g><path class="st0" d="M62.4,35.8l-4-2.4v-3.7c0-1.9-1.5-3.4-3.4-3.4c-0.9,0-1.7,0.3-2.4,1c-0.5,0.6-0.8,1.2-0.9,2L49,27.5v-2.6   c0-1.9-1.5-3.4-3.4-3.4c-0.9,0-1.7,0.4-2.4,1c-0.3,0.3-0.5,0.7-0.7,1l-3.3-2l0.5-6.4C39.7,7.8,36,3,33.9,0.8C33.4,0.3,32.7,0,32,0   c-0.7,0-1.4,0.3-1.9,0.8c-2.1,2.2-5.8,7-5.8,14.4l0.5,6.4l-3.3,2c-0.2-0.4-0.4-0.7-0.7-1.1c-0.6-0.6-1.5-1-2.4-1   c-1.9,0-3.4,1.5-3.4,3.4v2.6l-2.8,1.7c-0.1-0.7-0.4-1.4-1-2c-0.6-0.6-1.5-1-2.4-1c-1.9,0-3.4,1.5-3.4,3.4v3.7l-4,2.4   c-0.8,0.5-1.3,1.3-1.3,2.3v2.4c0,0.8,0.4,1.6,1.1,2.1c0.5,0.3,1,0.5,1.6,0.5c0.3,0,0.5,0,0.8-0.1l1.8-0.6l1.9-0.6v0l2.9-0.9v0   l1.9-0.6l2.8-0.8l1.9-0.6l2.9-0.9l1.9-0.6l4.1-1.3L27,50.6l-5,1.6c-0.8,0.3-1.3,1-1.3,1.8v2.2c0,1.1,0.9,1.9,1.9,1.9h5   c0.2,1.4,1.4,2.4,2.8,2.4H31V63c0,0.5,0.4,1,1,1s1-0.4,1-1v-2.4h0.6c1.4,0,2.6-1,2.8-2.4h5c1.1,0,1.9-0.9,1.9-1.9v-2.2   c0-0.8-0.5-1.6-1.3-1.9l-5-1.6l1.1-14.4l4.1,1.3l1.9,0.6l2.9,0.9l1.9,0.6l2.8,0.8l1.9,0.6v0l2.9,0.9v0l1.9,0.6l1.8,0.6   c0.3,0.1,0.5,0.1,0.8,0.1c0.5,0,1.1-0.2,1.6-0.5c0.7-0.5,1.1-1.3,1.1-2.1V38C63.7,37.1,63.2,36.2,62.4,35.8z M17,24.9   c0-0.8,0.7-1.4,1.4-1.4c0.4,0,0.8,0.1,1,0.4c0.2,0.2,0.3,0.4,0.4,0.7L17,26.3V24.9z M7.5,29.6c0-0.8,0.6-1.4,1.4-1.4   c0.4,0,0.8,0.2,1,0.4c0.3,0.3,0.4,0.6,0.4,1v0.8l-2.9,1.8V29.6z M11,38.7C11,38.7,11,38.7,11,38.7l-7.8,2.4c-0.2,0.1-0.5,0-0.6-0.1   c-0.2-0.1-0.3-0.4-0.3-0.6V38c0-0.2,0.1-0.5,0.3-0.6l13.9-8.5c0,0,0.1,0,0.1-0.1l8.4-5.1l0.8,10.5L11,38.7z M22.6,56.3v-2.2   l4.6-1.5l0.3,3.7L22.6,56.3z M41.4,54.1v2.2h-4.8l0.3-3.7L41.4,54.1z M34.5,57.8c0,0.5-0.5,0.9-1,0.9H33v-2.4c0-0.5-0.4-1-1-1   s-1,0.4-1,1v2.4h-0.6c-0.5,0-0.9-0.4-0.9-0.9l-3.2-42.7c0-6.6,3.3-10.9,5.2-12.9C31.6,2,31.8,1.9,32,1.9c0.2,0,0.4,0.1,0.5,0.2   c2,2,5.2,6.3,5.2,12.9L34.5,57.8z M53.6,29.6c0-0.4,0.1-0.8,0.4-1c0.2-0.2,0.5-0.4,1-0.4c0.8,0,1.4,0.6,1.4,1.4v2.5l-2.9-1.8V29.6z    M44.6,23.9c0.3-0.3,0.6-0.4,1-0.4c0.8,0,1.4,0.6,1.4,1.4v1.4l-2.8-1.7C44.3,24.3,44.4,24.1,44.6,23.9z M61.8,40.4   c0,0.2-0.1,0.4-0.3,0.6c-0.2,0.1-0.4,0.2-0.6,0.1L53,38.7l0,0l-14.8-4.5L39,23.7l22.4,13.7c0.2,0.1,0.3,0.4,0.3,0.6V40.4z"/><polygon class="st3" points="27.4,56.3 22.6,56.3 22.6,54.1 27.1,52.6  "/><polygon class="st3" points="41.4,54.1 41.4,56.3 36.6,56.3 36.8,52.6  "/><path class="st5" d="M47,24.9v1.4l-2.8-1.7c0.1-0.3,0.2-0.5,0.4-0.7c0.3-0.3,0.6-0.4,1-0.4C46.4,23.5,47,24.1,47,24.9z"/><path class="st5" d="M56.5,29.6v2.5l-2.9-1.8v-0.8c0-0.4,0.1-0.8,0.4-1c0.2-0.2,0.5-0.4,1-0.4C55.9,28.2,56.5,28.8,56.5,29.6z"/><polygon class="st5" points="56.5,41.8 56.5,41.8 53.6,40.9 53.6,40.9  "/><polygon class="st5" points="10.4,40.9 10.4,40.9 7.5,41.8 7.5,41.8  "/><path class="st5" d="M10.4,29.6v0.8l-2.9,1.8v-2.5c0-0.8,0.6-1.4,1.4-1.4c0.4,0,0.8,0.2,1,0.4C10.2,28.9,10.4,29.2,10.4,29.6z"/><path class="st5" d="M19.8,24.6L17,26.3v-1.4c0-0.8,0.7-1.4,1.4-1.4c0.4,0,0.8,0.1,1,0.4C19.6,24.1,19.8,24.3,19.8,24.6z"/><path class="st3" d="M25.8,34.2L11,38.7c0,0,0,0,0,0l-7.8,2.4c-0.2,0.1-0.5,0-0.6-0.1c-0.2-0.1-0.3-0.4-0.3-0.6V38   c0-0.2,0.1-0.5,0.3-0.6l13.9-8.5c0,0,0.1,0,0.1-0.1l8.4-5.1L25.8,34.2z"/><path class="st3" d="M61.8,38v2.4c0,0.2-0.1,0.4-0.3,0.6c-0.2,0.1-0.4,0.2-0.6,0.1L53,38.7l0,0l-14.8-4.5L39,23.7l22.4,13.7   C61.6,37.5,61.8,37.8,61.8,38z"/><path class="st1" d="M32.5,2.2C32.4,2,32.2,1.9,32,1.9c-0.2,0-0.4,0.1-0.5,0.2c-1.9,2-5.2,6.3-5.2,12.9l3.2,42.7   c0,0.5,0.4,0.9,0.9,0.9H31v-2.4c0-0.5,0.4-1,1-1s1,0.4,1,1v2.4h0.6c0.5,0,0.9-0.4,1-0.9L37.7,15C37.7,8.5,34.5,4.1,32.5,2.2z    M35.1,13.5c-0.5,0.2-1.1-0.1-1.3-0.6c-0.4-1-1.2-1.4-1.9-1.4c-0.7,0-1.5,0.4-1.9,1.4c-0.1,0.4-0.5,0.6-0.9,0.6   c-0.1,0-0.2,0-0.3-0.1c-0.5-0.2-0.8-0.7-0.6-1.2c0.6-1.6,2-2.6,3.7-2.6c0,0,0,0,0,0c1.7,0,3.1,1,3.7,2.6   C35.9,12.8,35.6,13.3,35.1,13.5z"/><polygon class="st1" points="27.4,56.3 22.6,56.3 22.6,55.1 27.3,55.1  "/><polygon class="st1" points="41.4,54.1 41.4,56.3 36.6,56.3 36.7,55.1 40.3,55.1 40.3,53.7  "/><path class="st1" d="M25.8,34.2L11,38.7c0,0,0,0,0,0l-7.8,2.4c-0.2,0.1-0.5,0-0.6-0.1c-0.2-0.1-0.3-0.4-0.3-0.6v-0.3l7.6-2.3   c0,0,0,0,0,0l14.8-4.5L24,24.3l1-0.6L25.8,34.2z"/><path class="st1" d="M61.8,38v2.4c0,0.2-0.1,0.4-0.3,0.6c-0.2,0.1-0.4,0.2-0.6,0.1L53,38.7l0,0l-14.8-4.5l0.1-0.9l13.4,4.1l0,0   l7.8,2.4c0.2,0.1,0.5,0,0.6-0.1c0.2-0.1,0.3-0.3,0.3-0.6v-2.3l1,0.6C61.6,37.5,61.8,37.8,61.8,38z"/><path class="st2" d="M31,57.3v1.3h-0.6c-0.5,0-0.9-0.4-0.9-0.9l0-0.5H31z"/><path class="st2" d="M37.7,15l-3.2,42.8c0,0.5-0.5,0.9-1,0.9H33V57c0.1-0.1,0.2-0.3,0.2-0.5l3.2-42.8c0-5.5-2.3-9.4-4.2-11.7   c0.1,0,0.2,0.1,0.3,0.2C34.5,4.1,37.7,8.5,37.7,15z"/><path class="st0" d="M35.1,13.5c-0.5,0.2-1.1-0.1-1.3-0.6c-0.4-1-1.2-1.4-1.9-1.4c-0.7,0-1.5,0.4-1.9,1.4c-0.1,0.4-0.5,0.6-0.9,0.6   c-0.1,0-0.2,0-0.3-0.1c-0.5-0.2-0.8-0.7-0.6-1.2c0.6-1.6,2-2.6,3.7-2.6c0,0,0,0,0,0c1.7,0,3.1,1,3.7,2.6   C35.9,12.8,35.6,13.3,35.1,13.5z"/></g></svg>