<?xml version="1.0" ?><svg height="60" id="Baby" viewBox="0 0 60 60" width="60" xmlns="http://www.w3.org/2000/svg"><title/><path d="M3,31.0001a3.9989,3.9989,0,0,1,4-4c.11,0,.22,0,.34.01h.01a23.001,23.001,0,0,1,45.29-.08c0,.03.01.05.01.08h.01c.12-.01.23-.01.34-.01a4,4,0,0,1,0,8c-.12,0-.23,0-.35-.01l-.01.08a23.00207,23.00207,0,0,1-45.29-.07H7A3.9989,3.9989,0,0,1,3,31.0001Z" style="fill:#f9e2dc"/><path d="M7,30c.11,0,.22,0,.34.01H7.35a23.001,23.001,0,0,1,45.29-.08c0,.03.01.05.01.08H52.66C52.78,30,52.89,30,53,30a3.99521,3.99521,0,0,1,3.70361,2.5A3.99071,3.99071,0,0,0,53,27.00006c-.11,0-.22,0-.34.01H52.65c0-.03-.01-.05-.01-.08a23.001,23.001,0,0,0-45.29.08H7.34c-.12006-.01-.23-.01-.34-.01A3.99071,3.99071,0,0,0,3.29639,32.5,3.99521,3.99521,0,0,1,7,30Z" style="fill:#fff;opacity:0.30000000000000004"/><path d="M53,32c-.12,0-.23,0-.35-.01l-.01.08A23.00209,23.00209,0,0,1,7.35,32H7a3.99534,3.99534,0,0,1-3.70355-2.5A3.99068,3.99068,0,0,0,7,35.00006h.35a23.00209,23.00209,0,0,0,45.29.07l.01-.08c.12.00995.23.00995.35.00995A3.99068,3.99068,0,0,0,56.70355,29.5,3.99534,3.99534,0,0,1,53,32Z" style="fill:#cc7e54;opacity:0.30000000000000004"/><path d="M30.28516,8.95654a.99974.99974,0,0,1-1-1A6.16691,6.16691,0,0,1,39.68652,3.47266a1,1,0,0,1-1.373,1.4541,4.167,4.167,0,0,0-7.02832,3.02979A.99974.99974,0,0,1,30.28516,8.95654Z" style="fill:#6d6daa"/><path d="M30.28516,8.95654a.99974.99974,0,0,1-1-1,3.01886,3.01886,0,0,0-5.0918-2.19531.9996.9996,0,1,1-1.373-1.45312,5.018,5.018,0,0,1,8.46484,3.64844A.99974.99974,0,0,1,30.28516,8.95654Z" style="fill:#6d6daa"/><path d="M7.07617,30.12549c-.02734,0-.05371-.001-.08105-.00342a1.00045,1.00045,0,0,1-.917-1.07715A24.00309,24.00309,0,0,1,53.626,26.7583c.12207.68164.21582,1.38672.2793,2.09473a1.00005,1.00005,0,1,1-1.99219.17773c-.05762-.6499-.14453-1.2959-.25586-1.92041a22.00273,22.00273,0,0,0-43.585,2.0957A1.00115,1.00115,0,0,1,7.07617,30.12549Z" style="fill:#6d6daa"/><path d="M30,55A23.94869,23.94869,0,0,1,6.36133,35.17334a1.0004,1.0004,0,0,1,1.9707-.3457,22.00441,22.00441,0,0,0,43.3252.0625.99995.99995,0,1,1,1.96875.35156A23.95987,23.95987,0,0,1,30,55Z" style="fill:#6d6daa"/><path d="M30,45.3999a10.70434,10.70434,0,0,1-9.97168-6.75732.99975.99975,0,1,1,1.85547-.74512,8.737,8.737,0,0,0,16.23242,0,.99975.99975,0,1,1,1.85547.74512A10.70434,10.70434,0,0,1,30,45.3999Z" style="fill:#6d6daa"/><path d="M23,29a.99974.99974,0,0,1-1-1,3,3,0,0,0-6,0,1,1,0,0,1-2,0,5,5,0,0,1,10,0A.99974.99974,0,0,1,23,29Z" style="fill:#6d6daa"/><path d="M45,29a.99974.99974,0,0,1-1-1,3,3,0,0,0-6,0,1,1,0,0,1-2,0,5,5,0,0,1,10,0A.99974.99974,0,0,1,45,29Z" style="fill:#6d6daa"/><path d="M7,36A5,5,0,0,1,7,26c.1416,0,.28027.00586.41895.01758a1,1,0,0,1-.166,1.99316C7.16895,28.00391,7.085,28,7,28a3,3,0,0,0,0,6c.08789,0,.1748-.00342.26074-.01123a1.0002,1.0002,0,0,1,.16992,1.99316C7.28809,35.99365,7.14453,36,7,36Z" style="fill:#6d6daa"/><path d="M53,36c-.14453,0-.28809-.00635-.43066-.01807a1.0002,1.0002,0,0,1,.16992-1.99316C52.8252,33.99658,52.91211,34,53,34a3,3,0,1,0-.25293-5.98926,1,1,0,0,1-.166-1.99316C52.71973,26.00586,52.8584,26,53,26a5,5,0,0,1,0,10Z" style="fill:#6d6daa"/></svg>