<?xml version="1.0" ?><svg height="60" id="Sport" viewBox="0 0 60 60" width="60" xmlns="http://www.w3.org/2000/svg"><title/><circle cx="30.0002" cy="30" r="29" style="fill:#eef6ff"/><path d="M50.48556,9.29248A26.61136,26.61136,0,0,0,41.0002,30a26.61136,26.61136,0,0,0,9.48535,20.70752c.37256.30664,2.543-3.08789,2.543-3.08789A22.62615,22.62615,0,0,1,45.0002,30a22.62615,22.62615,0,0,1,8.02832-17.61963Z" style="fill:#ff9797"/><path d="M50.50631,9.4939A28.85881,28.85881,0,0,0,35.22994,1.4787,26.72637,26.72637,0,1,1,1.03914,28.52844,28.99935,28.99935,0,1,0,50.50631,9.4939Z" style="fill:#2c4b75;opacity:0.2"/><circle cx="21.93412" cy="21.93392" r="15.43392" style="fill:#fff;opacity:0.75"/><path d="M6.97188,12.38037A22.62615,22.62615,0,0,1,15.0002,30,22.62615,22.62615,0,0,1,6.97188,47.61963s2.17041,3.39453,2.543,3.08789A26.61136,26.61136,0,0,0,19.0002,30,26.61136,26.61136,0,0,0,9.51485,9.29248Z" style="fill:#ff9797"/><path d="M30,60A30,30,0,1,1,60,30,30.03406,30.03406,0,0,1,30,60ZM30,2A28,28,0,1,0,58,30,28.03145,28.03145,0,0,0,30,2Z" style="fill:#6d6daa"/><path d="M46,31H40a1,1,0,0,1,0-2h6a1,1,0,0,1,0,2Z" style="fill:#6d6daa"/><path d="M46.57715,26.87939a.99778.99778,0,0,1-.27539-.03906l-6.16113-1.76025a1,1,0,1,1,.5498-1.92285l6.16113,1.76025a1.00027,1.00027,0,0,1-.27441,1.96191Z" style="fill:#6d6daa"/><path d="M47.9292,21.97021a.99577.99577,0,0,1-.39355-.08154L41.7124,19.39307a.99987.99987,0,0,1,.78809-1.83789l5.82324,2.49561a1.00027,1.00027,0,0,1-.39453,1.91943Z" style="fill:#6d6daa"/><path d="M50.83789,17.25781a.99418.99418,0,0,1-.50488-.1377l-5.37207-3.15186a.99973.99973,0,0,1,1.01172-1.72461l5.37207,3.15186a.99993.99993,0,0,1-.50684,1.8623Z" style="fill:#6d6daa"/><path d="M40.415,36.88184a1.00027,1.00027,0,0,1-.27441-1.96191l6.16113-1.76025a1,1,0,1,1,.5498,1.92285l-6.16113,1.76025A.99778.99778,0,0,1,40.415,36.88184Z" style="fill:#6d6daa"/><path d="M42.10693,42.52637a1.00027,1.00027,0,0,1-.39453-1.91943l5.82324-2.49561a.99987.99987,0,0,1,.78809,1.83789l-5.82324,2.49561A.99577.99577,0,0,1,42.10693,42.52637Z" style="fill:#6d6daa"/><path d="M45.46777,47.894a.99993.99993,0,0,1-.50684-1.8623L50.333,42.87988a.99973.99973,0,1,1,1.01172,1.72461l-5.37207,3.15186A.99418.99418,0,0,1,45.46777,47.894Z" style="fill:#6d6daa"/><path d="M20,31H14a1,1,0,0,1,0-2h6a1,1,0,0,1,0,2Z" style="fill:#6d6daa"/><path d="M19.585,36.88184a.99778.99778,0,0,1-.27539-.03906l-6.16064-1.76025a1,1,0,1,1,.5498-1.92285l6.16064,1.76025a1.00027,1.00027,0,0,1-.27441,1.96191Z" style="fill:#6d6daa"/><path d="M17.89355,42.52637A.99577.99577,0,0,1,17.5,42.44482l-5.82324-2.49561a.99987.99987,0,0,1,.78809-1.83789l5.82324,2.49561a1.00027,1.00027,0,0,1-.39453,1.91943Z" style="fill:#6d6daa"/><path d="M14.53271,47.894a.99418.99418,0,0,1-.50488-.1377L8.65576,44.60449a.99973.99973,0,1,1,1.01172-1.72461l5.37207,3.15186a.99993.99993,0,0,1-.50684,1.8623Z" style="fill:#6d6daa"/><path d="M13.42334,26.87939a1.00027,1.00027,0,0,1-.27441-1.96191l6.16064-1.76025a1,1,0,1,1,.5498,1.92285l-6.16064,1.76025A.99778.99778,0,0,1,13.42334,26.87939Z" style="fill:#6d6daa"/><path d="M12.07129,21.97021a1.00027,1.00027,0,0,1-.39453-1.91943L17.5,17.55518a.99987.99987,0,0,1,.78809,1.83789l-5.82324,2.49561A.99577.99577,0,0,1,12.07129,21.97021Z" style="fill:#6d6daa"/><path d="M9.1626,17.25781a.99993.99993,0,0,1-.50684-1.8623l5.37207-3.15186a.99973.99973,0,0,1,1.01172,1.72461L9.66748,17.12012A.99418.99418,0,0,1,9.1626,17.25781Z" style="fill:#6d6daa"/></svg>