<?xml version="1.0" ?><svg id="Layer_1" style="enable-background:new 0 0 500 500;" version="1.1" viewBox="0 0 500 500" xml:space="preserve" xmlns="http://www.w3.org/2000/svg" xmlns:xlink="http://www.w3.org/1999/xlink"><g><g><path d="M426.126,114.484c0,0,0.183,0.107,0.535,0.374c0.344,0.267,0.902,0.671,1.503,1.179    c0.635,0.522,1.388,1.159,2.202,1.943c0.846,0.776,1.743,1.69,2.689,2.732c1.936,2.087,3.985,4.702,6.026,7.832    c1.967,3.119,4.009,6.769,5.61,10.847c3.317,8.15,5.29,18.156,4.717,28.878c-0.313,5.341-1.163,10.873-2.842,16.269    c-1.573,5.426-4,10.706-6.86,15.694c-1.546,2.426-3.099,4.859-4.884,7.091c-0.881,1.13-1.806,2.216-2.754,3.272    c-0.926,1.072-1.873,2.12-2.926,3.062c-1.029,0.961-2.031,1.931-3.072,2.844c-1.035,0.919-2.173,1.715-3.245,2.555    c-1.116,0.78-2.225,1.555-3.327,2.324c-1.118,0.734-2.321,1.338-3.458,1.987c-2.295,1.282-4.623,2.371-7.015,3.188    c-2.334,0.908-4.678,1.619-7.032,2.067c-4.628,1.087-9.198,1.248-13.353,1.126c-2.112-0.171-4.12-0.407-6.048-0.777    c-1.935-0.378-3.687-0.681-5.43-1.312c-1.727-0.587-3.269-1.046-4.754-1.706c-1.462-0.59-2.781-1.183-4.013-1.899    c-1.21-0.647-2.281-1.268-3.224-1.88c-0.928-0.568-1.728-1.126-2.37-1.586c-0.636-0.434-1.144-0.86-1.475-1.112    c-0.333-0.262-0.505-0.398-0.505-0.398l-1.439-1.135c-0.711-0.561-0.886-1.616-0.392-2.355c0.164-0.246,0.389-0.429,0.633-0.539    c0,0,1.787-0.8,4.918-2.09c1.593-0.575,3.397-1.594,5.521-2.592c0.527-0.259,1.07-0.527,1.629-0.802    c0.54-0.313,1.097-0.636,1.667-0.967c1.138-0.664,2.36-1.302,3.617-2.002c2.417-1.576,5.089-3.176,7.673-5.237    c0.654-0.503,1.341-0.974,1.989-1.519c0.639-0.555,1.287-1.116,1.941-1.684c0.651-0.571,1.316-1.136,1.994-1.697    c0.641-0.609,1.288-1.223,1.94-1.843c0.648-0.624,1.32-1.231,1.964-1.88c0.621-0.675,1.246-1.354,1.875-2.038    c1.296-1.328,2.46-2.82,3.652-4.303c1.24-1.438,2.263-3.095,3.408-4.647c1.084-1.605,2.089-3.285,3.104-4.951    c1.966-3.381,3.876-6.823,5.397-10.43c1.603-3.56,2.907-7.219,4.037-10.814c1.081-3.615,2.07-7.145,2.858-10.552    c0.764-3.413,1.385-6.682,1.808-9.734c0.871-6.099,1.368-11.263,1.49-14.89c0.06-1.811,0.132-3.236,0.133-4.199    c0.001-0.951,0.002-1.458,0.002-1.458c0.001-0.854,0.649-1.517,1.447-1.48c0.231,0.011,0.451,0.079,0.644,0.191L426.126,114.484z" style="fill:#B37D56;"/></g><g style="opacity:0.1;"><path d="M389.119,221.051c-1.932-0.162-3.491-0.363-4.886-0.631l-0.58-0.112    c-1.457-0.281-2.607-0.502-3.528-0.836l-1.4-0.471c-1.09-0.36-2.032-0.672-2.777-1.004c0,0-0.707-0.292-0.905-0.375l0.765-0.376    l1.915-1.11c0.667-0.39,1.337-0.752,2.023-1.126l1.733-0.953l1.755-1.132c2.088-1.336,4.453-2.85,6.845-4.755l0.47-0.348    c0.571-0.421,1.141-0.85,1.693-1.315l2.045-1.773c0.62-0.541,1.223-1.055,1.841-1.567l0.227-0.187l2.855-2.712    c0.484-0.455,0.97-0.914,1.444-1.391l0.234-0.243l1.794-1.952c1.404-1.452,2.58-2.921,3.718-4.342l0.31-0.387    c1.062-1.246,1.932-2.5,2.702-3.611c0.333-0.478,0.664-0.957,1.009-1.425l0.207-0.294c1.053-1.56,1.999-3.117,2.917-4.623    l0.405-0.667c2.111-3.629,4.215-7.403,5.944-11.482c1.547-3.45,2.975-7.273,4.362-11.683c1.351-4.514,2.303-8.037,3.035-11.203    c0.88-3.931,1.515-7.349,1.949-10.506c0.286-2.005,0.536-3.932,0.75-5.762c0.605,0.827,1.202,1.695,1.796,2.603    c2.04,3.238,3.633,6.309,4.798,9.276c2.229,5.477,4.717,14.202,4.128,25.229c-0.298,5.08-1.127,9.854-2.462,14.147    c-1.292,4.45-3.296,9.033-5.999,13.776c-1.36,2.132-2.764,4.323-4.23,6.156c-0.76,0.973-1.533,1.891-2.433,2.893    c-0.797,0.921-1.534,1.747-2.251,2.388l-1.004,0.941c-0.666,0.626-1.324,1.252-2.005,1.847c-0.571,0.508-1.147,0.931-1.712,1.36    c-0.324,0.244-0.647,0.489-0.963,0.735l-3.025,2.112c-0.548,0.352-1.123,0.658-1.688,0.969c-0.411,0.225-0.818,0.449-1.218,0.677    c-1.924,1.074-3.751,1.908-5.511,2.51l-0.345,0.125c-1.936,0.754-3.786,1.302-5.498,1.626l-0.367,0.078    c-2.728,0.641-5.79,0.946-9.365,0.93C390.125,221.073,389.618,221.064,389.119,221.051z" style="fill:#FFFFFF;"/></g><g><path d="M184.812,291.799l82.055,0.348l-68.379,154.474l-45.846,0.453c-4.91-0.021-9.686-3.999-8.993-8.859    c5.088-35.654,36.506-88.264,31.819-135.297C175.388,297.727,184.812,291.799,184.812,291.799z" style="fill:#DBB99C;"/></g><g><path d="M318.604,292.367l69.532,8.825l-16.9,146.099l-52.885-0.467c-4.91-0.021-3.889-3.825-3.196-8.473    c5.081-34.096,25.392-85.615-5.892-135.352C309.181,298.035,318.604,292.367,318.604,292.367z" style="fill:#DBB99C;"/></g><g><g><path d="M202.325,440.119c-0.052,12.211-24.003,14.317-43.452,14.234     c-19.449-0.083-27.031-2.323-26.979-14.533c0.052-12.211,7.718-29.768,27.167-29.686     C178.51,410.217,202.377,427.909,202.325,440.119z" style="fill:#EFD8C7;"/></g></g><g><g><path d="M373.751,445.134c-0.052,12.211-24.003,14.317-43.452,14.234     c-19.449-0.083-27.031-2.323-26.979-14.533c0.052-12.211,7.718-29.768,27.167-29.686     C349.936,415.232,373.803,432.924,373.751,445.134z" style="fill:#EFD8C7;"/></g></g><g><path d="M455.596,443.39l-2.548-25.716c-1.391-20.058-20.702-84.875-52.617-121.094    c-5.716-6.487-7.032-22.835-6.995-31.482l0.001-0.162c0.2-47.069-22.253-78.187-87.273-78.463    c-20.238-0.086-42.211,2.828-62.887,8.301c-9.435,2.497-19.298-1.841-24.032-10.375c-6.418-11.567,10.171-49.244,2.639-55.523    c-6.711-5.595-27.038,14.596-33.531,15.757c-11.24,2.009-45.931-20.957-50.787-2.57c-5.525,20.923,10.719,94.905,15.559,118.008    c6.887,32.868,33.964,55.523,42.908,61.905c32.94,23.503,38.646,90.652,39.247,94.836c0.001,0.002,0.001,0.004,0.001,0.007    l1.613,27.349c0.308,5.224,4.622,9.31,9.856,9.332l44.906,0.191c5.879,0.025,10.489-5.042,9.909-10.893l-1.779-17.96    c-0.141-2.048-0.414-4.723-0.765-7.718l-0.004-0.037h-0.001c-1.169-9.946-3.221-23.45-4.333-29.678    c-0.891-4.985-9.537-40.186-12.139-49.932c-0.663-2.484,1.231-4.886,3.803-4.874c0.017,0,0.035,0,0.052,0    c17.704,0.075,29.813-1.441,43.259-6.456c8.602-3.208,17.237,2.013,22.943,10.073c5.911,8.35,33.323,47.352,36.451,80.861    c0.065,0.697,0.185,1.339,0.355,1.931l1.517,25.752c0.309,5.224,4.623,9.31,9.856,9.332l44.906,0.191    C451.566,454.308,456.175,449.241,455.596,443.39z" style="fill:#E5C6A8;"/></g><g style="opacity:0.1;"><g><path d="M185.448,435.245c-0.031,7.293-15.515,8.546-28.089,8.493     c-12.574-0.053-17.477-1.393-17.446-8.686c0.031-7.293,4.984-17.779,17.558-17.725     C170.045,417.379,185.479,427.951,185.448,435.245z" style="fill:#FFFFFF;"/></g></g><g style="opacity:0.1;"><path d="M411.705,435.743l-1.168-19.842l-0.348-1.216c-3.333-34.405-33.84-76.739-42.586-89.091    c-8.413-11.888-20.281-18.739-32.556-18.791c-4.025-0.017-8,0.695-11.812,2.116c-10.674,3.981-20.293,5.367-36.759,5.297    c-7.065-0.03-13.541,3.134-17.818,8.68c-4.264,5.531-5.675,12.574-3.871,19.322c2.822,10.581,11.096,44.523,11.801,48.417    c0.989,5.535,2.975,18.45,4.152,28.419l0.024,0.212c0.345,2.923,0.573,5.216,0.682,6.813l0.049,0.571l0.853,8.618l-27.571-0.117    l-1.111-18.835l0.003-0.775l-0.193-1.346l-0.1-0.889c-7.879-69.137-32.62-96.273-46.668-106.295    c-3.003-2.143-29.531-21.781-35.591-50.711l-0.965-4.579c-12.333-58.396-15.359-84.988-15.455-97.075    c3.154,0.921,6.631,2.129,9.361,3.079c7.959,2.768,15.476,5.383,22.605,5.413c1.695,0.007,3.353-0.131,4.922-0.412    c3.423-0.612,6.565-1.99,9.805-3.88c-2.428,12.79-3.635,24.712,1.779,34.47c6.997,12.61,20.242,20.481,34.567,20.54    c3.45,0.015,6.897-0.427,10.242-1.312c19.031-5.036,39.668-7.767,58.108-7.689c25.891,0.11,44.458,5.597,55.183,16.309    c9.361,9.35,13.872,23.642,13.786,43.695c-0.039,9.272,0.24,31.088,10.041,41.859c13.426,14.754,49.182,66.541,52.512,112.229    l0.047,0.539l1.622,16.375L411.705,435.743z" style="fill:#FFFFFF;"/></g><g><g><path d="M170.556,154.673c6.526-17.219,36.841,7.029,49.098,7.833c2.67-13.821,6.694-28.6,2.224-32.326     c-6.711-5.595-27.038,14.596-33.531,15.757c-11.24,2.009-45.932-20.957-50.787-2.57c-5.525,20.923,10.719,94.905,15.56,118.008     c6.348,30.294,29.835,51.901,40.48,60.098c-8.85-11.984-17.857-28.554-19.835-47.813     C171.352,250.178,162.886,174.909,170.556,154.673z" style="fill:#EFD8C7;"/></g></g><g><g><path d="M303.903,444.756c-0.052,12.211-25.976,14.309-47.028,14.219     c-21.052-0.089-29.26-2.332-29.208-14.543c0.052-12.211,8.344-29.766,29.396-29.676     C278.115,414.845,303.955,432.545,303.903,444.756z" style="fill:#F9E4D2;"/></g></g><g><path d="M223.882,207.588c-30.279,18.139-65.582,18.485-77.475,18.005    c-2.448-0.099-4.503-1.832-5.041-4.222l-3.787-16.838c-0.735-3.268,1.634-6.402,4.979-6.593    c14.528-0.831,50.96-4.636,80.067-22.053C229.431,171.813,230.687,203.512,223.882,207.588z" style="fill:#BDF1FF;"/></g><g style="opacity:0.1;"><g><path d="M281.147,439.857c-0.031,7.293-15.515,8.546-28.089,8.493     c-12.574-0.053-17.477-1.393-17.446-8.686c0.031-7.294,4.983-17.779,17.558-17.725     C265.744,421.991,281.178,432.563,281.147,439.857z" style="fill:#FFFFFF;"/></g></g><g style="opacity:0.1;"><g><path d="M357.841,441.97c-0.031,7.293-15.515,8.546-28.089,8.493c-12.574-0.053-17.477-1.393-17.446-8.686     c0.031-7.293,4.983-17.779,17.558-17.725C342.438,424.104,357.872,434.676,357.841,441.97z" style="fill:#FFFFFF;"/></g></g><g><g><path d="M460,445.339c-0.052,12.211-25.976,14.308-47.028,14.219c-21.052-0.089-29.26-2.332-29.208-14.543     c0.052-12.211,8.344-29.766,29.396-29.676C434.212,415.428,460.052,433.128,460,445.339z" style="fill:#F9E4D2;"/></g></g><g><path d="M167.966,40.554c-27.588-1.549-52.008,12.702-65.026,34.556    c-5.413,9.088-13.546,16.421-23.434,20.18c-19.428,7.386-40.385,12.601-38.918,34.971c1.585,24.177,28.595,58.029,52.762,59.751    c8.57,0.611,16.713-0.989,23.921-4.286c11.043-5.051,23.356-6.264,35.346-4.345c3.573,0.572,7.236,0.877,10.968,0.893    c40.835,0.173,73.754-34.199,71.066-75.657C232.354,71.173,203.43,42.545,167.966,40.554z" style="fill:#E5C6A8;"/></g><g style="opacity:0.1;"><path d="M96.798,172.236c-0.709-0.003-1.425-0.032-2.144-0.088c-13.604-1.051-34.63-28.386-35.709-46.426    c-0.318-5.327,1.257-7.719,21.219-15.699c1.965-0.785,3.937-1.574,5.896-2.385c13.376-5.546,24.99-16.368,32.705-30.474    c9.494-17.361,26.884-28.097,45.387-28.018c0.935,0.004,1.878,0.035,2.825,0.092c26.002,1.581,47.682,24.978,49.356,53.265    c0.952,16.112-4.081,31.419-14.172,43.101c-10.1,11.693-23.773,18.098-38.494,18.035c-2.727-0.011-5.467-0.254-8.145-0.719    c-4.411-0.768-8.873-1.167-13.256-1.186c-11.579-0.049-22.561,2.475-32.639,7.501C105.595,171.246,101.279,172.255,96.798,172.236    z" style="fill:#FFFFFF;"/></g><g><path d="M92.155,87.796c-3.77,3.153-8.006,5.73-12.649,7.495c-19.429,7.386-40.385,12.601-38.918,34.971    c10.141,61.498,44.715,64.79,61.667,59.902C129.637,178.309,107.489,96.785,92.155,87.796z" style="fill:#F9E4D2;"/></g><g><g><path d="M186.601,149.01c-0.106,24.892-0.907,62.593,26.552,62.71     c17.144,0.073,53.005-46.998,53.11-71.891c0.05-11.76-21.773-28.89-33.415-44.282c-13.001-17.188-22.969-34.873-40.708-34.949     C159.223,60.458,186.707,124.117,186.601,149.01z" style="fill:#B37D56;"/></g></g><g style="opacity:0.08;"><path d="M212.873,198.172c-3.059-0.026-7.105-0.429-10.045-11.242c-2.815-10.361-2.746-24.683-2.69-36.189    l0.007-1.673c0.037-8.752-2.445-20.074-5.074-32.062c-2.441-11.136-8.112-36.997-4.516-42.735    c0.253-0.057,0.738-0.131,1.525-0.128c7.97,0.034,14.484,8.422,24.452,22.105c1.796,2.465,3.622,4.973,5.512,7.47    c4.367,5.774,9.751,11.482,14.96,17.002c5.482,5.812,14.602,15.479,15.707,19.398c-0.199,6.689-5.234,20.019-16.192,35.176    C225.272,190.857,215.732,197.426,212.873,198.172z" style="fill:#FFFFFF;"/></g><g><path d="M71.616,156.703c0.882-1.371,0.486-3.196-0.884-4.079c-1.366-0.883-3.197-0.489-4.078,0.883    c-2.02,3.139-4.352,4.901-6.931,5.239c-3.724,0.479-7.347-1.97-8.66-2.992l-4.463-13.059c-0.527-1.541-2.201-2.369-3.747-1.838    c-0.263,0.09-0.496,0.223-0.714,0.374c1.867,7.84,4.183,14.533,6.818,20.256c2.216,1.448,5.751,3.224,9.79,3.224    c0.557,0,1.123-0.034,1.695-0.107C64.842,164.045,68.602,161.386,71.616,156.703z" style="fill:#B37D56;"/></g><g><path d="M40.082,131.129c0.777,4.585,1.702,8.808,2.729,12.765c7.492-0.762,13.423-10.494,13.423-22.419    c0-5.458-1.243-10.46-3.307-14.355C44.724,112.248,39.257,119.302,40.082,131.129z" style="fill:#AF8E77;"/></g><g style="opacity:0.1;"><g><path d="M238.661,240.684c-0.016,3.635-7.734,4.26-14.002,4.234c-6.268-0.027-8.712-0.695-8.696-4.33     c0.015-3.636,2.484-8.862,8.752-8.836C230.983,231.779,238.676,237.049,238.661,240.684z" style="fill:#FFFFFF;"/></g></g><g><g><circle cx="126.023" cy="92.324" r="10.515" style="fill:#514E4C;"/></g><g><circle cx="121.727" cy="88.238" r="3.029" style="fill:#E0E0E0;"/></g></g><g><circle cx="149.543" cy="211.719" r="6.992" style="fill:#D4F7FF;"/></g><g><circle cx="180.155" cy="208.619" r="6.992" style="fill:#D4F7FF;"/></g><g><ellipse cx="145.638" cy="241.827" rx="9.06" ry="16.126" style="fill:#FFE888;"/></g></g></svg>