<?xml version="1.0" ?><svg id="Layer_1" style="enable-background:new 0 0 300 300;" version="1.1" viewBox="0 0 300 300" xml:space="preserve" xmlns="http://www.w3.org/2000/svg" xmlns:xlink="http://www.w3.org/1999/xlink"><style type="text/css">
	.st0{fill:#EAD8B7;}
	.st1{fill:#D8C19D;}
	.st2{fill:#EACB45;}
	.st3{fill:#F9DD53;}
	.st4{fill:#281C15;}
	.st5{fill:#ECE5D6;}
	.st6{fill:#38281D;}
	.st7{fill:#473425;}
	.st8{fill:#BFB5A5;}
	.st9{fill:#FFFFFF;}
	.st10{fill:#211914;}
	.st11{fill:#EAA746;}
	.st12{fill:#FBBB51;}
	.st13{fill:#564032;}
</style><g><g><path class="st0" d="M207.8,281.5c-3.8-14.5-16.9-60.7-17-61.2l-4.5-14.3c0-0.1-2-6.1-2-6.2c-4.4-4.2-4.8-7.2-5.5-7.3    c-2.8-0.4-10.9-8.2-12.1-9.4c-0.3-0.3-6.4-7.7-6.7-8l-4.3,4.1l-0.8,3.9c0,0,41.3,95.1,39.6,101.5c0,0,2.5,4,0.6,6.6    c1.8,0.9,3.3,2,4.7,3.2c3.2,2.5,5.9,4.7,11.9,3C211.5,296.5,210.9,293.1,207.8,281.5z"/><path class="st1" d="M196.7,284.7c1.7-6.4-39.7-104.7-39.7-104.7l-1.3-0.8l-14.3,13.5l10.6,22.8c11.5,25.1,34.8,73.1,40.8,74.9    c0.8,0.2,1.5,0.5,2.2,0.9C197,288.6,196.7,284.7,196.7,284.7z"/></g><path class="st2" d="M116,191.1c0.1,13.2-9,14.5-12.5,15.8c-1.7,0.6-3.1,1.6-4,2.8c-3.5,4.7,0.2,9.8,0.2,9.9   c0.1,0.1,0.1,0.2,0.1,0.3c-0.2,3.2,1.9,5.1,3.3,6c-0.5-2.5,1.4-6.8,1.7-7.3c0.2-0.3,4-6.6,8.3-4.7c0,0,1.4,1.9,1.4,1.9   c0.9-0.3,0.9-0.1,1.8-0.3c1.9-0.4,4.5-2,5.3-3.2c1.5-2.5,2.7-18.2,2.8-20.9L116,191.1z"/><path class="st3" d="M141.5,223.3c0.1-0.2,2.2-4.5-1-7.4c-3.4-3-7.6-4.9-7.6-5c-0.2-0.1-0.3-0.2-0.2-0.4l1.5-16.5   c-1.5-3.1-4-6.1-6.1-6.4c-1.3-0.2-2-0.9-3.6,0.8c0,0-1.2,1.8-1.2,1.8c0,0.5-0.2,18.1-2.1,21.3c-0.9,1.5-2.9,1.9-4.9,2.4   c-2.6,0.6-5.2,1.1-6.3,3.8c-1.8,4.6,0.2,6,0.2,6.1c0.2,0.1,0.2,0.3,0.1,0.5c0,0-1.1,2.5-0.1,4.9c0.5,1.2,1.4,2.1,2.6,2.9   c-0.5-1.1-1.1-2.9-0.7-4.5c0.3-1.3,1-2.3,2.2-3c0,0,0.1,0,0.1-0.1l1.8-0.5l0.4,2.9c0.1,1.8,0.9,3.4,2.4,4.7   c3.7,3.1,5.4,3.1,6.1,2.9c0.5-0.2,0.7-0.6,0.8-0.8c-1-0.7-4.4-3.6-3-8.4l0-0.2c1.2-4,5.5-6.3,9.5-5.1c2.2,0.6,4.3,2.4,4.5,3.1   c0.6,1.9,1.1,5.3-0.8,7.1c1.6-0.2,3.9-0.8,5-2.3c0.8-1.1,0.8-2.5,0.2-4.2C141.5,223.5,141.5,223.4,141.5,223.3z"/><path class="st4" d="M219.5,259.9c-5.2-11.6-10.9-34.3-11.2-35.4c-1.6-2.8-17.7-19.5-26.3-27.7l7.9,23.6c0.1,0.2,0.3,6.7,4.3,20.8   l31.6,38C225.2,276.2,223.5,268.9,219.5,259.9z"/><g><path class="st5" d="M152.5,61.7c-1.1-1.9-8.9-15.7-9.4-28.6C142.6,18.6,128.1,1.5,111,2C95.7,2.4,89,12.8,87.5,15.5L87,16.3    l9.8,22.5c0.5,1.9,0.4,4-0.3,6.3c-2.7,8.1-4.5,29.8-4.9,34.9l-0.1,1.3l13.4,7.6c0,0,13.4-0.8,13.7-1.2    c0.3-0.4,10.8-13.7,10.8-13.7l15.4-5.7l9.7-4.8L152.5,61.7z"/><path class="st6" d="M185.8,143.3c-0.4,0.8,0.9,10,0,10.3c1.3,2.4,5.8,11.4,9.6,20.9c0.1,0.2,6,3.7,6.1,3.9    c1.2-3.9,6.6-23.9,3.6-30.9c-4.5-10.3-8.9-18.9-13.2-26.1c-0.1-0.1-1.6,3.9-1.7,3.7c0.5,3.4,2.1,10.8-0.6,13.2    C191.1,142.5,186.8,141.5,185.8,143.3z"/><path class="st6" d="M192.7,177.4c0.6,2.3,1.8,5.7-3.2,8.7c-1.1,0.7-2.4,4.4-3.6,4.4c-5,0-9.5-6.5-10.9-7.9    c-0.6,0.8-5.4,0.1-6.4,0.3c-2.4,0.5-2.7,4.2-5,3c4.5,4.3,12.6,11.8,14.2,12c3.1,0.4,28.3,26,31.8,31.2c0.5-4.3-1.9-29.7-4.9-45.7    C200.9,185.5,194.5,178.5,192.7,177.4z"/><path class="st6" d="M151.5,206.4l1.1-10.3c0-0.1,0.1-0.3,0.2-0.3c0.1-0.1,0.3-0.1,0.4,0l6.1,3.6l2.3-14.3c0-0.1,1.1-2.3,1.1-2.4    c-7.7-9.9-8.9-15.8-13.4-26.9c0,0-3.9-3.5-3.9-3.5c-0.1-0.1-0.3-1.1-0.3-1.2c-8.3-20-13.8-45.4-15.5-57.6l-5.5,12.5    c-0.3,6.5-2.4,5.2-4.3,5.7c-1.6,0.4-4.9,3.6-5.7,2.5c-1.2,4-4.1-0.7-6.1-0.4c-2.3,0.3-0.9,5.1-1.8,3.9c-0.8,1.8-1.7,1.9-4.4,5    c-0.6,0.7-0.6,0-1.2,0c-0.1,0-0.2-0.7-0.3-0.7c-1.3-0.1-2.2-0.2-3.2-1.9c-1-1.6-4.7-1.6-5.1-3c-2.1-6.9-3.3,0-4.9-2.5    c2.1,14.1,7,37.1,11.8,49.1c6.3,15.7,19,32.9,21.3,35.9c1.2-1.7,5.3-7,8.2-6.7c3.3,0.4,7.3,4.4,8.1,10.3l6.5,7.9v-11.2    c0-0.4,0.3-0.6,0.4-0.6C144.1,198.7,146.9,201.1,151.5,206.4z"/><path class="st7" d="M193.6,124.9c-0.3-0.7-0.6-1.4-0.9-2.3c-2.6-6.4-7.4-18.4-23-42.5c-0.1-0.1-6.9-10.6-16.6-17.8    c-0.9,1.2-4.2,4.3-13.2,3c-0.4,0.9-1.9,3.6-4.8,4.6c-1.9,0.6-4,0.3-6.2-1c-0.7,1.3-3.3,4.6-10,3.2c-0.7,2.2-4.7,13.5-9.5,12.5    c-4-0.8-5-5.3-5.3-7.2c-1.2,1.1-3.4,3.1-4.7,2.6c-1.2-0.5-1.7-3.3-1.9-4.9l-6.3,6.3c-0.4,1.3-5,15-5.4,21.9c-0.1,2,0.3,6.1,1,11.2    c0,0,0.1,0,0.1,0.1c0,0.1,4.5,8.2,8,8.9c1.8,0.4,3,2.4,4.1,4.2c0.8,1.4,1.7,2.8,2.5,2.9c0.4,0,0.8-0.2,1.3-0.8    c3.2-3.7,6.1-10.2,6.2-10.3c0.1-0.1,0.2-0.2,0.4-0.2c0.2,0,0.3,0.1,0.4,0.2c0,0,2.4,3.9,4.8,3.5c1.7-0.2,3.2-2.6,4.4-6.8    c0-0.2,0.2-0.3,0.3-0.3c0.2,0,0.3,0.1,0.4,0.2c0.5,0.9,2.2,3.2,3.6,2.8c0.9-0.2,2.3-1.8,2.7-9.7l2.9-10.9c0,0,0,0,0-0.1l62.4,41.2    C196.3,132.5,193.9,126.3,193.6,124.9z"/></g><path class="st8" d="M103.3,17.2c7.4-2.4,9.2-2.9,11.7-2.9s11.3,2.8,11.3,2.8L115,17.7l-14.9,0.7C100.2,18.4,102.9,17.3,103.3,17.2   z"/><circle class="st9" cx="113.7" cy="19.7" r="4.3"/><circle class="st10" cx="113.7" cy="19.7" r="1.6"/><path class="st11" d="M105.8,29.6c0.5-0.4,0.9-0.8,1-1.1c-4.1-0.5-15.9-0.7-16.7-0.7c-1.4,0-9.2,1.6-11.2,3.3   c-0.9,0.8-1.4,5.7-1.7,8c1.6-0.7,7.7-3.6,10.8-4c1.7-0.2,5.3,0.8,8.3,2.6C98.7,36.2,102.4,33.3,105.8,29.6z"/><path class="st12" d="M89.5,30c1.4,0,13.7-0.5,17-1.5c0.1,0,0.1,0,0.2,0c-0.1-2-2.7-2.9-6.3-3.9c-1.2-0.3-2.4-0.7-3.3-1.1   c-1.5-0.6-2.5-2.1-3.6-3.4c-1.7-2.2-3.3-4.4-6.5-3.8c0,0,0,0,0,0c-2,1.4-11.4,8.3-12,12.1l-0.2,1c-0.7,3.8-1.4,7.5,2.5,13.2   c0.1-2.5,0.5-7.6,2.2-9.1C81.6,31.5,87.9,30,89.5,30z"/><path class="st13" d="M175.7,105.7c-1.6-2.9-2.9-5.1-3.7-6.6c-4.9-9.4-14.8-20.6-14.9-20.7c0,0-5.9-4.6-12.9-4.6   c-2,0-4.1,0.4-6.2,1.4c-9.2,4.4-9.1,12.9-9.1,12.9c0,0.4,2.8,33.9,16.1,66c1.4,1.2,12,10.9,16.8,8.7c5.1-2.4,5.5-4.4,5.5-4.4   c0-0.2,1.1,0.3,1.2,0.3c0.2-0.1,1.2,3,0.7,0.7c0-0.1,9.4,5.6,14.1,4.4c4.6-1.1,3.8-3.8,3.7-3.9c0-0.1-1.8-4.2-1.7-4.3   c0.1-0.1,8.6,9.1,3.9,0.8c0-0.1-0.5-1.1,1.9-2.4c0,0-0.4-1.7-0.4-1.7c0,0,0.4-2.4,0.4-2.4c0.9-0.1,1.4-1.5,1.7-2.2   C196.1,141.9,182.8,118.3,175.7,105.7z"/><path class="st7" d="M191.4,149.9c-2.4,0.9-6.6-0.3-8.3-0.8c0.3,2.3,0.8,9.5-3.7,10.6c-4.4,1.1-10.4-4.6-12.3-6.6   c-0.4,1.7-1.6,5.4-5.9,7.4c-0.7,0.3-1.4,0.4-2.2,0.4c-4.6,0-11.1-4.6-13.9-6.9c4.8,11.2,10.9,22.4,18.9,32.2   c0.5,0.3,6.3,4.2,9.9,3.4c0.9-0.2,1.6-0.7,2.1-1.5c0.1-0.1,0.2-0.2,0.3-0.2c0.1,0,0.3,0,0.3,0.1c0.1,0.1,8.6,8.9,14.5,5.3   c5.9-3.5,3.2-10.6,3.2-10.7c-0.1-0.2,0-0.4,0.1-0.5c0.1-0.1,0.4-0.1,0.5,0c0.1,0,5.2,3.9,9.8,1.3c-0.9-4.8-1.8-8.8-2.7-11.1   C198.2,162.6,192.4,151.8,191.4,149.9z"/></g></svg>