<?xml version="1.0" ?><svg id="ok" style="enable-background:new 0 0 128 128;" version="1.0" viewBox="0 0 128 128" xml:space="preserve" xmlns="http://www.w3.org/2000/svg" xmlns:xlink="http://www.w3.org/1999/xlink"><style type="text/css">
	.st0{fill:#545452;stroke:#545452;stroke-width:2;stroke-linecap:round;stroke-linejoin:round;stroke-miterlimit:10;}
	.st1{fill:#7F7F7D;}
	.st2{fill:none;stroke:#545452;stroke-width:2;stroke-linecap:round;stroke-linejoin:round;stroke-miterlimit:10;}
	.st3{fill:#A97C50;stroke:#545454;stroke-width:2;stroke-linecap:round;stroke-linejoin:round;stroke-miterlimit:10;}
	.st4{fill:#C49A6C;stroke:#545454;stroke-width:2;stroke-linecap:round;stroke-linejoin:round;stroke-miterlimit:10;}
	.st5{fill:#C0AF9F;}
	.st6{fill:#A97C50;}
	.st7{fill:#DDC0A2;}
	.st8{fill:#D6CFCE;stroke:#545452;stroke-width:2;stroke-linecap:round;stroke-linejoin:round;stroke-miterlimit:10;}
	.st9{fill:#F0ADB4;stroke:#545452;stroke-width:2;stroke-linecap:round;stroke-linejoin:round;stroke-miterlimit:10;}
	.st10{fill:#D8919B;}
	.st11{fill:#EDE6E4;stroke:#545452;stroke-width:2;stroke-linecap:round;stroke-linejoin:round;stroke-miterlimit:10;}
	.st12{fill:#D6CFCE;}
	.st13{fill:#F4F4F4;}
	.st14{fill:#7F7F7D;stroke:#545452;stroke-width:2;stroke-linecap:round;stroke-linejoin:round;stroke-miterlimit:10;}
	.st15{fill:#AF9682;stroke:#545452;stroke-width:2;stroke-linecap:round;stroke-linejoin:round;stroke-miterlimit:10;}
	.st16{fill:#F4D7B8;stroke:#545452;stroke-width:2;stroke-linecap:round;stroke-linejoin:round;stroke-miterlimit:10;}
	.st17{fill:#AF9682;}
	.st18{fill:#FCF5ED;}
	.st19{fill:#897F79;stroke:#545452;stroke-width:2;stroke-linecap:round;stroke-linejoin:round;stroke-miterlimit:10;}
	.st20{fill:#A59D97;stroke:#545452;stroke-width:2;stroke-linecap:round;stroke-linejoin:round;stroke-miterlimit:10;}
	.st21{fill:#C7C2BE;}
	.st22{fill:#EDE1D5;stroke:#545452;stroke-width:2;stroke-linecap:round;stroke-linejoin:round;stroke-miterlimit:10;}
	.st23{fill:#897F79;}
	.st24{fill:#D8919B;stroke:#545452;stroke-width:2;stroke-linecap:round;stroke-linejoin:round;stroke-miterlimit:10;}
	.st25{fill:#FDF9F5;}
	.st26{fill:#D35E71;stroke:#545452;stroke-width:2;stroke-linecap:round;stroke-linejoin:round;stroke-miterlimit:10;}
	.st27{fill:#FFC285;stroke:#545452;stroke-width:2;stroke-linecap:round;stroke-linejoin:round;stroke-miterlimit:10;}
	.st28{fill:#FFE290;stroke:#545454;stroke-miterlimit:10;}
	.st29{fill:none;stroke:#545454;stroke-width:2;stroke-linecap:round;stroke-linejoin:round;stroke-miterlimit:10;}
	.st30{fill:#B54603;stroke:#545454;stroke-width:2;stroke-linecap:round;stroke-linejoin:round;stroke-miterlimit:10;}
	.st31{fill:#DDCAB8;stroke:#545452;stroke-width:2;stroke-linecap:round;stroke-linejoin:round;stroke-miterlimit:10;}
	.st32{fill:#FFD9B0;}
	.st33{fill:#EFE6DC;}
</style><g><path class="st19" d="M22,61v20v14v16h10h3c0-1.2-0.6-2.3-1.5-3.1c-0.9-0.8-1.5-1.8-1.5-3V99c0-3.3,1.4-6.4,4-8.5   c4.9-3.8,8-9.8,8-16.5V61H22z"/><path class="st20" d="M43,26c-17.7,0-32,14.3-32,32v26l2.1-21.1c0.4-3.8,1.4-7.5,3-10.8c-0.1,1-0.2,2-0.2,3V61v20v14v16h10h3   c0-1.2-0.6-2.3-1.5-3.1c-0.9-0.8-1.5-1.8-1.5-3V99c0-3.3,1.4-6.4,4-8.5c3.1-2.4,5.5-5.7,6.8-9.5h5.9c21.9,0,41.1-14.9,46.5-36.1   L94,26H43z"/><path class="st21" d="M57,26H43c-17.7,0-32,14.3-32,32v26l2.1-21.1c0.4-3.8,1.4-7.5,3-10.8c-0.1,1-0.2,2-0.2,3V61v12   C16,47.6,28,26,57,26z"/><path class="st19" d="M72.6,69l2,7c0.9,3.3,1.4,6.8,1.4,10.2v18.7c0,1.2-0.6,2.3-1.5,3c-0.9,0.7-1.5,1.8-1.5,3.1h3h10h3   c0-1.2-0.6-2.3-1.5-3.1c-0.9-0.8-1.5-1.8-1.5-3V86.2c0-3.5,0.5-6.9,1.4-10.2L94,53L72.6,69z"/><path class="st22" d="M16,55.1c0-3.8,0.7-7.3,2-10.6"/><path class="st0" d="M10.5,90.9l-1.1-5c-0.2-1,0.5-2,1.6-2h0c1,0,1.8,1,1.6,2l-1.1,5C11.4,91.4,10.6,91.4,10.5,90.9z"/><g><path class="st23" d="M87.9,49.1c-2-1.4-4.8-1.6-6.9,1.9C68,72,38,61,38,61v13c0,2.5-0.4,4.8-1.2,7h5.9    C63.2,81,81.2,68.1,87.9,49.1z"/></g><path class="st2" d="M43,26c-17.7,0-32,14.3-32,32v26l2.1-21.1c0.4-3.8,1.4-7.5,3-10.8c-0.1,1-0.2,2-0.2,3V61v20v14v16h10h3   c0-1.2-0.6-2.3-1.5-3.1c-0.9-0.8-1.5-1.8-1.5-3V99c0-3.3,1.4-6.4,4-8.5c3.1-2.4,5.5-5.7,6.8-9.5h5.9c21.9,0,41.1-14.9,46.5-36.1   L94,26H43z"/><path class="st19" d="M66.6,69l2,7c0.9,3.3,1.4,6.8,1.4,10.2v18.7c0,1.2-0.6,2.3-1.5,3c-0.9,0.7-1.5,1.8-1.5,3.1h3h10h3   c0-1.2-0.6-2.3-1.5-3.1c-0.9-0.8-1.5-1.8-1.5-3V86.2c0-3.5,0.5-6.9,1.4-10.2L88,53"/><path class="st20" d="M99.9,27H98l-17-9.7c-4.9-2.8-11,0.7-11,6.4v21.1C70,57.1,80,67,92.3,67c3.1,0,5.7-2.6,5.7-5.7V56h4.6   c3.1,0,5.7,2.3,6,5.4l1.1,9.9c0.1,1.3-0.7,2.5-2,2.7c-1.5,0.2-2.7-0.9-2.7-2.3V70h-6v0.2c0,5.1,3.8,9.5,8.9,9.8   c5.5,0.4,10.1-4,10.1-9.5V56V45.1c0-6.3-3.3-12.1-8.6-15.4l0,0C106.5,27.9,103.2,27,99.9,27z"/><path class="st20" d="M98,41v20.3c0,3.2-2.6,5.7-5.7,5.7h0C80,67,70,57,70,44.8V23.6c0-5.6,6.1-9.2,11-6.4L98,27"/><path class="st20" d="M30,90.5c4.9-3.8,8-9.8,8-16.5V61"/><circle class="st0" cx="107" cy="48" r="1"/></g><path class="st11" d="M106.6,55.1l1.3,2.1c0.7,1.2,1.6,2.4,2.6,3.4l2.8,2.8c1.2,1.2-0.3,3-1.7,2.1l-3.1-2.1  c-2.3-1.5-4.2-3.5-5.5-5.9l-0.1-0.1c-0.8-1.5,0.2-3.3,1.9-3.3l0,0C105.5,54,106.2,54.4,106.6,55.1z"/></svg>