<?xml version="1.0" ?><svg viewBox="0 0 128 128" xmlns="http://www.w3.org/2000/svg"><title/><g style="isolation: isolate"><g data-name="Layer 1" id="Layer_1"><g><path d="M121.95168,74.28323l-.484-11.95113a1.58274,1.58274,0,0,1,1.602,1.56086l.35253,8.705A1.58274,1.58274,0,0,1,121.95168,74.28323Z" style="fill: #bbbdbf"/><path d="M123.06965,63.893l.35253,8.705c1.13755-.04607,1.9809-2.03211,1.88355-4.43591S124.2072,63.84689,123.06965,63.893Z" style="fill: #e5e2b6"/><polygon points="121.321 58.699 122.601 89.485 75.814 89.485 75.814 58.699 121.321 58.699" style="fill: #8f2f25"/><path d="M120.34124,34.36083l.032.79421-.94264,1.42434.5509,16.52339,1.2006,2.1372.1393,3.459h-45.507V30.90663h40.93074A3.599,3.599,0,0,1,120.34124,34.36083Z" style="fill: #f1f1f2"/><polygon points="117.808 81.193 117.808 90.485 75.814 90.485 74.814 81.193 117.808 81.193" style="fill: #d0d2d3"/><path d="M75.81448,24.90832H99.208a0,0,0,0,1,0,0V29.707a1.19967,1.19967,0,0,1-1.19967,1.19967H79.41348a3.599,3.599,0,0,1-3.599-3.599V24.90832A0,0,0,0,1,75.81448,24.90832Z" style="fill: #8f2f25" transform="translate(175.02246 55.81497) rotate(-180)"/><path d="M102.98084,27.90748h10.64851a.59983.59983,0,0,1,.59983.59983v2.39933H102.381V28.50732A.59983.59983,0,0,1,102.98084,27.90748Z" style="fill: #b5b5aa"/><path d="M105.88108,21h4.848a1.19967,1.19967,0,0,1,1.19517,1.09588l.50467,5.81161h-8.24771l.50467-5.81161A1.19967,1.19967,0,0,1,105.88108,21Z" style="fill: #c16558"/><polygon points="95.465 90.485 75.814 90.485 75.814 58.699 75.814 30.907 95.465 30.907 95.465 90.485" style="fill: #231f20;opacity: 0.05;mix-blend-mode: darken"/><rect height="19.88706" rx="0.59983" ry="0.59983" style="fill: #bbbdbf" transform="translate(186.71922 110.48066) rotate(-180)" width="1.29964" x="92.70979" y="45.2968"/><path d="M121.18212,55.24031h-2.22961a1.7995,1.7995,0,0,1-1.7995-1.7995V36.955a1.7995,1.7995,0,0,1,1.7995-1.7995h1.4208Z" style="fill: #4d4d62"/><rect height="20.08483" rx="2.25754" ry="2.25754" style="fill: #4d4d62" width="15.81409" x="97.42184" y="35.15547"/><path d="M3.03467,30.90665H56.21991a0,0,0,0,1,0,0v53.035a5.3985,5.3985,0,0,1-5.3985,5.3985H4.83417a1.7995,1.7995,0,0,1-1.7995-1.7995v-56.634a0,0,0,0,1,0,0Z" style="fill: #8f2f25" transform="translate(59.25458 120.24682) rotate(-180)"/><polygon points="57.22 81.193 56.22 90.485 3.035 90.34 3.035 81.193 57.22 81.193" style="fill: #d0d2d3"/><rect height="20.08483" rx="1.34601" ry="1.34601" style="fill: #4d4d62" width="10.15193" x="79.51345" y="35.15547"/><polygon points="122.171 79.143 75.868 79.143 75.868 75.585 122.023 75.585 122.171 79.143" style="fill: #dad7c4"/><polygon points="3.088 55.875 39.092 55.875 53.688 72.02 56.273 72.02 56.273 73.73 52.861 73.73 38.264 57.584 3.088 57.584 3.088 55.875" style="fill: #dad7c4"/><polygon points="3.088 59.439 37.381 59.439 51.977 75.585 56.273 75.585 56.273 79.143 49.773 79.143 35.177 62.998 3.088 62.998 3.088 59.439" style="fill: #dad7c4"/><polygon points="121.946 73.73 75.868 73.73 75.868 72.02 121.875 72.02 121.946 73.73" style="fill: #dad7c4"/><path d="M120.20768,76.11755H128a0,0,0,0,1,0,0V89.28494a1.19967,1.19967,0,0,1-1.19967,1.19967h-6.59265a2.39933,2.39933,0,0,1-2.39933-2.39933V78.51688A2.39933,2.39933,0,0,1,120.20768,76.11755Z" style="fill: #bbbdbf" transform="translate(245.80835 166.60215) rotate(-180)"/><path d="M1.45651,85.19024H9.4634a.72826.72826,0,0,1,.72826.72826v4.56611a0,0,0,0,1,0,0H1.45651A1.45651,1.45651,0,0,1,0,89.02809V86.64675a1.45651,1.45651,0,0,1,1.45651-1.45651Z" style="fill: #bbbdbf"/><rect height="2.19939" style="fill: #dad7c4" transform="translate(59.25458 83.60726) rotate(-180)" width="53.18525" x="3.03467" y="40.70393"/><rect height="1.72932" rx="0.42415" ry="0.42415" style="fill: #bbbdbf" transform="translate(204.01442 123.52046) rotate(-180)" width="6.59817" x="98.70813" y="60.89557"/><circle cx="95.70896" cy="92.00416" r="14.99584" style="fill: #443f35"/><circle cx="95.70896" cy="92.00416" r="8.52964" style="fill: #aaacaf"/><circle cx="95.70896" cy="92.00416" r="3.10259" style="fill: #443f35"/><circle cx="92.63869" cy="86.85424" r="1.16347" style="fill: #443f35"/><circle cx="98.58532" cy="97.15409" r="1.16327" style="fill: #443f35"/><circle cx="98.58532" cy="86.85424" r="1.16328" style="fill: #443f35" transform="translate(-30.21919 60.92892) rotate(-30)"/><circle cx="92.63869" cy="97.15409" r="1.16328" style="fill: #443f35" transform="translate(-36.16582 59.33553) rotate(-30)"/><circle cx="101.55863" cy="92.00416" r="1.16328" style="fill: #443f35" transform="translate(-28.89863 133.95443) rotate(-60)"/><circle cx="89.66538" cy="92.00416" r="1.16328" style="fill: #443f35" transform="translate(-34.84526 123.65458) rotate(-60)"/><circle cx="32.72643" cy="92.00416" r="14.99584" style="fill: #443f35"/><circle cx="32.72643" cy="92.00416" r="8.52964" style="fill: #aaacaf"/><circle cx="32.72643" cy="92.00416" r="3.10259" style="fill: #443f35"/><circle cx="29.65616" cy="86.85424" r="1.16347" style="fill: #443f35"/><circle cx="35.60279" cy="97.15409" r="1.16327" style="fill: #443f35"/><circle cx="35.60279" cy="86.85424" r="1.16328" style="fill: #443f35" transform="translate(-38.65725 29.43765) rotate(-30)"/><circle cx="29.65616" cy="97.15409" r="1.16328" style="fill: #443f35" transform="translate(-44.60387 27.84426) rotate(-30)"/><circle cx="38.5761" cy="92.00416" r="1.16328" style="fill: #443f35" transform="translate(-60.38989 79.40997) rotate(-60)"/><circle cx="26.68285" cy="92.00416" r="1.16328" style="fill: #443f35" transform="translate(-66.33652 69.11011) rotate(-60)"/><circle cx="21.70935" cy="70.79845" r="3.81002" style="fill: #231f20;opacity: 0.15;mix-blend-mode: darken"/><path d="M46.97681,53.87438a1.13673,1.13673,0,0,0,1.1364-1.1364V35.146a1.1364,1.1364,0,1,0-2.27281,0V52.738A1.13673,1.13673,0,0,0,46.97681,53.87438Z" style="fill: #5f6252"/><path d="M37.34316,53.87438a1.13673,1.13673,0,0,0,1.1364-1.1364V35.146a1.1364,1.1364,0,1,0-2.27281,0V52.738A1.13673,1.13673,0,0,0,37.34316,53.87438Z" style="fill: #5f6252"/><path d="M27.17176,53.87438a1.13673,1.13673,0,0,0,1.1364-1.1364V35.146a1.1364,1.1364,0,1,0-2.27281,0V52.738A1.13673,1.13673,0,0,0,27.17176,53.87438Z" style="fill: #5f6252"/><path d="M17.00036,53.87438a1.13673,1.13673,0,0,0,1.1364-1.1364V35.146a1.1364,1.1364,0,0,0-2.27281,0V52.738A1.13673,1.13673,0,0,0,17.00036,53.87438Z" style="fill: #5f6252"/><path d="M7.36729,54.08878a1.14973,1.14973,0,0,0,1.14929-1.14929v-17.995a1.14929,1.14929,0,1,0-2.29858,0v17.995A1.14973,1.14973,0,0,0,7.36729,54.08878Z" style="fill: #5f6252"/><path d="M1.49958,36.60527H52.84393a1.49958,1.49958,0,1,0,0-2.99917H1.49958a1.49958,1.49958,0,0,0,0,2.99917Z" style="fill: #7e716d"/><path d="M1.49958,54.60027H52.84393a1.49958,1.49958,0,1,0,0-2.99917H1.49958a1.49958,1.49958,0,0,0,0,2.99917Z" style="fill: #7e716d"/><rect height="2.11258" rx="0.52851" ry="0.52851" style="fill: #c8886d" transform="translate(235.61669 139.69517) rotate(-180)" width="3.75275" x="115.93197" y="68.79129"/><rect height="4.98109" rx="0.93496" ry="0.93496" style="fill: #c16558" transform="translate(17.23467 152.8281) rotate(-180)" width="4.98109" x="6.12679" y="73.9235"/><g><rect height="51.58017" style="fill: #979397" transform="translate(132.03439 129.38904) rotate(-180)" width="19.59456" x="56.21991" y="38.90443"/><g><rect height="5.29873" style="fill: #817f82" transform="translate(132.05457 88.90598) rotate(-180)" width="15.17555" x="58.43951" y="41.80363"/><rect height="4.77407" style="fill: #c8c6c8" transform="translate(132.05457 105.07669) rotate(-180)" width="15.17555" x="58.43951" y="50.15131"/><circle cx="71.4157" cy="60.41868" r="2.17918" style="fill: #afacb0"/><circle cx="66.01719" cy="60.41868" r="2.17918" style="fill: #afacb0"/><circle cx="60.61869" cy="60.41868" r="2.17918" style="fill: #afacb0"/><rect height="20.58238" style="fill: #c8c6c8" transform="translate(143.66095 153.77627) rotate(-180)" width="3.52881" x="70.06607" y="66.59695"/><rect height="20.58238" style="fill: #afacb0" transform="translate(126.63589 153.77627) rotate(-180)" width="9.75686" x="58.43951" y="66.59695"/><rect height="7.82339" style="fill: #817f82" transform="translate(130.90524 144.50172) rotate(-180)" width="2.89355" x="64.00585" y="68.33916"/><rect height="7.82339" style="fill: #817f82" transform="translate(130.90524 163.05082) rotate(-180)" width="2.89355" x="64.00585" y="77.61371"/><rect height="7.82339" style="fill: #817f82" transform="translate(122.36653 144.50172) rotate(-180)" width="2.89355" x="59.73649" y="68.33916"/><rect height="7.82339" style="fill: #817f82" transform="translate(122.36653 163.05082) rotate(-180)" width="2.89355" x="59.73649" y="77.61371"/></g><rect height="51.58017" style="fill: #231f20;opacity: 0.1;mix-blend-mode: darken" transform="translate(147.23013 129.38904) rotate(-180)" width="4.39873" x="71.4157" y="38.90443"/></g></g></g></g></svg>