<?xml version="1.0" ?><svg height="64px" id="Слой_1" style="enable-background:new 0 0 64 64;" version="1.1" viewBox="0 0 64 64" width="64px" xml:space="preserve" xmlns="http://www.w3.org/2000/svg" xmlns:xlink="http://www.w3.org/1999/xlink"><g id="row_1"><g id="orange"><g><circle cx="22" cy="42" r="19" style="fill:#FFB300;"/><circle cx="22" cy="42" r="17" style="fill:#FFF59D;"/><g><path d="M35.3,42.2c0.7,0,1.3-0.6,1.2-1.3c-0.1-2.1-0.7-4.2-1.5-6c-0.3-0.7-1.2-0.9-1.8-0.5l-9,6.1      C23.5,41,23.9,42,24.7,42L35.3,42.2z" style="fill:#FFB74D;"/><path d="M34.8,49.4c0.9-1.8,1.5-3.8,1.7-5.9c0.1-0.7-0.5-1.3-1.2-1.3l-10-0.1c-1,0-1.4,1.3-0.6,1.9      l8.4,5.9C33.6,50.3,34.5,50.1,34.8,49.4z" style="fill:#FFB74D;"/><polygon points="22,42 22,42 22,42     " style="fill:#FFB74D;"/><path d="M22,44.4v12.1c0,0.7,0.6,1.3,1.3,1.2c2-0.2,3.8-0.8,5.5-1.8c0.6-0.3,0.8-1.1,0.4-1.7l-6-10.2      C22.9,43.5,22,43.7,22,44.4z" style="fill:#FFB74D;"/><path d="M10.3,51.3c1.3,1.9,2.9,3.4,4.8,4.5c0.6,0.4,1.5,0.1,1.7-0.6L21,44.5c0.3-0.8-0.6-1.4-1.2-1      l-9.2,6.2C10.1,50,9.9,50.8,10.3,51.3z" style="fill:#FFB74D;"/><path d="M17.5,57c1,0.4,2.1,0.6,3.2,0.7c0.7,0.1,1.3-0.5,1.3-1.2V44.3c0-0.5-0.7-0.6-0.9-0.2l-4.4,11.2      C16.5,56,16.8,56.7,17.5,57z" style="fill:#FFB74D;"/><path d="M9.2,34.6c-0.9,1.8-1.5,3.8-1.7,5.9c-0.1,0.7,0.5,1.3,1.2,1.3L19.3,42c0.8,0,1.2-1,0.5-1.5      L11,34.1C10.4,33.7,9.5,33.9,9.2,34.6z" style="fill:#FFB74D;"/></g><g><path d="M33.7,32.7c-1.3-1.9-2.9-3.4-4.8-4.5c-0.6-0.4-1.5-0.1-1.7,0.6L23,39.5c-0.3,0.8,0.6,1.5,1.3,1      l9.1-6.2C33.9,34,34.1,33.2,33.7,32.7z" style="fill:#FFB74D;"/><path d="M26.5,27c-1-0.4-2.1-0.6-3.2-0.7c-0.7-0.1-1.3,0.5-1.3,1.2v11.7c0,0.6,0.8,0.7,1,0.2l4.2-10.8      C27.5,28,27.2,27.3,26.5,27z" style="fill:#FFB74D;"/><polygon points="22,42 22,42 22,42     " style="fill:#FFB74D;"/><path d="M20.7,26.3c-2,0.2-3.8,0.8-5.5,1.8c-0.6,0.3-0.8,1.1-0.4,1.7l5.7,9.6c0.4,0.7,1.6,0.4,1.6-0.4      V27.5C22,26.8,21.4,26.3,20.7,26.3z" style="fill:#FFB74D;"/><path d="M33.2,50l-8.9-6.3c-0.5-0.4-1.2,0.2-0.9,0.8l5.7,9.6c0.4,0.6,1.2,0.8,1.8,0.3      c0.9-0.8,1.8-1.7,2.5-2.7C33.9,51.1,33.7,50.3,33.2,50z" style="fill:#FFB74D;"/><path d="M13,29.6c-0.9,0.8-1.8,1.7-2.5,2.7c-0.4,0.5-0.3,1.3,0.3,1.7l9.2,6.6c0.5,0.3,1-0.2,0.7-0.7      l-5.9-10C14.5,29.3,13.6,29.1,13,29.6z" style="fill:#FFB74D;"/><path d="M19,42L8.7,41.8c-0.7,0-1.3,0.6-1.2,1.3c0.1,2.1,0.7,4.2,1.5,6c0.3,0.7,1.2,0.9,1.8,0.5l8.8-5.9      C20.3,43.1,19.9,42,19,42z" style="fill:#FFB74D;"/></g></g><path d="M58.9,3H29.1c-0.6,0-1.1,0.5-1,1.1l5.6,46.5c0.2,1.6,0.3,3.2,0.3,4.8V59c0,1.1,0.9,2,2,2h16    c1.1,0,2-0.9,2-2v-3.6c0-1.6,0.1-3.2,0.3-4.8l5.6-46.5C59.9,3.5,59.5,3,58.9,3z M56.2,18H31.8L30.3,5h27.5L56.2,18z" style="fill:#B2DFDB;"/><path d="M31.8,18l3.9,32.4c0.2,1.7,0.3,3.3,0.3,5c0,2,1.6,3.6,3.6,3.6h8.8c2,0,3.6-1.6,3.6-3.6    c0-1.7,0.1-3.4,0.3-5L56.2,18H31.8z" style="fill:#FFF59D;"/><path d="M57.2,18H30.8l3.9,32.5c0,3.8,18.6,3.8,18.6,0L57.2,18z" style="fill:#FFB300;"/></g></g></svg>