<?xml version="1.0" ?><!DOCTYPE svg  PUBLIC '-//W3C//DTD SVG 1.1//EN'  'http://www.w3.org/Graphics/SVG/1.1/DTD/svg11.dtd'><svg enable-background="new 0 0 512 512" id="Layer_1" version="1.1" viewBox="0 0 512 512" xml:space="preserve" xmlns="http://www.w3.org/2000/svg" xmlns:xlink="http://www.w3.org/1999/xlink"><g><circle cx="136.9" cy="152.4" fill="#FBD984" r="48.9"/><g><polygon fill="#788D9A" points="218.6,484.8 191.1,457.3 389.4,259 226,95.6 253.5,68.1 444.4,259   "/></g><path d="M226.9,133.1l-66.5-66.5l63.7-63.7c1.2-1.2,3.1-1.2,4.3,0L290.6,65c1.2,1.2,1.2,3.1,0,4.3L226.9,133.1z" fill="#788D9A"/><path d="M217.3,252c48.2-48.6,48.1-127.1-0.3-175.6s-127-48.6-175.6-0.3L217.3,252z" fill="#EFF3F5"/><path d="M58.6,62.1c-6,4.1-11.8,8.8-17.1,14.1L217.3,252c5.3-5.4,9.9-11.1,14.1-17.1L58.6,62.1z" fill="#DBDFE0"/><circle cx="396.9" cy="266.9" fill="#41B3E2" r="73.6"/><circle cx="396.9" cy="266.9" fill="#445C6C" r="37.3"/><path d="M290.1,436.2H119.6c-40.5,0-73.3,32.8-73.3,73.3h317.2C363.4,469,330.6,436.2,290.1,436.2z" fill="#445C6C"/><path d="M49.5,488.1c-2.1,6.8-3.2,14-3.2,21.4h317.2c0-7.5-1.1-14.7-3.2-21.4H49.5z" fill="#3B515E"/></g></svg>