<?xml version="1.0" ?><svg height="60" id="Weather" viewBox="0 0 60 60" width="60" xmlns="http://www.w3.org/2000/svg"><title/><path d="M23.13069,23.24529a14.79848,14.79848,0,0,1,23.0581-8.9764c-2.7949-1.5753-4.3331,2.3507-2.7721,4.1891,1.875,2.2084,4.7488,1.5017,6.0596-.6186,1.52371-2.4647.107-5.1314-1.9582-7.051a26.00015,26.00015,0,1,0,0,38.4229,19.939,19.939,0,0,1-22.0459-7.9461,1.55132,1.55132,0,0,0,.7153-2.078c-.465-.872-2.29549-.6571-2.5676-1.2895a19.85057,19.85057,0,0,1-1.2994-4.3123c3.17951.1643,9.7341-1.0578,7.42951-2.8357C26.83329,28.49969,22.89279,23.90049,23.13069,23.24529Z" style="fill:#ffd599"/><g style="opacity:0.2"><path d="M29.75,30.74969A27.0412,27.0412,0,0,1,27.46844,28.736a18.2881,18.2881,0,0,1-4.16633.7977,1.7847,1.7847,0,0,0-1.544,2.3193q.27266.88466.62229,1.73383C25.58032,33.73389,32.041,32.51709,29.75,30.74969Z" style="fill:#750000"/><path d="M47.04167,13.74969c-1.375-2.20833-5.75-4.875-10.16667-4.875-7.193,0-14.125,5.08333-15.33333,11.375-.56756,2.95521.95833,3.91667,1.98147,1.41779a14.83878,14.83878,0,0,1,18.202-9.557C44.91667,13.833,47.25,15.12469,47.04167,13.74969Z" style="fill:#750000"/><path d="M48.92987,12.38361c.54642,5.45579-4.2632,6.28276-5.8114,2.81464a3.114,3.114,0,0,0,.29822,3.25977c1.875,2.20837,4.74878,1.50165,6.05963-.61865C50.6123,16.00183,50.11292,14.05237,48.92987,12.38361Z" style="fill:#750000"/><path d="M39.31586,49.8172A26.01084,26.01084,0,0,1,4.48529,34.99939,25.99889,25.99889,0,0,0,47.51807,49.2113a19.73,19.73,0,0,1-8.20221.6059Z" style="fill:#750000"/><path d="M26.625,42.24969c.76425.81355,1.62,1.76287,1.16667,2.375-.31286.42244-1.5197.66667-2.70833.66667-2.911,0-6.125-1.25-6.91667-3.625C22,42.62469,25.64027,41.20144,26.625,42.24969Z" style="fill:#750000"/></g><polygon points="52.682 27 52.7 31.129 56 33.756 52.035 34.963 50.6 39 48.184 35.515 43.944 35.484 46.469 32.023 45.23 28.068 49.26 29.312 52.682 27" style="fill:#fff27d"/><polygon points="52.7 31.129 56 33.756 52.035 34.963 50.6 39 48.184 35.515 43.944 35.484 52.7 31.129" style="fill:#750000;opacity:0.2"/><g style="opacity:0.75"><path d="M13.6807,29.49972c.25369-12.0733,9.73126-22.01965,22.25191-23.345a26.84363,26.84363,0,0,0-2.83092-.155C19.23841,5.99969,8,16.52113,8,29.49972a22.14445,22.14445,0,0,0,1.99537,9.19742A1.842,1.842,0,0,0,13.502,37.8362C13.39879,35.10657,13.61852,32.45881,13.6807,29.49972Z" style="fill:#fff"/><circle cx="10" cy="36.99969" r="5" style="fill:#fff"/></g><path d="M22.10645,43.28369c-.09375,0-.18848-.00146-.2832-.00439a6.425,6.425,0,0,1-4.29785-1.64551,1.00006,1.00006,0,0,1,1.459-1.36816,4.50288,4.50288,0,0,0,2.90332,1.01465,4.43489,4.43489,0,0,0,2.85938-.70312.9999.9999,0,1,1,1.45117,1.376A5.87538,5.87538,0,0,1,22.10645,43.28369Z" style="fill:#6d6daa"/><path d="M18.48926,26.61035a6.71945,6.71945,0,0,1-5.47852-2.81787,1,1,0,0,1,1.67383-1.09473,4.71226,4.71226,0,0,0,3.80469,1.9126,4.59165,4.59165,0,0,0,3.77734-1.86768.99969.99969,0,1,1,1.72852,1.00488A6.53187,6.53187,0,0,1,18.48926,26.61035Z" style="fill:#6d6daa"/><path d="M18.49707,29.24512a.99974.99974,0,0,1-1-1v-2.583a1,1,0,0,1,2,0v2.583A.99974.99974,0,0,1,18.49707,29.24512Z" style="fill:#6d6daa"/><path d="M14.166,28.27441a.99974.99974,0,0,1-.84082-1.53955l1.39453-2.1748a.99987.99987,0,1,1,1.68359,1.0791L15.00879,27.814A1.00013,1.00013,0,0,1,14.166,28.27441Z" style="fill:#6d6daa"/><path d="M22.64551,28.17432a1.00013,1.00013,0,0,1-.84277-.46045l-1.39453-2.1748A.99987.99987,0,1,1,22.0918,24.46l1.39453,2.1748a.99974.99974,0,0,1-.84082,1.53955Z" style="fill:#6d6daa"/><path d="M50.59961,40a1.00146,1.00146,0,0,1-.82227-.43018l-2.12012-3.05859-3.7207-.02686a.99955.99955,0,0,1-.80078-1.58936l2.22852-3.0542L44.27637,28.3667a1.00025,1.00025,0,0,1,1.249-1.25439l3.57129,1.103,3.02539-2.04443a.99994.99994,0,0,1,1.55957.82422l.0166,3.65039,2.9248,2.32812a.99982.99982,0,0,1-.332,1.73877l-3.48242,1.061L51.542,39.335a1.00095,1.00095,0,0,1-.94238.665Zm-4.69922-5.50146,2.29.0166a1.00159,1.00159,0,0,1,.81543.43018l1.30469,1.88281.78223-2.19971a.99964.99964,0,0,1,.65137-.62158l2.14453-.65332-1.81152-1.44189a.99721.99721,0,0,1-.377-.77783L51.69043,28.877l-1.87109,1.26416a1,1,0,0,1-.85449.127L46.75293,29.585l.66992,2.13916a.99777.99777,0,0,1-.14648.88818Z" style="fill:#6d6daa"/><path d="M30,57A27.00024,27.00024,0,1,1,48.18945,10.04688c2.89844,2.69482,3.69336,5.80078,2.1377,8.31836a5.03373,5.03373,0,0,1-3.84375,2.43164A4.51577,4.51577,0,0,1,42.6543,19.105a4.12889,4.12889,0,0,1,.04-5.105,3.29311,3.29311,0,0,1,.35352-.36816,13.83233,13.83233,0,0,0-18.9043,9.63867,30.57227,30.57227,0,0,0,6.2168,6.687,1.75416,1.75416,0,0,1,.77246,2.06934c-.68555,1.85156-5.08594,2.44727-7.57812,2.55127a18.951,18.951,0,0,0,.90723,2.74414c.12891.04395.33594.09326.48438.12939a2.95892,2.95892,0,0,1,2.124,1.26465,2.31539,2.31539,0,0,1-.27441,2.68018A18.93607,18.93607,0,0,0,47.24316,48.25a1,1,0,0,1,.94922,1.7002A26.93277,26.93277,0,0,1,30,57ZM30,4.99951A25.00024,25.00024,0,1,0,43.6748,50.93066,21.00794,21.00794,0,0,1,24.64648,41.8291a.99985.99985,0,0,1,.248-1.37988c.60449-.42822.48828-.647.41016-.7915a3.45528,3.45528,0,0,0-.82715-.26172,2.27564,2.27564,0,0,1-1.77637-1.10449,20.92769,20.92769,0,0,1-1.36523-4.52783,1.005,1.005,0,0,1,.2334-.83887.9909.9909,0,0,1,.80273-.33789,16.29393,16.29393,0,0,0,6.67383-1.11963c-1.34277-1.07715-7.166-6.43457-6.89453-8.39941l-.00488-.00049a15.798,15.798,0,0,1,24.626-9.61035,1.00014,1.00014,0,0,1-1.0752,1.68311c-.8252-.46582-1.23047-.14795-1.46.13281a2.146,2.146,0,0,0-.05859,2.5376,2.54823,2.54823,0,0,0,2.15527.99219,3.03117,3.03117,0,0,0,2.292-1.48926c1.46289-2.36719-.76367-4.83936-1.78809-5.79248A25.0788,25.0788,0,0,0,30,4.99951ZM24.07129,23.585l-.001.002Zm-.94043-.33984h0Zm.97363-.07373Z" style="fill:#6d6daa"/></svg>