<?xml version="1.0" ?><svg height="60" id="Vegetables" viewBox="0 0 60 60" width="60" xmlns="http://www.w3.org/2000/svg"><title/><path d="M37.15094,25.10266a6.65687,6.65687,0,0,1,.37073-1.54047C40.83856,14.473,47.8103,8.33936,46.26508,7.65106c-1.3327-.59418-8.09808,3.25024-12.46075,9.98444C33.725,8.44916,32.412,1.1286,30.7915,1c-1.62042.1286-2.9342,7.44916-3.01361,16.6355-4.36249-6.73419-11.1272-10.57861-12.46-9.98444-1.5451.68829,5.42651,6.8219,8.74341,15.91113a6.642,6.642,0,0,1,.37225,1.553C25.33333,31.41667,29.25922,33,30.81249,33S35.66667,32.25,37.15094,25.10266Z" style="fill:#b1f1a8;fill-rule:evenodd"/><path d="M46.26508,7.65106c-1.3327-.59418-8.09808,3.25024-12.46075,9.98444-.07867-9.10632-1.37-16.3692-2.971-16.62054.83335,13.735.80505,26.248-1.58331,30.65171,1.56134-.00635,6.42291.55343,7.90094-6.564a6.65687,6.65687,0,0,1,.37073-1.54047C40.83856,14.473,47.8103,8.33936,46.26508,7.65106Z" style="fill:#2c4b75;fill-rule:evenodd;opacity:0.2"/><path d="M39.10217,29.194a4.13723,4.13723,0,0,1-1.95123-4.09131A2.77723,2.77723,0,0,0,33.625,27.8125a2.8125,2.8125,0,1,1-5.625,0A2.81249,2.81249,0,0,0,25.18749,25a2.78358,2.78358,0,0,0-.754.11523A4.13654,4.13654,0,0,1,22.48077,29.194C16.43579,33.32855,9,37.02557,9,43.2644c0,10.42175,9.17542,15.447,20.69476,15.726.35352.00934,1.58984.01721,2.3479-.00317C43.49,58.66577,52.583,53.63916,52.583,43.2644,52.583,37.02557,45.14722,33.32855,39.10217,29.194Z" style="fill:#ffc661;fill-rule:evenodd"/><path d="M33.22013,39.87421C32.33333,44,29.25334,46.66667,24.36006,46.66667s-9.21956-2.00023-9.11006-5.75C15.41667,35.20912,24.33333,32.25,28.16667,28.75,32,29.83333,34.00844,36.20661,33.22013,39.87421Z" style="fill:#fff;fill-rule:evenodd;opacity:0.5"/><g style="opacity:0.2"><path d="M47.8075,35.19543a7.84071,7.84071,0,0,1,1.02551,3.819c0,10.37476-9.093,15.40137-20.54034,15.72278-.75806.02039-1.99438.01251-2.3479.00317-6.06256-.14685-11.45886-1.6228-15.22705-4.49371,3.1723,5.70642,10.42407,8.53656,18.97705,8.74371.35352.00934,1.58984.01721,2.3479-.00317C43.49,58.66577,52.583,53.63916,52.583,43.2644,52.583,40.02881,50.57623,37.47925,47.8075,35.19543Z" style="fill:#750000;fill-rule:evenodd"/></g><path d="M37.15094,25.10266a6.65687,6.65687,0,0,1,.37073-1.54047C40.83856,14.473,47.8103,8.33936,46.26508,7.65106c-1.3327-.59418-8.09808,3.25024-12.46075,9.98444C33.725,8.44916,32.412,1.1286,30.7915,1c-1.62042.1286-2.9342,7.44916-3.01361,16.6355-4.36249-6.73419-11.1272-10.57861-12.46-9.98444-1.5451.68829,5.42651,6.8219,8.74341,15.91113a6.642,6.642,0,0,1,.37225,1.553" style="fill:none;stroke:#6d6daa;stroke-linecap:round;stroke-linejoin:round;stroke-width:2px;fill-rule:evenodd"/><path d="M39.10217,29.194a4.13723,4.13723,0,0,1-1.95123-4.09131A2.77723,2.77723,0,0,0,33.625,27.8125a2.8125,2.8125,0,1,1-5.625,0A2.81249,2.81249,0,0,0,25.18749,25a2.78358,2.78358,0,0,0-.754.11523A4.13654,4.13654,0,0,1,22.48077,29.194C16.43579,33.32855,9,37.02557,9,43.2644c0,10.42175,9.17542,15.447,20.69476,15.726.35352.00934,1.58984.01721,2.3479-.00317C43.49,58.66577,52.583,53.63916,52.583,43.2644,52.583,37.02557,45.14722,33.32855,39.10217,29.194Z" style="fill:none;stroke:#6d6daa;stroke-linecap:round;stroke-linejoin:round;stroke-width:2px;fill-rule:evenodd"/></svg>