<?xml version="1.0" ?><svg enable-background="new 0 0 60 60" height="60px" id="Layer_1" version="1.1" viewBox="0 0 60 60" width="60px" xml:space="preserve" xmlns="http://www.w3.org/2000/svg" xmlns:xlink="http://www.w3.org/1999/xlink"><path d="M34.1031532,27.8765926L23.817812,27.5649147c0,0-0.1558399-2.4934158,0.2200871-4.0128422  c0.2995758-1.2108288,9.6249352-1.3260479,10.0720406-0.3506355C34.5385361,24.136467,34.1031532,27.8765926,34.1031532,27.8765926z  " fill="#6AC1F7"/><path d="M36.3395348,53.0515404l-4.6809959-0.9963951c0.7000923-3.2920265,0.0500069-8.3870964-1.4202824-11.1248436  l4.2164478-2.2638512C36.4404831,42.3650742,37.268631,48.68367,36.3395348,53.0515404z" fill="#6AC1F7"/><path d="M36.3720284,55.6261711c1.2593956,0.0630875,0.456604,2.4330177,2.4613647,2.3257103  c1.2978706-0.0694656,2.1147575-0.8262062,2.2483253-1.8017349c0.2215538-1.6181602,0.0075417-6.242485-6.0812912-6.3417664  c-4.6795654-0.0762978-4.96418,2.1453781-4.7580585,5.3594208c0.1647739,2.569294,0.5571804,3.0064621,2.6801357,2.8955727  C34.9905815,57.9553528,34.3042068,55.522583,36.3720284,55.6261711z" fill="#3477E0"/><path d="M18.5044518,36.8082581c-6.6756535-0.4776344-10.3055763-3.7163811-10.7892857-9.6265144l4.769793-0.3907051  c0.2364807,2.8919735,1.4085989,4.8894348,6.3606596,5.2446213L18.5044518,36.8082581z" fill="#6AC1F7"/><path d="M22.0292206,52.3991165c-1.3431702-4.7894211-0.2673264-10.060215,1.3006401-12.9297562l4.1996231,2.2937622  c-0.8973141,1.6432114-1.9334335,5.6325264-0.8921738,9.3442345L22.0292206,52.3991165z" fill="#6AC1F7"/><path d="M14.528635,13.7232838c-0.7189865,0.6557999-0.8292017,5.6907196,0.3275747,6.6739025  c0.6630278,0.56353,7.2888689,0.546711,7.7502661-0.2233257c0.3784733-0.6316395,0.5354042-6.2801409-0.1466618-6.5608959  C21.6552105,13.2817698,15.5506115,12.7911215,14.528635,13.7232838z" fill="#6AC1F7"/><path d="M34.4613533,13.7232838c-0.7189865,0.6557999-0.8292046,5.6907196,0.3275719,6.6739025  c0.6630287,0.56353,7.0216522,0.3225002,7.750267-0.2233257c1.0203476-0.7643681,1.1679993-5.5997982-0.1466599-6.5608959  C41.6955528,13.1034288,35.483326,12.7911215,34.4613533,13.7232838z" fill="#6AC1F7"/><path d="M28.7639503,12.2338409c-2.8700466,0.0727501-5.5502033-3.0967283-5.2478504-5.9766083  c0.2997704-2.8552761,2.1143513-4.3440013,4.9843979-4.4167519s5.5440235,2.2020934,5.3284054,5.0649538  C33.5910416,10.0636568,31.633997,12.1610909,28.7639503,12.2338409z" fill="#FBB040"/><path d="M18.3866234,8.7757864c-1.7008781,1.8513641-1.3403931,13.3951273,0.8490696,14.7446737  c1.9305134,1.1899338,18.8926525,1.4170685,20.0885906-0.5788555c0.980999-1.6372051,1.387764-13.7240505-0.380146-14.4517651  C36.8586159,7.6313868,20.1483078,6.8582349,18.3866234,8.7757864z" fill="#3477E0"/><path d="M14.6696444,28.8916321c-0.8649969,1.7502155-5.3514509,3.7509346-7.3844481,3.004528  c-3.0593538-1.12323-4.1594305-6.6628799-4.0083723-7.2950096c0.1458886-0.6103992,2.4541337-1.534605,2.9979227-1.0782509  c0.3521066,0.2954102,1.0508618,1.3869057,1.6137695,2.8732758c0.502492-0.2380924,1.0411463-0.4824409,1.5721111-0.7137089  c-0.8140001-1.4166203-1.5646949-2.7257977-1.447978-3.2142601c0.1458988-0.6102982,2.320941-1.3174133,2.9979229-1.0782509  C12.5983953,21.950901,15.5520334,27.106226,14.6696444,28.8916321z" fill="#DA1C5C"/><path d="M40.6485176,36.3053894c-0.603817,0-1.2057648-0.0486069-1.796032-0.1467514l0.7870216-4.720253  c1.711441,0.2850857,3.6490822-0.1766586,4.9333649-1.1777267c1.0613556-0.8262787,1.6605034-1.9937229,1.7810783-3.4696198  l4.7697945,0.3907051c-0.2308731,2.82374-1.4791679,5.194149-3.6088905,6.8541832  C45.644043,35.4931297,43.1301575,36.3053894,40.6485176,36.3053894z" fill="#6AC1F7"/><path d="M43.9172058,29.5004177c1.1431046,2.3536129,5.2769012,3.634264,7.5683975,3.0019741  c2.0810165-0.5742149,4.0547676-7.0622311,3.868763-7.7130108c-0.1796341-0.6284084-2.6346664-1.5063-3.1831551-1.013464  c-0.3551521,0.3190269-1.0375595,1.476553-1.5603828,3.0391445c-0.5360832-0.2294083-1.1102638-0.4640369-1.6758194-0.685358  c0.7885208-1.4990482,1.5155983-2.884346,1.3718758-3.3872204c-0.1796379-0.6283035-2.4857368-1.2855644-3.1831512-1.013464  C45.4879837,22.3672142,43.0097733,27.6320343,43.9172058,29.5004177z" fill="#DA1C5C"/><path d="M40.5167274,27.5864124c-1.4273605-2.1390114-19.0926247-2.0854931-22.6102104,0.1733017  c-1.4561081,0.93503-0.9707394,15.1942577,1.092083,16.1292896c2.3045826,1.0446167,19.8521652,1.5561829,21.2636795-0.2470856  C42.5390282,40.7332726,41.5682907,29.1622601,40.5167274,27.5864124z" fill="#3477E0"/><path d="M23.7424984,17.8699112c-1.4274578,0.0361843-2.7604733-1.5402012-2.6100922-2.9725513  c0.1490955-1.4201126,1.0516033-2.1605511,2.4790611-2.1967344c1.4274597-0.0361834,2.7573986,1.0952425,2.6501598,2.5191269  C26.1433239,16.7905388,25.1699581,17.8337288,23.7424984,17.8699112z" fill="#FFFFFF"/><path d="M22.023756,55.6428452c-1.2890491,0.0665131-0.4747982,2.4343071-2.526123,2.3324394  c-1.3280163-0.0659447-2.1616745-0.8204803-2.2953529-1.7956657c-0.2217388-1.617588,0.0114994-6.245945,6.2431316-6.3583946  c4.9094143-0.0885925,4.7758503,1.8986473,4.8528023,5.3466034c0.0574341,2.5734558-0.5794983,3.0080299-2.7517719,2.9029045  C23.4303226,57.9683228,24.1402683,55.5336418,22.023756,55.6428452z" fill="#3477E0"/><path d="M30.7800255,15.3114481c-0.0240536-1.4277143,1.5635986-2.7472887,2.9946213-2.5847454  c1.4187927,0.1611547,2.1515388,1.0699205,2.1755905,2.4976349c0.0240555,1.4277143-1.1186256,2.7479944-2.5415497,2.6286612  C31.8389626,17.7213554,30.804081,16.7391624,30.7800255,15.3114481z" fill="#FFFFFF"/><path d="M22.6049309,38.7409859c-0.3655567-4.9689522,1.3045521-8.299654,5.8966293-8.8331528  c5.1927719-0.6032867,8.5159645,3.2595596,8.2535248,8.5841331C36.6958427,39.6938896,22.9432144,39.7740364,22.6049309,38.7409859z  " fill="#FFFFFF"/><path d="M28.8424206,42.427063c0.9274406-0.0399323,3.6038036-7.3222275,2.7027149-7.8208923  c-0.673439-0.3726807-6.7356911,4.9322701-6.1925793,5.7747345C25.726202,40.960495,28.025774,42.4622269,28.8424206,42.427063z" fill="#3477E0"/></svg>