<?xml version="1.0" ?><svg viewBox="0 0 64 64" xmlns="http://www.w3.org/2000/svg"><defs><style>.cls-1{fill:#d4145a;}.cls-2{fill:#e47979;}.cls-3{fill:#ffd599;}.cls-4{fill:#009245;}.cls-5{fill:#42210b;opacity:0.35;}.cls-6{fill:#fff;opacity:0.5;}.cls-7{fill:#603813;}</style></defs><title/><g id="Color"><path class="cls-1" d="M59.54,36.22c0,.8,0,1.68,0,2.62a1.55,1.55,0,0,1,0,.22c-.19,5.07-9,5.69-9,5.69H13.5a9.63,9.63,0,0,1-8.78-5.69c-.07-.14-.1-.22-.1-.22V30.62c0-1.7,2.76-11.43,27.94-11.43a61.28,61.28,0,0,1,11.66,1c14.13,2.74,15.34,10.19,15.34,10.19s0,.11,0,.31a2.54,2.54,0,0,1,0,.26h0V31C59.54,31.93,59.52,33.73,59.54,36.22Z"/><path class="cls-2" d="M59.54,31h0V31c0,.9,0,2.7,0,5.19H52.16c-1.63,0-2.9,1.71-4.18,2.84a3,3,0,0,1-2.21,1,4.48,4.48,0,0,1-2.06-1c-1.47-1.1-3-2.71-4.73-2.68s-3.26,1.6-4.69,2.68a3.83,3.83,0,0,1-2.2,1,4.69,4.69,0,0,1-2.24-1c-1.6-1.12-3.34-2.75-4.63-2.68s-3,1.61-4.52,2.68a4.58,4.58,0,0,1-2.24,1,5.66,5.66,0,0,1-2.47-1,31.93,31.93,0,0,1-3.65-2.68H4.62V30.7H5l49.12.23h5.45Z"/><path class="cls-3" d="M59.56,30.38s0,.11,0,.31H4.62v-.07c0-1.7,2.76-11.43,27.94-11.43a61.28,61.28,0,0,1,11.66,1C58.35,22.93,59.56,30.38,59.56,30.38Z"/><path class="cls-4" d="M59.56,31a.31.31,0,0,0,0,.07c-.13.37-.93,2.2-4.63,3.16a18.24,18.24,0,0,1-3,.49h-.06c-.36,0-.74.06-1.14.07-8.05.29-9.45-3.5-9.45-3.5S38.31,34.78,32,34.59s-8.94-3.18-8.94-3.18-2.84,3.34-10.12,3.34c-6.08,0-7.63-3.05-8-4.05H5a2.3,2.3,0,0,1-.09-.31l29.23.31,20,.21,3.79,0,1.62,0Z"/><path class="cls-3" d="M59.55,39.06c-.19,5.07-9,5.69-9,5.69H13.5a9.63,9.63,0,0,1-8.78-5.69Z"/><path class="cls-5" d="M59.54,31c0,.9,0,2.7,0,5.19,0,.8,0,1.68,0,2.62a1.55,1.55,0,0,1,0,.22c-.19,5.07-9,5.69-9,5.69h-16a6.57,6.57,0,0,1,.7-.87s12.59-.44,15.28-1.32a7.2,7.2,0,0,0,3.91-3.5l-3.6.13a.73.73,0,0,1,0-.13,2.14,2.14,0,0,1,.11-.9c.18-.54,4-.54,4-.54V34.19s-.6.4-3,.49h-.06a41.28,41.28,0,0,1-6.9-.87,14.91,14.91,0,0,0,5.4-.9,27.18,27.18,0,0,0,3.78-2s0,0,0,0l.31-.21-28.19-.5,23.59-1.28a10,10,0,0,0-.75-3.75c-.5-1.5-2.9-3.52-4.87-5,14.13,2.74,15.34,10.19,15.34,10.19s0,.11,0,.31a2.54,2.54,0,0,1,0,.26h0A.31.31,0,0,0,59.54,31Z"/><path class="cls-6" d="M7.19,29a17.91,17.91,0,0,1,9.31-6c5.88-1.41,7.81-1.38,7.81-1.38s-3.9,3.59-4.22,5.25a2.9,2.9,0,0,1-2.78,2.54C15.88,29.56,8,29.81,7.19,29Z"/><path class="cls-6" d="M8.41,40.07H26.86s.27,2.4-.61,2.81S11.88,44.42,8.41,40.07Z"/><path class="cls-5" d="M36.65,30.72A6.47,6.47,0,0,1,32.88,33a31.63,31.63,0,0,1-6,.77s5.32,1.39,9.35.3,5-3,5-3Z"/><path class="cls-5" d="M16.85,30.72A3.44,3.44,0,0,1,14.44,33c-2.13.77-6,.23-6,.23s4.85,2,9.24.89,5.29-2.83,5.29-2.83Z"/></g><g data-name="Layer 2" id="Layer_2"><path class="cls-7" d="M5,37.13a.75.75,0,0,1-.69-.69.77.77,0,0,1,.69-.8h6.74c1.37,0,2.63,1,3.89,1.94,1,.8,2.05,1.6,3,1.6s1.94-.8,3-1.6,2.4-1.94,3.77-1.94,2.63,1,3.89,1.94c1,.8,2,1.6,2.85,1.6s2-.8,3-1.6c1.25-.91,2.51-1.94,3.88-1.94s2.52,1,3.77,1.94c1,.8,2.06,1.6,3,1.6s1.95-.8,3-1.6,2.4-1.94,3.77-1.94H55a.77.77,0,0,1,.69.8.75.75,0,0,1-.69.69H52.46c-.92,0-2,.8-3,1.6s-2.4,1.94-3.78,1.94-2.62-1-3.88-1.94c-1-.8-2.06-1.6-2.86-1.6s-1.94.8-3,1.6c-1.26.91-2.51,1.94-3.89,1.94s-2.51-1-3.77-1.94c-1-.8-2.05-1.6-3-1.6s-1.94.8-3,1.6-2.4,1.94-3.77,1.94-2.63-1-3.89-1.94c-1-.8-2.05-1.6-3-1.6Zm39.31,0a.74.74,0,0,1-.68-.69.76.76,0,0,1,.68-.8h2.75a.78.78,0,0,1,.8.8.77.77,0,0,1-.8.69Zm-13.71,0a.75.75,0,0,1-.69-.69.77.77,0,0,1,.69-.8h2.86a.76.76,0,0,1,.68.8.74.74,0,0,1-.68.69Zm-13.6,0a.67.67,0,0,1-.69-.69c0-.46.23-.8.69-.8h2.74a.78.78,0,0,1,.8.8.77.77,0,0,1-.8.69Zm21.14,2.4a.74.74,0,0,1-.68-.69.65.65,0,0,1,.68-.68h1.26a.65.65,0,0,1,.68.68.74.74,0,0,1-.68.69Zm-13.37,0a.67.67,0,0,1-.69-.69.6.6,0,0,1,.69-.68h1.37a.66.66,0,0,1,.69.68.75.75,0,0,1-.69.69Zm26.74,0a.77.77,0,0,1-.8-.69c0-.46.35-.68.8-.68H59.2c.46,0,.8.22.8.68h0c-.11,6.63-8.8,6.63-14.51,6.63-8.69,0-17.26-.11-25.95,0-4.23.11-14.51.23-15.2-5.83v-.8A.74.74,0,0,1,5,38.16h6.4c.46,0,.8.22.8.68a.77.77,0,0,1-.8.69H5.83C6.4,44.21,15.66,44.1,19.54,44h26c4.91,0,12.22,0,12.91-4.45ZM23.89,31.41a5.43,5.43,0,0,0,1.94,1.37,19,19,0,0,0,12.34,0,6.69,6.69,0,0,0,1.94-1.37Zm18.17,0A5.53,5.53,0,0,0,44,32.78a19,19,0,0,0,12.34,0,6.9,6.9,0,0,0,1.95-1.37ZM60,31c-.23,1.25-1.37,2.4-3.2,3.08a16,16,0,0,1-6.63,1.14A16.59,16.59,0,0,1,43.43,34a5.17,5.17,0,0,1-2.4-1.6A4.34,4.34,0,0,1,38.74,34,17,17,0,0,1,32,35.18,16.59,16.59,0,0,1,25.26,34a5.17,5.17,0,0,1-2.4-1.6A4.34,4.34,0,0,1,20.57,34a17,17,0,0,1-6.74,1.14A16.59,16.59,0,0,1,7.09,34C5.49,33.36,4,32.33,4,30.5c.23-5.83,7.43-9.49,16.69-11.09a71.73,71.73,0,0,1,11.2-.91,74.48,74.48,0,0,1,11.31.91c6.06,1,15.66,3.89,16.69,10.29A4.85,4.85,0,0,1,60,31Zm-54.29.45a5.58,5.58,0,0,0,2,1.37,18.54,18.54,0,0,0,6.17,1,18.54,18.54,0,0,0,6.17-1,6.83,6.83,0,0,0,1.94-1.37ZM5.49,30h53c-.57-3.88-5-6.63-11.31-8.23A11.86,11.86,0,0,0,40,25.13a.65.65,0,0,1-1,0,.85.85,0,0,1,0-1A12.56,12.56,0,0,1,44,21c-.34,0-.69-.11-1-.11a32.73,32.73,0,0,0-5.71-.69,10.39,10.39,0,0,0-5,1.83.85.85,0,0,1-1-.11.75.75,0,0,1,.23-1A11.49,11.49,0,0,1,32.91,20h-1a56.57,56.57,0,0,0-11,.92C12.69,22.27,6.17,25.36,5.49,30ZM37.6,25.81a.76.76,0,0,1,1-.23.63.63,0,0,1,.23.92l-.35.68a.91.91,0,0,1-1,.35.74.74,0,0,1-.23-1Zm-8.23-3.2a.65.65,0,0,1,1,0,.61.61,0,0,1,.11.92,8.59,8.59,0,0,0-1.25,1.6l-1,1.71a.69.69,0,0,1-.92.46.79.79,0,0,1-.34-1c.34-.69.69-1.37,1-1.94a11.23,11.23,0,0,1,1.37-1.72ZM21.71,21a.75.75,0,0,1,1,.23.86.86,0,0,1-.23,1,15.66,15.66,0,0,0-2.74,2.17,14.62,14.62,0,0,0-2.28,2.86c-.23.34-.69.46-.92.23a.75.75,0,0,1-.23-1,16.59,16.59,0,0,1,2.4-3.09,20.81,20.81,0,0,1,3-2.4Zm36,16.12a.74.74,0,0,1-.68-.69.76.76,0,0,1,.68-.8H59.2a.78.78,0,0,1,.8.8.77.77,0,0,1-.8.69Z"/></g></svg>