<?xml version="1.0" ?><!DOCTYPE svg  PUBLIC '-//W3C//DTD SVG 1.1//EN'  'http://www.w3.org/Graphics/SVG/1.1/DTD/svg11.dtd'><svg enable-background="new 0 0 200 200" height="200px" id="Layer_1" version="1.1" viewBox="0 0 200 200" width="200px" xml:space="preserve" xmlns="http://www.w3.org/2000/svg" xmlns:xlink="http://www.w3.org/1999/xlink"><g><path d="M200,99.987C200,155.238,155.211,200,99.981,200C44.742,200,0,155.238,0,99.987C0,44.801,44.742,0,99.981,0   C155.211,0,200,44.801,200,99.987z" fill="#31D9DE"/><g><polygon fill="#FFD85C" points="135.228,108.463 99.983,79.57 64.681,108.463 11.543,108.463 11.543,154.848 44.686,154.848     155.261,154.848 188.392,154.848 188.392,108.463   "/><g><g><rect fill="#3E4959" height="22.205" width="16.008" x="19.145" y="122.052"/><rect fill="#3E4959" height="19.024" width="12.786" x="20.707" y="123.659"/><rect fill="#31D9DE" height="19.024" width="12.786" x="20.707" y="123.659"/><rect fill="#3E4959" height="20.593" width="1.595" x="26.351" y="122.956"/><rect fill="#3E4959" height="1.646" width="14.669" x="19.823" y="132.344"/></g><g><rect fill="#3E4959" height="22.188" width="15.997" x="43.162" y="122.049"/><rect fill="#3E4959" height="19.024" width="12.797" x="44.72" y="123.623"/><rect fill="#31D9DE" height="19.024" width="12.797" x="44.72" y="123.623"/><rect fill="#3E4959" height="20.596" width="1.565" x="50.369" y="122.927"/><rect fill="#3E4959" height="1.645" width="14.728" x="43.81" y="132.318"/></g><g><rect fill="#3E4959" height="22.205" width="16.004" x="67.155" y="122.052"/><rect fill="#3E4959" height="19.024" width="12.817" x="68.717" y="123.659"/><rect fill="#31D9DE" height="19.024" width="12.817" x="68.717" y="123.659"/><rect fill="#3E4959" height="20.593" width="1.557" x="74.364" y="122.956"/><rect fill="#3E4959" height="1.646" width="14.745" x="67.82" y="132.344"/></g><g><rect fill="#3E4959" height="22.19" width="16.011" x="116.926" y="122.04"/><rect fill="#3E4959" height="19.024" width="12.782" x="118.588" y="123.609"/><rect fill="#31D9DE" height="19.024" width="12.782" x="118.588" y="123.609"/><rect fill="#3E4959" height="20.59" width="1.603" x="124.13" y="122.919"/><rect fill="#3E4959" height="1.648" width="14.714" x="117.662" y="132.306"/></g><g><rect fill="#3E4959" height="22.191" width="16.015" x="140.917" y="122.044"/><rect fill="#3E4959" height="19.023" width="12.782" x="142.559" y="123.619"/><rect fill="#31D9DE" height="19.023" width="12.782" x="142.559" y="123.619"/><rect fill="#3E4959" height="20.595" width="1.64" x="148.128" y="122.923"/><rect fill="#3E4959" height="1.649" width="14.663" x="141.673" y="132.313"/></g><g><rect fill="#3E4959" height="22.187" width="16.019" x="164.959" y="122.037"/><rect fill="#3E4959" height="19.023" width="12.771" x="166.576" y="123.604"/><rect fill="#31D9DE" height="19.023" width="12.771" x="166.576" y="123.604"/><rect fill="#3E4959" height="20.589" width="1.651" x="172.136" y="122.915"/><rect fill="#3E4959" height="1.646" width="14.663" x="165.677" y="132.301"/></g></g><g><polygon fill="#FF6D3B" points="11.543,108.315 37.19,70.969 162.842,70.969 188.392,108.315 135.228,108.315 99.983,79.384      64.681,108.315    "/><path d="M188.392,110.06h-53.164c-0.368,0-0.688-0.066-1.002-0.304l-34.22-28.113L65.71,109.727     c-0.257,0.261-0.609,0.333-1.029,0.333H11.543c-0.876,0-1.557-0.706-1.557-1.597c0-0.839,0.681-1.548,1.557-1.548h52.593     l34.813-28.6c0.622-0.445,1.473-0.454,2.035-0.019l34.793,28.618h52.613c0.891,0,1.604,0.709,1.604,1.548     C189.996,109.354,189.282,110.06,188.392,110.06z" fill="#E64717"/></g><g><rect fill="#E64717" height="12.22" width="41.583" x="79.203" y="105.795"/><path d="M121.618,119.462H78.422v-15.206h43.196V119.462z M79.964,117.898h40.008v-11.995H79.964V117.898z" fill="#3E4959"/><g><path d="M82.63,116.592c-0.047-0.061-0.047-0.14-0.056-0.219l-0.252-1.292c-0.007-0.059,0.033-0.088,0.101-0.097      l0.167-0.052c0.04-0.02,0.063,0.017,0.083,0.09l0.372,0.675c0.308,0.47,0.486,0.834,1.252,0.834      c0.453,0,1.115-0.306,1.115-0.932c0-0.606-0.332-1-1.408-1.317c-0.794-0.239-1.619-0.638-1.619-1.789      c0-0.959,0.912-1.678,1.97-1.678c0.629,0,1.04,0.19,1.256,0.299c0.208,0.043,0.234,0.128,0.25,0.21l0.239,0.988      c0,0.061-0.045,0.11-0.13,0.129l-0.165,0.052c-0.056,0.016-0.094,0-0.139-0.063l-0.433-0.61      c-0.196-0.313-0.473-0.591-0.981-0.591c-0.58,0-1.08,0.337-1.08,0.914c0,0.879,0.623,0.997,1.356,1.174      c1.009,0.343,1.667,0.727,1.678,1.827c-0.011,1.113-0.935,1.887-2.164,1.887C83.384,117.03,82.779,116.731,82.63,116.592z" fill="#FFFFFF"/><path d="M88.292,113.411c0,0.746,0.328,1.656,0.684,2.146c0.506,0.589,1.044,0.699,1.575,0.699      c0.685,0,1.023-0.148,1.501-0.56c0.04-0.021,0.099-0.036,0.149,0l0.136,0.148c0.059,0.05,0.074,0.104,0,0.181      c-0.443,0.426-1.341,1.004-2.298,1.004c-0.705,0-1.49-0.179-2.187-1.003c-0.479-0.719-0.593-1.282-0.593-1.948      c0-1.638,1.16-3.264,3.012-3.264c1.412,0,1.919,0.851,1.919,1.156c-0.019,0.261-0.264,0.451-0.564,0.451      c-0.279,0-0.554-0.205-0.779-0.533c-0.259-0.615-0.562-0.661-0.933-0.661C89.143,111.229,88.292,112.002,88.292,113.411z" fill="#FFFFFF"/><path d="M93.931,109.137c0-0.846-0.179-1.011-0.639-1.139l-0.276-0.065c-0.085-0.04-0.096-0.051-0.096-0.088      v-0.138c0-0.049,0.049-0.065,0.183-0.165l1.49-0.748c0.085-0.057,0.158-0.111,0.274-0.111c0.094,0,0.149,0.111,0.123,0.353      c-0.029,0.197-0.045,3.047-0.045,3.799v0.894h0.071c0.531-0.608,1.341-0.912,1.926-0.912c0.622,0,0.999,0.199,1.428,0.521      c0.601,0.649,0.569,1.358,0.569,2.075v0.786c0,0.841,0.031,1.716,0.031,1.936c0,0.175,0.259,0.219,0.56,0.219h0.183      c0.121,0,0.163,0.021,0.163,0.13v0.238c0,0.121-0.028,0.176-0.12,0.176c-0.085,0-0.502-0.044-1.297-0.044      c-0.745,0-1.207,0.044-1.352,0.044c-0.104,0-0.132-0.044-0.132-0.164v-0.264c0-0.071,0.014-0.116,0.094-0.116h0.361      c0.196,0,0.478-0.028,0.495-0.278c0.016-0.148,0-0.924,0-1.348v-1.157c0-0.768-0.06-1.388-0.419-1.706      c-0.29-0.297-0.627-0.435-0.928-0.435c-0.429,0-0.962,0.167-1.321,0.602c-0.143,0.129-0.313,0.431-0.313,0.71v3.07      c0,0.396,0.045,0.542,0.344,0.542h0.382c0.094,0,0.156,0.021,0.156,0.116v0.264c0,0.109-0.027,0.164-0.128,0.164      c-0.1,0-0.674-0.044-1.28-0.044c-0.747,0-1.236,0.044-1.403,0.044c-0.047,0-0.096-0.044-0.096-0.146v-0.282      c0-0.107,0.06-0.116,0.243-0.116h0.31c0.179,0,0.382-0.064,0.408-0.231c0.05-0.225,0.05-1.815,0.05-2.723V109.137z" fill="#FFFFFF"/><path d="M101.434,116.029c-0.694-0.804-0.774-1.284-0.774-2.272c0-0.717,0.353-1.658,1.167-2.298      c0.778-0.521,1.457-0.644,1.885-0.644c0.828,0,1.585,0.342,1.978,0.819c0.669,0.598,0.99,1.387,0.99,2.296      c0,1.499-1.383,3.1-3.105,3.1C102.856,117.03,101.993,116.75,101.434,116.029z M105.503,113.781c0-1.61-1.143-2.587-1.881-2.587      c-0.363,0-0.766,0.095-1.053,0.493c-0.592,0.516-0.806,1.145-0.806,2.21c0,0.797,0.092,1.271,0.587,1.977      c0.316,0.413,0.693,0.702,1.352,0.702C104.76,116.576,105.503,115.252,105.503,113.781z" fill="#FFFFFF"/><path d="M108.428,116.029c-0.693-0.804-0.79-1.284-0.79-2.272c0-0.717,0.375-1.658,1.188-2.298      c0.78-0.521,1.464-0.644,1.912-0.644c0.794,0,1.56,0.342,1.979,0.819c0.629,0.598,0.939,1.387,0.939,2.296      c0,1.499-1.358,3.1-3.072,3.1C109.854,117.03,108.99,116.75,108.428,116.029z M112.495,113.781c0-1.61-1.14-2.587-1.848-2.587      c-0.384,0-0.794,0.095-1.084,0.493c-0.591,0.516-0.792,1.145-0.792,2.21c0,0.797,0.089,1.271,0.575,1.977      c0.302,0.413,0.703,0.702,1.384,0.702C111.757,116.576,112.495,115.252,112.495,113.781z" fill="#FFFFFF"/><path d="M116.54,112.669c0,0.682,0,2.813,0.014,3.294c0.016,0.184,0.075,0.389,0.318,0.389h0.681      c0.109,0,0.123,0.045,0.123,0.13v0.269c0,0.091-0.014,0.146-0.059,0.146c-0.096,0-0.761-0.044-1.633-0.044      c-0.893,0-1.41,0.044-1.548,0.044c-0.078,0-0.101-0.055-0.101-0.146v-0.269c0-0.108,0.022-0.13,0.188-0.13h0.646      c0.177,0,0.319-0.108,0.335-0.324c0.021-0.454,0.021-2.881,0.021-3.699v-0.875c0-1.003-0.021-2.304-0.047-2.613      c-0.022-0.521-0.274-0.752-0.721-0.843l-0.269-0.104c-0.066-0.024-0.082-0.045-0.082-0.057v-0.129      c0-0.039,0.038-0.065,0.127-0.105c0.462-0.251,1.113-0.484,1.611-0.808c0.165-0.09,0.245-0.111,0.327-0.111      c0.119,0,0.137,0.065,0.125,0.27c-0.006,0.755-0.058,3.684-0.058,4.419V112.669z" fill="#FFFFFF"/></g></g><g><polygon fill="#FFD85C" points="117.566,55.04 99.979,41.467 82.474,55.04 82.474,74.131 117.566,74.131    "/><g><polygon fill="#FF6D3B" points="74.536,52.112 99.979,32.396 125.502,52.112 129.625,59.052 99.979,36.109 70.419,59.052           "/><polygon fill="#E64717" points="127.499,62.798 99.979,41.467 72.534,62.798 70.419,59.052 99.979,36.109 129.625,59.052           "/></g><g><path d="M112.408,60.584c0,6.798-5.594,12.381-12.425,12.381c-6.829,0-12.416-5.583-12.416-12.381      c0-6.852,5.587-12.442,12.416-12.442C106.814,48.142,112.408,53.732,112.408,60.584z" fill="#FFFFFF"/><rect fill="#FF6D3B" height="1.606" width="5.293" x="93.787" y="59.755"/><path d="M101.623,60.584c0,0.899-0.761,1.605-1.64,1.605c-0.903,0-1.624-0.706-1.624-1.605      c0-0.917,0.721-1.66,1.624-1.66C100.862,58.924,101.623,59.667,101.623,60.584z" fill="#242D3C"/><path d="M100.963,60.584c0,0.511-0.396,0.96-0.979,0.96c-0.509,0-0.986-0.449-0.986-0.96      c0-0.601,0.478-1.003,0.986-1.003C100.567,59.581,100.963,59.983,100.963,60.584z" fill="#FF6D3B"/><g><rect fill="#242D3C" height="1.667" width="1.606" x="99.183" y="49.801"/><polygon fill="#242D3C" points="94.187,53.563 92.984,54.746 91.809,53.563 92.984,52.38      "/><rect fill="#242D3C" height="1.606" width="1.615" x="89.261" y="59.755"/><polygon fill="#242D3C" points="92.984,66.409 94.187,67.565 92.984,68.746 91.809,67.565      "/><rect fill="#242D3C" height="1.612" width="1.606" x="99.183" y="69.661"/><polygon fill="#242D3C" points="105.835,67.565 107.009,66.409 108.158,67.565 107.009,68.743      "/><rect fill="#242D3C" height="1.606" width="1.667" x="109.077" y="59.755"/><polygon fill="#242D3C" points="107.009,54.746 105.835,53.563 107.009,52.38 108.158,53.563      "/></g><rect fill="#242D3C" height="6.659" width="1.606" x="99.183" y="52.922"/></g></g><g><g><rect fill="#FF6D3B" height="32.792" width="18.707" x="90.653" y="122.04"/><rect fill="#E64717" height="8.892" width="11.421" x="94.278" y="127.165"/><rect fill="#E64717" height="8.851" width="11.421" x="94.278" y="140.809"/></g><path d="M108.421,138.895c0,0.631-0.577,1.209-1.204,1.209c-0.649,0-1.229-0.578-1.229-1.209     c0-0.706,0.58-1.22,1.229-1.22C107.844,137.675,108.421,138.188,108.421,138.895z" fill="#3E4959"/></g><g><path d="M107.638,94.662c0,4.295-3.455,7.71-7.762,7.71c-4.276,0-7.699-3.415-7.699-7.71     c0-4.302,3.423-7.729,7.699-7.729C104.183,86.934,107.638,90.36,107.638,94.662z" fill="#31D9DE"/><path d="M99.876,103.155c-4.669,0-8.496-3.818-8.496-8.493c0-4.723,3.827-8.588,8.496-8.588     c4.755,0,8.583,3.865,8.583,8.588C108.459,99.337,104.631,103.155,99.876,103.155z M99.876,87.73     c-3.826,0-6.934,3.115-6.934,6.932c0,3.79,3.107,6.946,6.934,6.946s6.938-3.156,6.938-6.946     C106.814,90.846,103.702,87.73,99.876,87.73z" fill="#3E4959"/><rect fill="#3E4959" height="15.438" width="1.62" x="99.082" y="86.934"/><rect fill="#3E4959" height="1.55" width="15.247" x="92.391" y="93.879"/></g></g></g></svg>