<?xml version="1.0" ?><!DOCTYPE svg  PUBLIC '-//W3C//DTD SVG 1.1//EN'  'http://www.w3.org/Graphics/SVG/1.1/DTD/svg11.dtd'><svg enable-background="new 0 0 300 300" height="300px" id="Layer_2" version="1.1" viewBox="0 0 300 300" width="300px" xml:space="preserve" xmlns="http://www.w3.org/2000/svg" xmlns:xlink="http://www.w3.org/1999/xlink"><g><g><g><g><path d="M252,185.1c0.6-32.8-19.6-45.3-19.6-45.3l0,0c-1.5-5.6-2.9-11.2-4.4-16.6h0c3-5.1,24-33.1,10.8-67.3       c0,0-41.4-4.3-58.4,17.5c-8.4-1.8-18.4-2.9-30.4-2.9c-12,0-22,1-30.4,2.9c-17-21.8-58.4-17.5-58.4-17.5       c-12.9,33.6,7.4,61.2,11,66.9c-1.5,5.5-2.9,11.3-4.5,17l0,0c0,0-20.2,12.6-19.6,45.3l11.7-6.9c0,0-1.9,25.8,19.5,42.5       c0,0,1.3-12,6-17.6c0,0,6,25,35.2,25.5c1.6,8.2,8.9,14.4,17.6,14.4H162c8.7,0,16-6.2,17.6-14.4c29.2-0.5,35.2-25.5,35.2-25.5       c4.7,5.7,6,17.6,6,17.6c21.4-16.7,19.5-42.5,19.5-42.5L252,185.1z" fill="#F89E1E"/></g></g><g id="XMLID_1324_"><g><path d="M106.5,79.8c-0.2-0.6-0.3-1-0.3-1c-9.7-14.2-35.9-11.5-35.9-11.5c-7.9,20.6,5.5,38.3,7.3,41.4       C84.8,94.7,94.3,84.8,106.5,79.8z" fill="#FFE9BC"/></g></g><g id="XMLID_1322_"><g><path d="M193.5,79.8c0.2-0.6,0.3-1,0.3-1c9.7-14.2,35.9-11.5,35.9-11.5c7.9,20.6-5.5,38.3-7.3,41.4       C215.2,94.7,205.7,84.8,193.5,79.8z" fill="#FFE9BC"/></g></g><g><g><path d="M191.4,226.8c19.1-5.8,23.4-23.7,23.4-23.7c4.7,5.7,6,17.6,6,17.6c21.4-16.7,19.5-42.5,19.5-42.5       l10.3,6.1c1.1-20.9-5.5-34.9-17.5-44c0,0,0,0,0,0c0.7,2.8,3.7,16.1-1.9,27.7l-3.9-6.8c0,0-4.1,16.7-9.4,25l-2.9-4.9       c-4.7,3.7-19.7,19.8-27.1,22.8c0,0,3.8-24-17.4-24h-40.5c-21.1,0-19.4,24-19.4,24c-7.4-3-20.3-19.1-25.1-22.8l-2.9,4.9       c-5.3-8.3-9.4-25-9.4-25l-3.9,6.8c-6.3-13-1.8-28.3-1.8-28.3S47.4,152.3,48,185.1l11.7-6.9c0,0-1.9,25.8,19.5,42.5       c0,0,1.3-12,6-17.6c0,0,4.3,17.9,23.4,23.7c6.2,1.9,11.7,5.4,16,10.2c3.3,3.7,8.1,6,13.4,6H162c5.3,0,10.1-2.3,13.4-6       C179.7,232.2,185.2,228.7,191.4,226.8z" fill="#FFE9BC"/></g></g><g><g><path d="M168.7,180h-19.3h-19.3c-21.1,0-19.4,24-19.4,24s0.2,6.6,8.8,14c0,0-1.1,5.2,0.9,10.6       c0.4,1.1,1.3,3.3,2.4,6.1c3.2,5,8.8,8.4,15.2,8.4h11.4h11.4c6.4,0,12-3.3,15.2-8.4c1.2-2.8,2-5,2.4-6.1       c2-5.4,0.9-10.6,0.9-10.6c8.6-7.4,8.8-14,8.8-14S189.9,180,168.7,180z" fill="#FFF6E6"/></g></g><g id="XMLID_1314_"><g><path d="M69.3,124.8c-0.2-0.4-0.6-1-1-1.6c-2.7-4.2-8.4-13-11.9-24.9c-4.4-14.9-3.9-29.6,1.5-43.7l0.8-2       l2.1-0.2c1.9-0.2,45.7-4.4,62.9,20.6l0.2,0.4l0.2,0.4c0,0,0.2,0.6,0.6,1.7l-6.7,2.1c-0.1-0.4-0.2-0.8-0.3-1       c-13-18.4-45.4-17.9-54-17.4c-9.9,28.7,5.4,52.3,10.5,60.2c0.5,0.8,0.9,1.4,1.2,1.9L69.3,124.8z" fill="#333333"/></g></g><g id="XMLID_1313_"><g><path d="M231,124.9l-6-3.5c0.3-0.4,0.6-1,1.1-1.8c5.1-7.9,20.2-31.6,10.2-60.4c-8.6-0.5-41-1-54,17.4       c-0.1,0.2-0.2,0.6-0.3,1l-6.7-2.1c0.3-1.1,0.6-1.7,0.6-1.7l0.2-0.4l0.2-0.4c17.2-25.1,61.1-20.8,62.9-20.6l2.1,0.2l0.8,2       c8.4,22,5,45.1-10.1,68.8C231.6,124,231.2,124.6,231,124.9z" fill="#333333"/></g></g><g><g><path d="M110.7,206.5c-0.3,0-0.6-0.1-0.9-0.2c-5.4-2.2-12.9-10-18.9-16.4c-1.7-1.8-3.3-3.5-4.7-4.8l-1.3,2.3       c-0.4,0.8-1.2,1.2-2.1,1.3c-0.9,0-1.7-0.4-2.2-1.2c-3.5-5.4-6.4-14.1-8.1-19.8l-0.9,1.6c-0.5,0.8-1.3,1.3-2.3,1.3       c-0.9,0-1.8-0.6-2.2-1.4c-6.7-13.7-2.1-28-1.9-28.6c0.4-1.3,1.8-2,3.2-1.6c1.3,0.4,2,1.8,1.6,3.2l0,0c0,0.1-3.1,9.8-0.1,20.2       l1.3-2.2c0.5-0.9,1.5-1.4,2.5-1.2c1,0.1,1.8,0.9,2.1,1.9c0,0.1,3,12.1,7,20.5l0.6-1.1c0.4-0.6,1-1.1,1.7-1.2       c0.7-0.1,1.4,0,2,0.5c1.7,1.4,4.3,4.1,7.4,7.3c4.2,4.4,9.5,10,13.8,13.2c0.4-4.4,1.7-11.2,6.3-16.1c3.8-4.1,9-6.1,15.5-6.1       c1.4,0,2.5,1.1,2.5,2.5c0,1.4-1.1,2.5-2.5,2.5c-5,0-9,1.5-11.8,4.5c-5.8,6.2-5.1,16.7-5.1,16.8c0.1,0.9-0.3,1.7-1,2.2       C111.7,206.3,111.2,206.5,110.7,206.5z" fill="#333333"/></g></g><g><g><path d="M187.9,206.5c-0.6,0-1.1-0.2-1.6-0.5c-0.7-0.6-1.1-1.5-0.9-2.3c0-0.1,1.6-10.7-3.7-16.8       c-2.5-2.9-6.3-4.4-11.2-4.4c-1.4,0-2.5-1.1-2.5-2.5c0-1.4,1.1-2.5,2.5-2.5c6.5,0,11.5,2.1,15,6.1c4.2,4.9,5,11.5,5.1,15.9       c4.9-3.4,11.3-9.6,15.9-14c3-2.9,5.3-5.1,6.9-6.3c0.6-0.4,1.3-0.6,2-0.5c0.7,0.1,1.3,0.6,1.7,1.2l0.6,1.1c4-8.3,7-20.3,7-20.5       c0.2-1,1.1-1.7,2.1-1.9c1-0.1,2,0.3,2.5,1.2l1.3,2.2c2.8-10.6-0.7-21.5-0.7-21.6c-0.4-1.3,0.3-2.7,1.6-3.2       c1.3-0.4,2.7,0.3,3.2,1.6c0.2,0.7,5.4,16.4-1.3,30.1c-0.4,0.8-1.2,1.4-2.2,1.4c-0.9,0-1.8-0.5-2.3-1.3l-0.9-1.6       c-1.7,5.8-4.6,14.4-8.1,19.8c-0.5,0.7-1.3,1.2-2.2,1.2c-0.9,0-1.7-0.5-2.1-1.3l-1.3-2.3c-1.2,1.1-2.7,2.5-4.3,4.1       c-7,6.6-15.6,14.9-21.2,17.2C188.6,206.4,188.2,206.5,187.9,206.5z" fill="#333333"/></g></g><g><g><path d="M162,248H138c-6.3,0-12.2-2.7-16.3-7.5c-3.6-4.2-8.2-7.2-13.3-8.6c-13.2-3.7-20.2-12.5-23.6-19       c-1.3,3.8-1.9,7.8-2.1,9.7c-0.1,1.3-0.9,2.4-2.1,2.9c-1.2,0.5-2.5,0.3-3.5-0.5c-16.2-12.7-20-30-20.7-39.2l-6.5,3.9       c-1.1,0.6-2.4,0.7-3.5,0.1c-1.1-0.6-1.8-1.7-1.8-3C44,156.6,60,142.5,64.6,139.1c0.6-2.2,1.2-4.5,1.7-6.7       c2.1-8.1,4-15.7,6.9-23.1c0.7-1.8,2.7-2.7,4.5-2c1.8,0.7,2.7,2.7,2,4.5c-2.7,6.9-4.6,14.4-6.6,22.2c-0.7,2.7-1.4,5.3-2.1,8l0,0       c-0.2,0.8-0.8,1.6-1.5,2c-0.2,0.1-16,10.4-17.8,36.1l6.2-3.7c1.1-0.7,2.5-0.7,3.6,0c1.1,0.7,1.7,1.9,1.6,3.2       c0,0.2-1.2,20.4,13.7,35.5c1-4.2,2.7-9.5,5.7-13.1c0.8-1,2.2-1.5,3.5-1.2c1.3,0.3,2.3,1.3,2.6,2.6c0.2,0.7,4.3,16.5,21.7,21.4       c6.4,1.8,12.2,5.5,16.7,10.8c2.8,3.2,6.7,5,11,5H162c4.2,0,8.2-1.8,11-5c4.5-5.3,10.3-9,16.7-10.8       c17.5-4.9,21.6-20.7,21.7-21.4c0.3-1.3,1.3-2.3,2.6-2.6c1.3-0.3,2.6,0.1,3.5,1.2c3,3.6,4.7,8.9,5.7,13.1       c14.9-15.1,13.7-35.3,13.7-35.5c-0.1-1.3,0.5-2.5,1.7-3.2c1.1-0.7,2.5-0.7,3.6,0l6.2,3.7c-1.7-25.6-17.1-35.7-17.8-36.1       c-0.7-0.5-1.3-1.2-1.5-2c-0.7-2.7-1.4-5.4-2.1-8c-2.1-8.3-4.1-16.1-7.1-23.4c-0.7-1.8,0.1-3.8,1.9-4.6c1.8-0.7,3.8,0.1,4.6,1.9       c3.1,7.7,5.2,15.7,7.4,24.2c0.6,2.2,1.2,4.5,1.8,6.7c4.6,3.4,20.6,17.6,20.1,47.5c0,1.2-0.7,2.4-1.8,3       c-1.1,0.6-2.4,0.6-3.5-0.1l-6.5-3.9c-0.8,9.2-4.5,26.6-20.7,39.2c-1,0.8-2.4,1-3.5,0.5c-1.2-0.5-2-1.6-2.1-2.9       c-0.2-1.9-0.9-5.9-2.1-9.7c-3.5,6.5-10.4,15.3-23.6,19c-5,1.4-9.6,4.4-13.3,8.6C174.2,245.3,168.2,248,162,248z M193.9,82.5       c-0.5,0-0.9-0.1-1.4-0.3c-10.8-4.6-24.8-6.8-42.5-6.8c-17.6,0-31.4,2.2-42.2,6.6c-1.8,0.7-3.8-0.1-4.6-1.9       c-0.7-1.8,0.1-3.8,1.9-4.6c11.6-4.8,26.3-7.2,44.9-7.2c18.8,0,33.6,2.4,45.3,7.3c1.8,0.8,2.6,2.8,1.9,4.6       C196.6,81.7,195.3,82.5,193.9,82.5z" fill="#333333"/></g></g><g id="XMLID_1308_"><g id="XMLID_1312_"><g><path d="M150.3,228.3h-0.6c-7.1,0-12.8-5.8-12.8-12.8v-4.6c0-7.3,5.9-13.2,13.2-13.2l0,0        c7.3,0,13.2,5.9,13.2,13.2v4.6C163.2,222.5,157.4,228.3,150.3,228.3z" fill="#333333"/></g></g><g id="XMLID_1310_"><g><path d="M149.3,213c-5,0-9.5,2.2-12.3,4.3c0.6,6.6,6.1,11,12.8,11h0.6c6.3,0,11.5-4.6,12.6-10.5        C160.4,214.9,155.3,213,149.3,213z" fill="#E75624"/></g></g><g id="XMLID_1309_"><g><path d="M150.3,230.8h-0.6c-8.5,0-15.3-6.9-15.3-15.3v-4.6c0-8.6,7-15.7,15.7-15.7c8.6,0,15.7,7,15.7,15.7v4.6        C165.7,223.9,158.8,230.8,150.3,230.8z M150,200.2c-5.9,0-10.7,4.8-10.7,10.7v4.6c0,5.7,4.6,10.3,10.3,10.3h0.6        c5.7,0,10.3-4.6,10.3-10.3v-4.6C160.7,205,155.9,200.2,150,200.2z" fill="#333333"/></g></g></g><g><g><path d="M150.3,200.2c-1.4,0-2.5-1.1-2.5-2.5v-6.3c0-1.4,1.1-2.5,2.5-2.5c1.4,0,2.5,1.1,2.5,2.5v6.3       C152.8,199.1,151.7,200.2,150.3,200.2z" fill="#333333"/></g></g><g id="XMLID_1306_"><g><path d="M170.5,178.2c0,6-17.2,13.5-20.5,13.5c-4.3,0-20.5-7.5-20.5-13.5s9.2-8.2,20.5-8.2       C161.3,169.9,170.5,172.2,170.5,178.2z" fill="#E5555C"/></g></g><g id="XMLID_1305_"><g><path d="M150,194.2c-5,0-23-8-23-16c0-4.9,4-10.7,23-10.7c19,0,23,5.8,23,10.7C173,186.2,154,194.2,150,194.2z        M150,172.4c-11.1,0-18,2.2-18,5.7c0,3.6,13.9,11,18,11c3.4-0.1,18-7.4,18-11C168,174.6,161.1,172.4,150,172.4z" fill="#333333"/></g></g><g><g><path d="M104.3,176c-0.3,0-0.7-0.1-1-0.2c-4.4-2-8.2-6.1-10.8-9.5c-0.3,0.8-0.9,1.5-1.8,1.7       c-0.9,0.2-1.9-0.1-2.5-0.8c-9.5-10.7-8-24.6-7.9-25.2c0.2-1.4,1.4-2.4,2.8-2.2c1.4,0.2,2.4,1.4,2.2,2.8c0,0.2-0.9,9,3.7,17.1       l0-0.1c0.2-1,1.1-1.7,2.1-1.9c1-0.1,2,0.4,2.5,1.3c0.1,0.1,5.4,9.5,11.7,12.3c1.3,0.6,1.8,2,1.3,3.3       C106.2,175.5,105.3,176,104.3,176z" fill="#333333"/></g></g><g><g><path d="M196.3,176c-1,0-1.9-0.6-2.3-1.5c-0.6-1.3,0-2.7,1.3-3.3c6.3-2.8,11.6-12.2,11.7-12.3       c0.5-0.9,1.5-1.4,2.5-1.3c1,0.1,1.8,0.9,2.1,1.9l0,0.1c4.7-8.2,3.7-17,3.7-17.1c-0.2-1.4,0.8-2.6,2.2-2.8       c1.4-0.2,2.6,0.8,2.8,2.2c0.1,0.6,1.5,14.6-7.9,25.2c-0.6,0.7-1.6,1-2.5,0.8c-0.9-0.2-1.5-0.9-1.8-1.7       c-2.5,3.4-6.3,7.6-10.8,9.5C197,175.9,196.6,176,196.3,176z" fill="#333333"/></g></g><g><g><path d="M117.5,90.5c24.3-8.3,32.8,2.3,32.8,2.3s8.5-10.5,32.8-2.3C161.1,80.5,139.2,80.5,117.5,90.5z" fill="#333333"/></g></g><g><g><path d="M150.3,95.3c-0.8,0-1.5-0.3-1.9-0.9c-0.3-0.3-8-9-30.1-1.5c-1.3,0.4-2.6-0.2-3.1-1.4       c-0.5-1.2,0.1-2.6,1.3-3.2c22.3-10.3,45.1-10.3,67.7,0c1.2,0.6,1.8,2,1.3,3.2c-0.5,1.2-1.9,1.9-3.1,1.4       c-22.4-7.6-30,1.4-30.1,1.5C151.8,94.9,151.1,95.3,150.3,95.3z M143,85.9c3.5,1,5.9,2.4,7.3,3.5c1.5-1.1,3.9-2.5,7.3-3.5       C152.7,85.4,147.8,85.4,143,85.9z" fill="#333333"/></g></g><g><g><path d="M125.7,106.6c18.2-6.2,24.6,1.7,24.6,1.7s6.4-7.9,24.6-1.7C158.4,99.1,142,99.1,125.7,106.6z" fill="#333333"/></g></g><g><g><path d="M150.3,110.7C150.3,110.7,150.3,110.7,150.3,110.7c-0.8,0-1.5-0.3-2-0.9c-0.2-0.2-5.8-6.4-21.8-0.9       c-1.3,0.4-2.6-0.2-3.1-1.4c-0.5-1.2,0.1-2.6,1.3-3.2c16.9-7.8,34.1-7.8,51.2,0c1.2,0.6,1.8,2,1.3,3.2c-0.5,1.2-1.9,1.9-3.1,1.4       c-16-5.5-21.6,0.7-21.9,0.9C151.7,110.4,151,110.7,150.3,110.7z M147.8,103.5c1,0.5,1.9,1,2.6,1.4c0.7-0.5,1.5-1,2.5-1.4       C151.2,103.5,149.5,103.5,147.8,103.5z" fill="#333333"/></g></g><g id="XMLID_1284_"><g id="XMLID_1295_"><g id="XMLID_1303_"><g id="XMLID_1304_"><g><path d="M98.8,131.2L98.8,131.2L98.8,131.2c-3.6,0.7-5.9,2-5.9,2l5.5,1.1c-0.3,3.3-0.5,8.9,1.2,14          c2.6,8,10.9,15.5,23.5,13.8c10.7-1.5,15.3-9.1,12.3-15.6l-20-11.2l7,3.6c-3.8-2.4-7.7-4.8-11.1-6.3          C106.6,130.5,102.2,130.5,98.8,131.2z" fill="#FFFFFF"/></g></g></g><g id="XMLID_1299_"><g id="XMLID_1302_"><g><path d="M125.3,139.9c-2.9-1.8-5.5-4.3-8.6-5.7c-0.4-0.2-0.8-0.5-1-0.7c-4.5,1.7-7.6,6-7.6,11.1          c0,6.6,5.3,11.9,11.9,11.9c6.6,0,11.9-5.3,11.9-11.9c0-0.3,0-0.6,0-0.9C129.7,142.5,127.5,141.2,125.3,139.9z" fill="#333333"/></g></g><g id="XMLID_1301_"><g><path d="M120.1,144.1c0,2.1-1.7,3.8-3.8,3.8c-2.1,0-3.8-1.7-3.8-3.8s1.7-3.8,3.8-3.8          C118.4,140.3,120.1,142,120.1,144.1z" fill="#FFFFFF"/></g></g><g id="XMLID_1300_"><g><path d="M124.5,151.4c0,0.8-0.6,1.4-1.4,1.4s-1.4-0.6-1.4-1.4c0-0.8,0.6-1.4,1.4-1.4          S124.5,150.6,124.5,151.4z" fill="#FFFFFF"/></g></g></g><g id="XMLID_1296_"><g id="XMLID_1298_"><g><path d="M138.3,149.8c-3.2,0-8-2.9-15.4-7.6c-4.4-2.8-9-5.6-12.8-7.4c-8.1-3.7-15.9,0.5-16,0.6          c-1.2,0.7-2.7,0.2-3.4-1c-0.7-1.2-0.2-2.7,1-3.4c0.4-0.2,10.1-5.5,20.5-0.7c4.1,1.9,8.8,4.9,13.4,7.7          c4.6,2.9,10.9,6.9,12.7,6.8c2-0.1,2.2-1.6,2.3-2c0.1-1.4,1.2-2.5,2.6-2.4c1.4,0.1,2.5,1.2,2.4,2.6c-0.1,2.7-2.1,6.7-7.1,6.8          C138.4,149.8,138.4,149.8,138.3,149.8z" fill="#333333"/></g></g><g id="XMLID_1297_"><g><path d="M119.5,164.8c-11.8,0-19.7-7.8-22.3-15.8c-2.7-8.5-0.9-17.9-0.8-18.3c0.3-1.4,1.6-2.2,2.9-2          c1.4,0.3,2.2,1.6,2,2.9c0,0.1-1.6,8.6,0.7,15.8c2.3,7.1,9.6,13.6,20.8,12.1c4.8-0.7,8.5-2.8,10.2-5.8c1.1-2,1.2-4.2,0.2-6.2          c-0.6-1.3,0-2.7,1.2-3.3c1.3-0.6,2.7,0,3.3,1.2c1.6,3.5,1.5,7.4-0.4,10.7c-2.4,4.4-7.5,7.5-13.8,8.4          C122,164.7,120.7,164.8,119.5,164.8z" fill="#333333"/></g></g></g></g><g id="XMLID_1285_"><g id="XMLID_1293_"><g id="XMLID_1294_"><g><path d="M201.2,131.2L201.2,131.2L201.2,131.2c3.6,0.7,5.9,2,5.9,2l-5.5,1.1c0.3,3.3,0.5,8.9-1.2,14          c-2.6,8-10.9,15.5-23.5,13.8c-10.7-1.5-15.3-9.1-12.3-15.6l20-11.2l-7,3.6c3.8-2.4,7.7-4.8,11.1-6.3          C193.4,130.5,197.8,130.5,201.2,131.2z" fill="#FFFFFF"/></g></g></g><g id="XMLID_1289_"><g id="XMLID_1292_"><g><path d="M174.7,139.9c2.9-1.8,5.5-4.3,8.6-5.7c0.4-0.2,0.8-0.5,1-0.7c4.5,1.7,7.6,6,7.6,11.1          c0,6.6-5.3,11.9-11.9,11.9c-6.6,0-11.9-5.3-11.9-11.9c0-0.3,0-0.6,0-0.9C170.3,142.5,172.5,141.2,174.7,139.9z" fill="#333333"/></g></g><g id="XMLID_1291_"><g><circle cx="184.5" cy="144.1" fill="#FFFFFF" r="3.8"/></g></g><g id="XMLID_1290_"><g><path d="M175.5,151.4c0,0.8,0.6,1.4,1.4,1.4s1.4-0.6,1.4-1.4c0-0.8-0.6-1.4-1.4-1.4S175.5,150.6,175.5,151.4          z" fill="#FFFFFF"/></g></g></g><g id="XMLID_1286_"><g id="XMLID_1288_"><g><path d="M161.7,149.8c-0.1,0-0.1,0-0.1,0c-5-0.1-7-4.2-7.1-6.8c-0.1-1.4,1-2.5,2.4-2.6          c1.4-0.1,2.5,1,2.6,2.4c0.1,0.9,0.5,2,2.3,2c1.8,0.1,8.1-3.9,12.7-6.8c4.5-2.9,9.3-5.8,13.4-7.7c10.5-4.8,20.1,0.5,20.5,0.7          c1.2,0.7,1.6,2.2,1,3.4c-0.7,1.2-2.2,1.6-3.4,1l0,0c-0.1,0-7.9-4.3-16-0.6c-3.8,1.8-8.4,4.6-12.8,7.4          C169.6,146.9,164.9,149.8,161.7,149.8z" fill="#333333"/></g></g><g id="XMLID_1287_"><g><path d="M180.5,164.8c-1.3,0-2.6-0.1-3.9-0.3c-6.4-0.9-11.4-3.9-13.8-8.4c-1.8-3.3-2-7.3-0.4-10.7          c0.6-1.3,2.1-1.8,3.3-1.2c1.3,0.6,1.8,2.1,1.2,3.3c-0.9,2-0.9,4.3,0.2,6.2c1.6,3,5.3,5.1,10.2,5.8          c11.2,1.6,18.5-4.9,20.8-12.1c2.3-7.3,0.7-15.7,0.7-15.8c-0.3-1.4,0.6-2.7,2-2.9c1.3-0.3,2.7,0.6,2.9,2          c0.1,0.4,1.9,9.8-0.8,18.3C200.2,157,192.3,164.8,180.5,164.8z" fill="#333333"/></g></g></g></g></g></g></g></svg>