<?xml version="1.0" ?><svg data-name="009" height="128" id="_009" viewBox="0 0 128 128" width="128" xmlns="http://www.w3.org/2000/svg" xmlns:xlink="http://www.w3.org/1999/xlink"><defs><clipPath id="clip-path"><path d="M10.62177,35.22667a30.00059,30.00059,0,0,0-1.836,34.303,19.68965,19.68965,0,0,1,2.82877,12.42584c-.40652,3.854-1.44252,7.79539-.84535,11.89032C14,115.99962,32.71582,123.959,50.805,122.755a36.97256,36.97256,0,0,0,16.34378-5.00959,20.40261,20.40261,0,0,1,17.16353-1.67576c15.15,5.311,34.03144-2.74029,38.07589-24.5743a16.60225,16.60225,0,0,0-.84568-7.98372,20.57842,20.57842,0,0,1,.92894-14.75852,28.48776,28.48776,0,0,0-20.3436-39.52995,20.0586,20.0586,0,0,1-13.62037-9.97461,29.0008,29.0008,0,0,0-49.44374-2.50488,19.67885,19.67885,0,0,1-11.83159,7.79479A29.83228,29.83228,0,0,0,10.62177,35.22667Z" style="fill:none"/></clipPath></defs><title/><g style="opacity:0.30000000000000004"><path d="M10.62177,35.22667a30.00059,30.00059,0,0,0-1.836,34.303,19.68965,19.68965,0,0,1,2.82877,12.42584c-.40652,3.854-1.44252,7.79539-.84535,11.89032C14,115.99962,32.71582,123.959,50.805,122.755a36.97256,36.97256,0,0,0,16.34378-5.00959,20.40261,20.40261,0,0,1,17.16353-1.67576c15.15,5.311,34.03144-2.74029,38.07589-24.5743a16.60225,16.60225,0,0,0-.84568-7.98372,20.57842,20.57842,0,0,1,.92894-14.75852,28.48776,28.48776,0,0,0-20.3436-39.52995,20.0586,20.0586,0,0,1-13.62037-9.97461,29.0008,29.0008,0,0,0-49.44374-2.50488,19.67885,19.67885,0,0,1-11.83159,7.79479A29.83228,29.83228,0,0,0,10.62177,35.22667Z" style="fill:#97c1ff"/><path d="M54.52,38.84961a1,1,0,0,1-.38037-.08008.81319.81319,0,0,1-.32959-.21.9862.9862,0,0,1-.29-.71,1.00605,1.00605,0,0,1,.29-.71.93069.93069,0,0,1,.32959-.21.91433.91433,0,0,1,.76025,0,1.15386,1.15386,0,0,1,.33008.21,1.05423,1.05423,0,0,1,.29.71.98818.98818,0,0,1-.29.71.97627.97627,0,0,1-.33008.21A.99953.99953,0,0,1,54.52,38.84961Z" style="fill:#fff"/><path d="M51.542,35.99707a1,1,0,0,1-.5332-1.84668l1.69287-1.06445a1.00007,1.00007,0,1,1,1.06445,1.69336l-1.69287,1.06445A.99858.99858,0,0,1,51.542,35.99707Z" style="fill:#fff"/><path d="M45.18018,35.27148a1,1,0,0,1-.5332-1.84668l8.46484-5.32324a1.00007,1.00007,0,1,1,1.06445,1.69336l-8.46484,5.32324A.99858.99858,0,0,1,45.18018,35.27148Z" style="fill:#fff"/><path d="M44.769,40.25488a1,1,0,0,1-.5332-1.84668l3.38574-2.12891A1.00007,1.00007,0,0,1,48.686,37.97266l-3.38574,2.12891A.99858.99858,0,0,1,44.769,40.25488Z" style="fill:#fff"/><path d="M44.3584,45.23926a1,1,0,0,1-.5332-1.84668l6.77246-4.25879a1.00007,1.00007,0,0,1,1.06445,1.69336l-6.77246,4.25879A.99858.99858,0,0,1,44.3584,45.23926Z" style="fill:#fff"/><path d="M108.50132,102.17364a9.5649,9.5649,0,0,0-18.45837-4.39956,5.10366,5.10366,0,0,0-8.27287,3.979c0,.14688.00985.29131.02213.43508A7.6152,7.6152,0,0,0,84.32182,117h21.68966a7.61572,7.61572,0,0,0,2.48984-14.82636Z" style="fill:#eef6ff"/><path d="M106.01147,114.45859H84.32182a7.64121,7.64121,0,0,1-7.54325-6.37184A7.613,7.613,0,0,0,84.32182,117h21.68965a7.614,7.614,0,0,0,7.54341-8.91381A7.6413,7.6413,0,0,1,106.01147,114.45859Z" style="fill:#5cbeff;opacity:0.30000000000000004"/><path d="M81.7922,104.72958c-.01225-.14378-.02213-.28823-.02213-.43511a5.10367,5.10367,0,0,1,8.27289-3.979,9.55654,9.55654,0,0,1,18.45837,4.3996,7.63989,7.63989,0,0,1,5.05355,5.91254,7.54423,7.54423,0,0,0-5.05355-8.45395A9.56491,9.56491,0,0,0,90.043,97.774a5.10367,5.10367,0,0,0-8.27289,3.979c0,.14688.00987.29133.02213.43511a7.54274,7.54274,0,0,0-5.01364,8.44A7.63918,7.63918,0,0,1,81.7922,104.72958Z" style="fill:#fff"/><path d="M106.01172,118H84.32178a8.6142,8.6142,0,0,1-3.54736-16.48242,6.10934,6.10934,0,0,1,8.82715-5.20605,10.56938,10.56938,0,0,1,19.96191,4.80664c0,.13281-.00293.26563-.0083.39746A8.61446,8.61446,0,0,1,106.01172,118ZM86.87354,97.6709a4.09736,4.09736,0,0,0-4.10352,4.082c0,.11914.00879.23438.01855.35156a1.00055,1.00055,0,0,1-.667,1.02832A6.61493,6.61493,0,0,0,84.32178,116h21.68994a6.6154,6.6154,0,0,0,2.165-12.87988,1.00089,1.00089,0,0,1-.66943-1.05566,8.65336,8.65336,0,0,0,.05615-.94629,8.56958,8.56958,0,0,0-16.585-2.99121.9995.9995,0,0,1-1.55615.43164A4.06724,4.06724,0,0,0,86.87354,97.6709Z" style="fill:#6d6daa"/><path d="M106.01149,101.75309a7.67276,7.67276,0,0,1,2.51071.41949" style="fill:#eef6ff"/><path d="M108.522,103.17285a1.01148,1.01148,0,0,1-.32764-.05469,6.64431,6.64431,0,0,0-2.18262-.36523,1,1,0,0,1,0-2,8.66515,8.66515,0,0,1,2.83789.47461,1.00031,1.00031,0,0,1-.32764,1.94531Z" style="fill:#6d6daa"/><path d="M81.791,102.17958a7.67261,7.67261,0,0,1,2.5308-.42649" style="fill:#eef6ff"/><path d="M81.791,103.17969a1.00011,1.00011,0,0,1-.32959-1.94434,8.65826,8.65826,0,0,1,2.86035-.48242,1,1,0,0,1,0,2,6.66357,6.66357,0,0,0-2.20117.37109A.99855.99855,0,0,1,81.791,103.17969Z" style="fill:#6d6daa"/><path d="M90.00939,97.74315a5.10945,5.10945,0,0,1,1.388,1.65529" style="fill:#eef6ff"/><path d="M91.39844,100.39844a.99964.99964,0,0,1-.88623-.53516A4.13472,4.13472,0,0,0,89.396,98.5332a1.00014,1.00014,0,0,1,1.22656-1.58008,6.07039,6.07039,0,0,1,1.66016,1.98047,1.0004,1.0004,0,0,1-.88428,1.46484Z" style="fill:#6d6daa"/><path d="M37.25229,11.66477A6.02242,6.02242,0,0,1,48.87437,8.89465,3.21345,3.21345,0,0,1,54.08327,11.4c0,.09248-.0062.18342-.01394.27394A4.79481,4.79481,0,0,1,52.4766,21H38.82a4.79514,4.79514,0,0,1-1.56769-9.33523Z" style="fill:#eef6ff"/><path d="M37.25228,13.665a6.02241,6.02241,0,0,1,11.62207-2.77014,3.21348,3.21348,0,0,1,5.20892,2.50531c0,.09253-.00623.18347-.01392.274a4.80574,4.80574,0,0,1,3.11346,3.54413,4.764,4.764,0,0,0-3.11346-5.54437c.00769-.09052.01392-.18146.01392-.27393a3.21348,3.21348,0,0,0-5.20892-2.50531,6.01711,6.01711,0,0,0-11.62207,2.77014,4.76494,4.76494,0,0,0-3.13855,5.55334A4.80624,4.80624,0,0,1,37.25228,13.665Z" style="fill:#fff"/><path d="M52.47659,18.99981H38.82A4.81364,4.81364,0,0,1,34.11373,15.218,4.75148,4.75148,0,0,0,34,16.2,4.81,4.81,0,0,0,38.82,21H52.47659a4.81,4.81,0,0,0,4.82-4.8,4.75033,4.75033,0,0,0-.11377-.98193A4.8136,4.8136,0,0,1,52.47659,18.99981Z" style="fill:#5cbeff;opacity:0.30000000000000004"/><path d="M52.47656,22H38.81982a5.794,5.794,0,0,1-2.60645-10.98145V11A7.0249,7.0249,0,0,1,49.3125,7.49609a4.22052,4.22052,0,0,1,5.75293,3.51367A5.794,5.794,0,0,1,52.47656,22ZM43.23828,6a4.98355,4.98355,0,0,0-4.99219,5.55371,1.00049,1.00049,0,0,1-.66943,1.05762A3.79479,3.79479,0,0,0,38.81982,20H52.47656a3.7947,3.7947,0,0,0,1.2627-7.38184,1.0006,1.0006,0,0,1-.666-1.03027c.00537-.0625.01025-.124.01025-.1875a2.21413,2.21413,0,0,0-3.58887-1.72168A.99913.99913,0,0,1,47.939,9.24707,5.04688,5.04688,0,0,0,43.23828,6Z" style="fill:#6d6daa"/><path d="M38.82,11.4a4.83105,4.83105,0,0,0-1.58084.26412" style="fill:#eef6ff"/><path d="M37.23926,12.66406a1,1,0,0,1-.32617-1.94531,5.837,5.837,0,0,1,1.90674-.31836,1,1,0,0,1,0,2,3.83554,3.83554,0,0,0-1.25439.209A1.00288,1.00288,0,0,1,37.23926,12.66406Z" style="fill:#6d6daa"/><path d="M54.07008,11.66852A4.831,4.831,0,0,0,52.4766,11.4" style="fill:#eef6ff"/><path d="M54.07031,12.66895a.97881.97881,0,0,1-.33057-.05664,3.81759,3.81759,0,0,0-1.26318-.21191,1,1,0,0,1,0-2,5.79816,5.79816,0,0,1,1.92432.3252.99972.99972,0,0,1-.33057,1.94336Z" style="fill:#6d6daa"/><path d="M48.8955,8.87518a3.2171,3.2171,0,0,0-.87391,1.04223" style="fill:#eef6ff"/><path d="M48.02051,10.917a1.00007,1.00007,0,0,1-.88379-1.46582A4.24875,4.24875,0,0,1,48.28223,8.085,1.00014,1.00014,0,0,1,49.50879,9.665a2.23373,2.23373,0,0,0-.60254.71777A.99983.99983,0,0,1,48.02051,10.917Z" style="fill:#6d6daa"/><path d="M7.26589,46.0118a7.98432,7.98432,0,0,1,11.87536-8.84723,10.48932,10.48932,0,0,1,18.80249,5.25052,7.49626,7.49626,0,0,1-2.44322,14.5843l-28.00086.00021A5.49632,5.49632,0,0,1,7.26589,46.0118Z" style="fill:#eef6ff"/><path d="M7.26586,49.01208a7.62435,7.62435,0,0,1-.20245-2.97186A5.4694,5.4694,0,0,0,2.222,53.03692,5.4833,5.4833,0,0,1,7.26586,49.01208Z" style="fill:#fff"/><path d="M14.99993,38.99988a7.94932,7.94932,0,0,1,4.1413,1.165A10.4893,10.4893,0,0,1,37.94372,45.4154a7.5,7.5,0,0,1,4.897,5.62262,7.49379,7.49379,0,0,0-4.897-8.62292,10.48933,10.48933,0,0,0-18.80249-5.25055A7.98713,7.98713,0,0,0,7.00048,43.99927a7.71983,7.71983,0,0,0,.1535,1.44745A8,8,0,0,1,14.99993,38.99988Z" style="fill:#fff"/><path d="M7.26586,43.01147c-.04785-.18445-.076-.3761-.11188-.56506-.03839.19507-.06665.39362-.09058.59351C7.13219,43.03442,7.1964,43.0144,7.26586,43.01147Z" style="fill:#5cbeff"/><path d="M35.50054,53.99908l-28.00085.00018A5.49887,5.49887,0,0,1,2.222,50.03662a5.43593,5.43593,0,0,0-.222,1.4632,5.49971,5.49971,0,0,0,5.49963,5.49976l28.00085-.00018a7.43038,7.43038,0,0,0,7.34021-8.96167A7.50129,7.50129,0,0,1,35.50054,53.99908Z" style="fill:#5cbeff;opacity:0.30000000000000004"/><path d="M7.49951,58A6.4977,6.4977,0,0,1,6.08008,45.16113,8.683,8.683,0,0,1,6.00049,43.999a8.98574,8.98574,0,0,1,12.89014-8.10645,11.48944,11.48944,0,0,1,19.96826,5.80469A8.49612,8.49612,0,0,1,35.50049,57.999ZM15,37a6.97089,6.97089,0,0,0-6.76611,8.75977,1.00021,1.00021,0,0,1-.92578,1.251A4.49661,4.49661,0,0,0,7.49951,56l28.001-.001a6.4961,6.4961,0,0,0,2.11719-12.63867.99932.99932,0,0,1-.66846-.84277,9.48971,9.48971,0,0,0-17.01172-4.748.99919.99919,0,0,1-1.31543.25A6.979,6.979,0,0,0,15,37Z" style="fill:#6d6daa"/><path d="M37.4873,47.749a.99964.99964,0,0,1-.95117-1.30859A9.50832,9.50832,0,0,0,27.50049,34a1,1,0,0,1,0-2,11.50821,11.50821,0,0,1,10.938,15.05762A1.00023,1.00023,0,0,1,37.4873,47.749Z" style="fill:#6d6daa"/><path d="M11.12207,48.36133a.9961.9961,0,0,1-.6582-.248A4.49827,4.49827,0,0,0,7.49951,47a1,1,0,1,1,0-2,6.49326,6.49326,0,0,1,4.28174,1.60938.99956.99956,0,0,1-.65918,1.752Z" style="fill:#6d6daa"/><path d="M21.50537,40.3418a.99785.99785,0,0,1-.81348-.417A7.02161,7.02161,0,0,0,15,37a1,1,0,0,1,0-2,9.02412,9.02412,0,0,1,7.31689,3.75879,1.00029,1.00029,0,0,1-.81152,1.583Z" style="fill:#6d6daa"/><path d="M116.12988,78.5a.99913.99913,0,1,1,.71-1.71,1.773,1.773,0,0,1,.12988.14941l.09033.18066c.01953.05957.03955.12012.05957.17969a1.46105,1.46105,0,0,1,.02.2002.999.999,0,0,1-.07959.37988,1.0134,1.0134,0,0,1-.22021.33008.9887.9887,0,0,1-.31982.21A1.01072,1.01072,0,0,1,116.12988,78.5Z" style="fill:#fff"/><path d="M111.59424,86.208a.99961.99961,0,0,1-.54443-1.83887l5.03613-3.26172a.99952.99952,0,1,1,1.08691,1.67773l-5.03613,3.26172A.99084.99084,0,0,1,111.59424,86.208Z" style="fill:#fff"/><path d="M106.90186,84.48047a.99961.99961,0,0,1-.54443-1.83887l5.87451-3.80469a.99952.99952,0,1,1,1.08691,1.67773l-5.87451,3.80469A.99084.99084,0,0,1,106.90186,84.48047Z" style="fill:#fff"/><path d="M106.55762,89.46875a.99978.99978,0,0,1-.54492-1.83887l1.67773-1.08691a.99979.99979,0,1,1,1.08789,1.67773l-1.67773,1.08691A.99359.99359,0,0,1,106.55762,89.46875Z" style="fill:#fff"/><path d="M110.41064,91.74023a1.00014,1.00014,0,0,1-.54443-1.83984l6.71533-4.34863a1.00034,1.00034,0,0,1,1.08691,1.67969l-6.71533,4.34863A.99785.99785,0,0,1,110.41064,91.74023Z" style="fill:#fff"/></g><g style="clip-path:url(#clip-path)"><ellipse cx="98.59617" cy="67.55931" rx="5.90383" ry="4.72306" style="fill:#c9c1f5"/><path d="M-9.10461,100.08551l-7.91-4.326,6.66793-9.25793A21.583,21.583,0,0,1,2.29695,78.69616l5.705-.91818a10.03307,10.03307,0,0,0,5.05558-3.121l3.37812-4.68922a21.57325,21.57325,0,0,1,12.64362-7.80546l5.705-.91818a10.03307,10.03307,0,0,0,5.05558-3.121l3.37812-4.68922a21.57605,21.57605,0,0,1,12.64446-7.806l5.705-.91818a10.03965,10.03965,0,0,0,5.05728-3.12208l6.66793-9.25793,7.91,4.326-6.66793,9.25793a21.59566,21.59566,0,0,1-12.64446,7.806l-5.705.91818a10.00924,10.00924,0,0,0-5.05643,3.12156l-3.37812,4.68922A21.57325,21.57325,0,0,1,35.107,70.254l-5.705.91818a10.006,10.006,0,0,0-5.05558,3.121l-3.37812,4.68922A21.57325,21.57325,0,0,1,8.32473,86.78785l-5.705.91818a10.006,10.006,0,0,0-5.05558,3.121Z" style="fill:#ff91a9"/><path d="M-4.96144,106.79679l-7.91-4.326,6.66793-9.25793A21.583,21.583,0,0,1,6.44012,85.40745l5.705-.91818a10.03307,10.03307,0,0,0,5.05558-3.121L20.5788,76.679a21.57325,21.57325,0,0,1,12.64362-7.80546l5.705-.91818a10.03307,10.03307,0,0,0,5.05558-3.121l3.37812-4.68922a21.57605,21.57605,0,0,1,12.64446-7.806l5.705-.91818a10.03965,10.03965,0,0,0,5.05728-3.12208L77.43574,39.041l7.91,4.326L78.6778,52.62486a21.59566,21.59566,0,0,1-12.64446,7.806l-5.705.91818a10.00924,10.00924,0,0,0-5.05643,3.12156l-3.37812,4.68922A21.57325,21.57325,0,0,1,39.2502,76.96525l-5.705.91818a10.006,10.006,0,0,0-5.05558,3.121l-3.37812,4.68922A21.57325,21.57325,0,0,1,12.4679,93.49914l-5.705.91818a10.006,10.006,0,0,0-5.05558,3.121Z" style="fill:#ffc587"/><path d="M-.81826,113.50808l-7.91-4.326,6.66793-9.25793a21.583,21.583,0,0,1,12.64362-7.80546l5.705-.91818a10.03307,10.03307,0,0,0,5.05558-3.121L24.722,83.39031a21.57325,21.57325,0,0,1,12.64362-7.80546l5.705-.91818a10.03307,10.03307,0,0,0,5.05558-3.121l3.37812-4.68922a21.57605,21.57605,0,0,1,12.64446-7.806l5.705-.91818A10.03965,10.03965,0,0,0,74.911,55.01019l6.66793-9.25793,7.91,4.326L82.821,59.33615a21.59566,21.59566,0,0,1-12.64446,7.806l-5.705.91818a10.00924,10.00924,0,0,0-5.05643,3.12156L56.037,75.87108a21.57325,21.57325,0,0,1-12.64362,7.80546l-5.705.91818a10.006,10.006,0,0,0-5.05558,3.121L29.25469,92.405a21.57325,21.57325,0,0,1-12.64362,7.80546l-5.705.91818a10.006,10.006,0,0,0-5.05558,3.121Z" style="fill:#fff27d"/><path d="M3.32491,120.21937l-7.91-4.326,6.66793-9.25793A21.583,21.583,0,0,1,14.72646,98.83l5.705-.91818a10.03307,10.03307,0,0,0,5.05558-3.121l3.37812-4.68922a21.57325,21.57325,0,0,1,12.64362-7.80546l5.705-.91818a10.03307,10.03307,0,0,0,5.05558-3.121l3.37812-4.68922a21.57605,21.57605,0,0,1,12.64446-7.806l5.705-.91818a10.03965,10.03965,0,0,0,5.05728-3.12208l6.66793-9.25793,7.91,4.326-6.66793,9.25793a21.59566,21.59566,0,0,1-12.64446,7.806l-5.705.91818a10.00924,10.00924,0,0,0-5.05643,3.12156l-3.37812,4.68922a21.57325,21.57325,0,0,1-12.64362,7.80546l-5.705.91818A10.006,10.006,0,0,0,36.776,94.427l-3.37812,4.68922a21.57325,21.57325,0,0,1-12.64362,7.80546l-5.705.91818a10.006,10.006,0,0,0-5.05558,3.121Z" style="fill:#b1f1a8"/><path d="M7.46808,126.93065l-7.91-4.326L6.226,113.34676a21.583,21.583,0,0,1,12.64362-7.80546l5.705-.91818a10.03307,10.03307,0,0,0,5.05558-3.121l3.37812-4.68922a21.57325,21.57325,0,0,1,12.64362-7.80546l5.705-.91818a10.03307,10.03307,0,0,0,5.05558-3.121L59.79061,80.279a21.57605,21.57605,0,0,1,12.64446-7.806l5.705-.91818a10.03965,10.03965,0,0,0,5.05728-3.12208l6.66793-9.25793,7.91,4.326-6.66793,9.25793a21.59566,21.59566,0,0,1-12.64446,7.806l-5.705.91818a10.00924,10.00924,0,0,0-5.05643,3.12156l-3.37812,4.68922a21.57325,21.57325,0,0,1-12.64362,7.80546l-5.705.91818a10.006,10.006,0,0,0-5.05558,3.121L37.541,105.82754A21.57325,21.57325,0,0,1,24.89742,113.633l-5.705.91818a10.006,10.006,0,0,0-5.05558,3.121Z" style="fill:#96d7ff"/><path d="M11.61125,133.64194l-7.91-4.326,6.66793-9.25793a21.583,21.583,0,0,1,12.64362-7.80546l5.705-.91818a10.03307,10.03307,0,0,0,5.05558-3.121l3.37812-4.68922A21.57325,21.57325,0,0,1,49.7951,95.71871l5.705-.91818a10.03307,10.03307,0,0,0,5.05558-3.121l3.37812-4.68922a21.57605,21.57605,0,0,1,12.64446-7.806l5.705-.91818A10.03965,10.03965,0,0,0,87.3405,75.144l6.66793-9.25793,7.91,4.326L95.25049,79.47A21.59566,21.59566,0,0,1,82.606,87.276l-5.705.91818a10.00924,10.00924,0,0,0-5.05643,3.12156L68.4665,96.00494a21.57325,21.57325,0,0,1-12.64362,7.80546l-5.705.91818a10.006,10.006,0,0,0-5.05558,3.121l-3.37812,4.68922a21.57325,21.57325,0,0,1-12.64362,7.80546l-5.705.91818a10.006,10.006,0,0,0-5.05558,3.121Z" style="fill:#c9c1f5"/></g><path d="M101.56667,73.09244c.375-.3,1.5-6.525-.195-6.525-2.55.18-9.45,3.015-11.655,4.365-1.23.165-1.53-2.55-3.72-3.525-4.26,7.365-16.935,9.615-21.69,7.665C62.71667,82.78244,54.0554,87.83279,51.83333,88c-2.25344.55658-3.47057,7.7733-8.24248,11.83135-.53276,1.29544-2.8235,4.20988-3.86813,4.20753-1.83829-.02028-3.29441-6.68981-3.29441-6.68981a10.86282,10.86282,0,0,1,3.7729-2.56541c-1.76774-1.603,7.74258-1.84947,4.48283-9.20066,8.48673-2.9959,3.76762-6.44556,3.58762-13.73556a14.12223,14.12223,0,0,1,.735-4.77,15.57852,15.57852,0,0,1,.825-2.145,12.93555,12.93555,0,0,1,4.23-5.37,18.47784,18.47784,0,0,1,5.235-2.565c2.235-.765,4.635-1.35,7.005-2.205a20.27787,20.27787,0,0,0,7.755-4.71c2.34-8.775,5.67-14.4,9.06-18.075a24.78557,24.78557,0,0,1,4.485-3.87c.675-.45,1.335-.84,1.965-1.185a6.78411,6.78411,0,0,1-.84-2.76c-.27-2.7.84-5.295,2.01-5.01,1.335.33,2.865,3.885,3.495,4.455.18.165.96.825,1.98,1.83l.045.045a27.6062,27.6062,0,0,1,3.645,4.38,16.42135,16.42135,0,0,1,1.215,2.115,24.77078,24.77078,0,0,0,4.77,7.095c2.655,2.73-1.125,7.59-4.65,6.225a27.28165,27.28165,0,0,1-5.25-2.835,11.1937,11.1937,0,0,1-5.25-.45c-.03,5.085,1.02,2.865,1.26,13.53,1.89,1.14,3.765,4.2,3.765,5.73,3.225-.51,7.305-.855,9.855,0l2.205,2.205c.03,5.16-3.525,14.19-3.585,14.46a3.18248,3.18248,0,0,1-2.265,2.595c-1.665.465-2.76-1.005-3.555-2.805C97.02167,74.60744,96.73667,73.81244,101.56667,73.09244Z" style="fill:#fff"/><path d="M90.04289,70.05494A1.5,1.5,0,0,1,88.622,69.03687c-1.20264-3.54785-6.82617-2.42754-7.251-2.33818-.79248.167.41309-3.10254,1.21875-3.28125,1.95646-.43614,6.09375-.375,8.10938,3.23437.33816.60554,5.45218-.4567,5.71872.32813.26516.78369-5.10788,2.7293-5.893,2.9959A1.49635,1.49635,0,0,1,90.04289,70.05494Z" style="fill:#2c4b75;opacity:0.2"/><path d="M92.05542,38.57369A6.19129,6.19129,0,0,0,97.29167,39.625c1.04167.75,5.75,4.04167,7.91667,4.04167.04592.50123-.45833,1.58333-2.875,1.75-.23822.01643-6.468-3.55013-6.66259-3.4108-1.43673,1.029-4.11692.69107-5.777-.40868-1.88483-1.24866-1.21029-6.69539-.46029-6.63289S90.021,36.91219,92.05542,38.57369Z" style="fill:#2c4b75;opacity:0.2"/><path d="M66.25667,54.67244c4.755-3.135,2.88-20.505,16.755-22.755l.105.09c-3.39,3.675-6.72,9.3-9.06,18.075a20.27787,20.27787,0,0,1-7.755,4.71Z" style="fill:#ffd599"/><path d="M87.60167,28.13744a24.78557,24.78557,0,0,0-4.485,3.87l-.105-.09c-13.875,2.25-12,19.62-16.755,22.755l.045.12c-2.37.855-4.77,1.44-7.005,2.205l-.03-.075c6.12-4.635,4.365-15.885,10.695-23.22a17.92312,17.92312,0,0,1,17.52-5.895Z" style="fill:#ff9797"/><path d="M87.48167,27.80744a17.92312,17.92312,0,0,0-17.52,5.895c-6.33,7.335-4.575,18.585-10.695,23.22l.03.075a18.47784,18.47784,0,0,0-5.235,2.565l-.015-.015c6.21-7.26,2.61-22.515,15.21-32.52,8.64-6.855,19.335-2.82,19.335-2.82l.135-.015a6.78411,6.78411,0,0,0,.84,2.76c-.63.345-1.29.735-1.965,1.185Z" style="fill:#89dbba"/><path d="M80.375,25.9c3.75355-.33762,8.56168,1.39742,9.19166,1.05244a6.78385,6.78385,0,0,1-.84-2.76l-.135.015s-10.69492-4.035-19.33493,2.82c-3.25278,2.58279-6.5692,6.41007-9.63169,16.28507C64.31249,34.9375,68.56249,26.9625,80.375,25.9Z" style="fill:#fff;opacity:0.5"/><path d="M78.68749,31.0625a13.7702,13.7702,0,0,1,6.21876-.75,2.79863,2.79863,0,0,0,1.32954-3.00807l-.12814.04519A17.80345,17.80345,0,0,0,69.56249,34.0625C66.97863,37.31442,65.80971,41.80076,65,45.125,68.30537,41.04757,70.39659,34.02977,78.68749,31.0625Z" style="fill:#fff;opacity:0.5"/><path d="M78.625,36.875c1.8394-1.31386,1.713-1.20771,2.31249-1.3125.66321-.84676,1.67935-2.59049,1.2912-3.14948l-.07912.05681a12.763,12.763,0,0,0-10.03983,7.94C70.984,43.16638,69.625,46.6875,69.875,49.3125,71.93749,45.4375,73.375,40.625,78.625,36.875Z" style="fill:#fff;opacity:0.5"/><path d="M49.74588,65.01415a14.12223,14.12223,0,0,0-2.44443,4.16148l-.11152-.04431c-4.35522,1.73974-8.1042,17.63368-16.5332,16.30207,4.309-4.87325,3.25263-10.05453,7.60569-16.37909,4.15311-6.06506,10.36761-5.9846,12.925-5.84005l.11724.11115A15.57852,15.57852,0,0,0,49.74588,65.01415Z" style="fill:#c9c1f5"/><path d="M32.25,84.5c1.76685-3.83789,2.55225-7.07739,5.8457-11.86243a13.1569,13.1569,0,0,1,10.38147-5.83875,16.5481,16.5481,0,0,1,1.26868-1.78467,15.57254,15.57254,0,0,1,1.55884-1.68878l-.11731-.11115c-2.55737-.14459-8.77185-.225-12.92493,5.84-4.353,6.32458-3.29663,11.50586-7.60571,16.37909C31.42041,85.554,31.55933,84.63879,32.25,84.5Z" style="fill:#fff;opacity:0.5"/><g style="opacity:0.2"><path d="M39.77047,94.93127a11.35173,11.35173,0,0,0-3.35778,2.37558s1.46149,6.68355,3.29981,6.70384c.621.00139,1.67849-1.03093,2.54918-2.1384C41.34479,99.68882,40.53788,97.33993,39.77047,94.93127Z" style="fill:#2c4b75"/></g><path d="M101.02622,73.17412c-4.28247.70148-3.98254,1.55145-2.65457,4.58286.81006,1.79993,1.89,3.27,3.555,2.805a3.03226,3.03226,0,0,0,1.8967-1.54385C102.84025,77.16857,101.92271,75.19176,101.02622,73.17412Z" style="fill:#2c4b75;opacity:0.2"/><path d="M44.286,71.96881a7.95693,7.95693,0,0,1,2.97644-3.05033A15.39259,15.39259,0,0,1,49.921,64.66461a14.12876,14.12876,0,0,1,1.71482-1.67521l-.21213-.19729C48.875,63.375,43.56249,68.5625,44.286,71.96881Z" style="fill:#2c4b75;opacity:0.2"/><path d="M64.82667,68.422c4.995,1.815,11.16.075,17.37-1.815a5.37568,5.37568,0,0,1,3.75.555c-4.26,7.365-16.935,9.615-21.69,7.665A11.91345,11.91345,0,0,0,64.82667,68.422Z" style="fill:#2c4b75;opacity:0.2"/><path d="M90.70167,41.797c-.045,5.085,1.02,2.865,1.26,13.53a10.67046,10.67046,0,0,0-6.96-2.265c1.89-3.9,1.43-9.48953,2.885-16.26953l.75-1.125C88.41167,38.63744,90.70167,41.797,90.70167,41.797Z" style="fill:#2c4b75;opacity:0.2"/><g style="opacity:0.2"><path d="M75.50443,45.43777a20.7964,20.7964,0,0,1-7.04654,4.04837c-2.36993.855-4.77,1.44-7.005,2.205a20.046,20.046,0,0,0-4.45752,2.051,16.12157,16.12157,0,0,1-2.94873,5.80527l.015.015a18.47819,18.47819,0,0,1,5.235-2.565c2.235-.765,4.635-1.34995,7.005-2.205a20.27855,20.27855,0,0,0,7.75507-4.71C74.5023,48.41131,74.99339,46.88869,75.50443,45.43777Z" style="fill:#2c4b75"/></g><path d="M98,35.3125c-.46588.80692-2.2137.22331-3.25-.375a1.51634,1.51634,0,0,1-.5-2.3125c.46588-.80692,1.39058-.53895,2.42688.05936S98.46588,34.50558,98,35.3125Z" style="fill:#2c4b75;opacity:0.2"/><path d="M111.64667,19.21244c-4.26,3.705-11.415,10.455-11.415,10.455l-.33.225a27.6062,27.6062,0,0,0-3.645-4.38l.18-.165S107.01167,19.34744,111.64667,19.21244Z" style="fill:#ced8ee"/><path d="M39.72314,105.03906H39.7207c-2.30127-.02539-3.66211-4.69531-4.26953-7.47754a.998.998,0,0,1,.228-.875,11.85647,11.85647,0,0,1,3.55273-2.57324c.25537-1.03809,1.395-1.53223,2.27295-1.91211,1.9502-.8457,3.79248-1.64453,2.231-6.2998a1.00144,1.00144,0,0,1,.61523-1.26172c5.125-1.80859,4.74854-3.332,3.83984-7.01074a25.87,25.87,0,0,1-.91895-5.75684,15.0915,15.0915,0,0,1,.78174-5.09668,16.46523,16.46523,0,0,1,.86963-2.26172,13.95011,13.95011,0,0,1,4.54736-5.75781,19.12663,19.12663,0,0,1,5.50781-2.707c1.02-.34863,2.09473-.667,3.13428-.97461,1.26514-.375,2.57324-.7627,3.84961-1.22266a19.15906,19.15906,0,0,0,7.19873-4.291c2.09619-7.7373,5.19727-13.87012,9.2207-18.23047a25.61717,25.61717,0,0,1,4.66309-4.02344c.39209-.26074.79443-.51367,1.21631-.7627a8.18141,8.18141,0,0,1-.53027-2.25684c-.22754-2.27441.42139-4.63574,1.543-5.61133a1.88273,1.88273,0,0,1,1.69971-.46484c1.20117.29688,2.12988,1.72754,3.21973,3.56641a10.98021,10.98021,0,0,0,.71777,1.127l.15479.13672c.32715.28809,1.00879.8877,1.84766,1.71484a28.87771,28.87771,0,0,1,3.82471,4.58887A17.29483,17.29483,0,0,1,102.022,31.583a23.93355,23.93355,0,0,0,4.583,6.82422,4.372,4.372,0,0,1,.29346,5.63379,5.12247,5.12247,0,0,1-6.02295,2.21875,28.54327,28.54327,0,0,1-5.166-2.73926c-.02783.00293-.05566.00488-.084.00781a11.4207,11.4207,0,0,1-3.86719-.16992,13.18719,13.18719,0,0,0,.35791,2.54688,42.49772,42.49772,0,0,1,.86768,9.12793,10.96919,10.96919,0,0,1,3.59766,5.13672c3.03955-.42285,6.82764-.66113,9.353.18457a1.00519,1.00519,0,0,1,.38916.24121l2.20508,2.20508a1.00149,1.00149,0,0,1,.293.70117c.01807,3.11719-1.15088,7.9375-3.47461,14.32617-.07861.21582-.13135.35938-.15039.418a4.12518,4.12518,0,0,1-2.96826,3.2832c-1.91113.53125-3.50439-.59961-4.72656-3.36719-.7749-1.75-1.335-3.01465-.71094-4.14941.56787-1.03125,1.87939-1.46484,4.06885-1.82227a12.2069,12.2069,0,0,0,.30078-4.60156c-2.40771.29883-8.78662,2.88867-10.92139,4.19629a.99277.99277,0,0,1-.38965.13867c-1.2207.16211-1.88379-.86621-2.41553-1.69434a6.6453,6.6453,0,0,0-1.12891-1.44531c-4.72314,6.7959-15.93506,8.875-21.28613,7.56152C62.88281,83.65625,54.979,88.45508,52.19971,88.959c-1.34131.94531-1.97705,2.41992-2.77393,4.2666A16.68823,16.68823,0,0,1,44.397,100.4707C43.70605,101.86328,41.41943,105.03906,39.72314,105.03906Zm-2.19629-7.375c.61719,2.56152,1.60742,4.97754,2.20508,5.35254A10.21664,10.21664,0,0,0,42.666,99.45117a.99719.99719,0,0,1,.31592-.41309c2.62939-2.01855,3.63525-4.34961,4.60742-6.60449.88867-2.06055,1.728-4.00684,3.7041-5.27539a.99916.99916,0,0,1,.46484-.15527c1.90674-.14355,10.09619-4.98926,11.56885-12.13281a.99963.99963,0,0,1,1.35889-.72266c4.43945,1.82031,16.44727-.3291,20.44482-7.24121a.998.998,0,0,1,1.27246-.41211,6.3751,6.3751,0,0,1,2.71289,2.65332,7.95086,7.95086,0,0,0,.48193.69727c2.53613-1.41309,9.03564-4.08691,11.70312-4.27441a1.76756,1.76756,0,0,1,1.72266,1.32031c.58252,1.65723.03125,6.291-.83154,6.98242a1.00536,1.00536,0,0,1-.478.209c-2.6333.39258-3.09473.75684-3.1709.89551-.14648.26563.41553,1.53516.7876,2.375,1.14258,2.58789,2.03662,2.33789,2.37158,2.24707a2.205,2.205,0,0,0,1.55762-1.84668c.00977-.04395.07959-.25781.20752-.6084,2.61475-7.19043,3.28369-11.12988,3.34863-13.22754l-1.7334-1.73437c-1.92041-.56348-5.15918-.52734-9.165.10742a.98536.98536,0,0,1-.80566-.22656,1.00006,1.00006,0,0,1-.35059-.76074c0-1.08887-1.58936-3.85352-3.28174-4.874a.999.999,0,0,1-.48291-.834c-.13574-6.03613-.52393-7.82715-.83594-9.26562a16.42535,16.42535,0,0,1-.42432-4.293,1.00008,1.00008,0,0,1,1.313-.94434,9.58664,9.58664,0,0,0,4.38184.44629c.17285-.0166.3335-.03223.48389-.043a.98325.98325,0,0,1,.65625.18652,26.43876,26.43876,0,0,0,5.0293,2.71387,3.1492,3.1492,0,0,0,3.62939-1.458,2.47165,2.47165,0,0,0-.06055-3.1377,25.75014,25.75014,0,0,1-4.9541-7.3584,15.4194,15.4194,0,0,0-1.146-1.99414,26.68723,26.68723,0,0,0-3.51514-4.22266c-.84375-.832-1.49658-1.40625-1.81006-1.68164l-.18848-.168a7.24523,7.24523,0,0,1-1.0835-1.57812,10.54631,10.54631,0,0,0-1.89746-2.6084,5.47989,5.47989,0,0,0-.85352,3.9043,5.75856,5.75856,0,0,0,.71045,2.3584.99972.99972,0,0,1-.38428,1.37793c-.68408.375-1.30273.748-1.8916,1.14063a23.63881,23.63881,0,0,0-4.30273,3.71484c-3.84814,4.1709-6.81885,10.11035-8.83057,17.65527a.99769.99769,0,0,1-.25928.44922,21.50477,21.50477,0,0,1-8.12256,4.94336c-1.33105.48047-2.668.877-3.96045,1.25977-1.06689.31543-2.07422.61328-3.06006.95117a17.26954,17.26954,0,0,0-4.96289,2.42188,12.01246,12.01246,0,0,0-3.9126,4.97363l-.01123.02441a14.63643,14.63643,0,0,0-.77148,2.00781,13.18153,13.18153,0,0,0-.69141,4.44336,23.91318,23.91318,0,0,0,.86133,5.335c.88086,3.56445,1.647,6.666-4.22021,9.03906,1.51318,5.625-1.79346,7.05859-3.61182,7.84766a4.24118,4.24118,0,0,0-1.13428.60449.94923.94923,0,0,1-.59668,1.07227A10.03524,10.03524,0,0,0,37.52686,97.66406Zm63.209-25.11035Zm-50.9043-7.62109h0Z" style="fill:#6d6daa"/><path d="M64.30664,76.07227a.97788.97788,0,0,1-.314-.05078.99954.99954,0,0,1-.63525-1.26367,11.01,11.01,0,0,0,.53467-5.91406,1.00012,1.00012,0,0,1,1.96875-.35352,12.97434,12.97434,0,0,1-.605,6.89648A.99984.99984,0,0,1,64.30664,76.07227Z" style="fill:#6d6daa"/><path d="M85.99561,68.40723a.99061.99061,0,0,1-.48975-.12891,4.46719,4.46719,0,0,0-3.019-.459.99991.99991,0,0,1-.51758-1.93164,6.44206,6.44206,0,0,1,4.51807.64844,1,1,0,0,1-.4917,1.87109Z" style="fill:#6d6daa"/><path d="M90.73584,43.042a1.00382,1.00382,0,0,1-.458-.11133c-1.36475-.70508-3.55371-3.12012-2.07178-7.21387a1.00028,1.00028,0,0,1,1.88086.68164c-1.26123,3.4834,1.01123,4.70508,1.10889,4.75488a1.00006,1.00006,0,0,1-.46,1.88867Z" style="fill:#6d6daa"/><path d="M97.15674,34.73242a1,1,0,0,1-.937-.65039,3.53386,3.53386,0,0,0-1.28125-.6709.99966.99966,0,1,1,.59668-1.9082c.49316.15332,2.13525.74512,2.55859,1.87988a1.00089,1.00089,0,0,1-.937,1.34961Z" style="fill:#6d6daa"/><path d="M91.99609,56.57227a.99315.99315,0,0,1-.63428-.22754,9.651,9.651,0,0,0-6.24951-2.03906.99988.99988,0,0,1-.12109-1.99609,11.65585,11.65585,0,0,1,7.64014,2.49023,1,1,0,0,1-.63525,1.77246Z" style="fill:#6d6daa"/><path d="M31.32617,86.93652a6.64463,6.64463,0,0,1-.84863-.05469,1.0007,1.0007,0,0,1-.64062-1.63281c2.02148-2.42383,2.68359-4.86035,3.44971-7.68066a28.98452,28.98452,0,0,1,3.60645-8.81445c2.95313-4.59082,7.54736-6.83691,13.61768-6.66895a1.00062,1.00062,0,0,1,.97217,1.02734,1.03,1.03,0,0,1-1.02686.97266,12.77765,12.77765,0,0,0-11.88184,5.75293,26.92167,26.92167,0,0,0-3.35742,8.25488,23.99145,23.99145,0,0,1-2.53662,6.61914c3.02246-.98242,5.39795-5.06348,7.709-9.0332,2.49854-4.292,4.85889-8.3457,8.19434-8.3457a1,1,0,0,1,0,2c-2.18555,0-4.36133,3.7373-6.46582,7.35156C39.31055,81.50684,36.14941,86.93652,31.32617,86.93652Z" style="fill:#6d6daa"/><path d="M66.25781,55.67285a1.00006,1.00006,0,0,1-.55176-1.835c1.35986-.89648,2.20752-3.71777,3.105-6.70605,1.85645-6.17773,4.39844-14.63867,14.04053-16.20215a1.00021,1.00021,0,1,1,.32031,1.97461c-8.40723,1.36328-10.646,8.81543-12.44531,14.80371-1.04834,3.48926-1.9541,6.50391-3.91895,7.7998A1.00054,1.00054,0,0,1,66.25781,55.67285Z" style="fill:#6d6daa"/><path d="M100.23145,30.667a.99978.99978,0,0,1-.686-1.72754c.05664-.05371,4.59326-4.33105,8.57373-7.92773a76.70189,76.70189,0,0,0-11.189,5.20605,1.0004,1.0004,0,0,1-.9873-1.74023c.44092-.25,10.84717-6.124,15.67432-6.26465a.99148.99148,0,0,1,.96094.63574,1.00174,1.00174,0,0,1-.27539,1.11914c-4.1958,3.64844-11.31348,10.35938-11.38525,10.42676A.99792.99792,0,0,1,100.23145,30.667Z" style="fill:#6d6daa"/><path d="M59.26758,57.92285a.99994.99994,0,0,1-.605-1.79687c2.86328-2.16895,3.89746-6.16309,4.99268-10.3916,1.085-4.18945,2.31494-8.9375,5.54883-12.68555,3.21533-3.73047,8.958-7.8457,18.03613-6.28711.07617.0127.14063.02441.19336.0332a.988.988,0,0,1,.77393.2793A.999.999,0,0,1,88.23,28.4873a1.08283,1.08283,0,0,1-.74854.32031,4.3976,4.3976,0,0,1-.58057-.0752,16.61319,16.61319,0,0,0-16.18213,5.62207c-2.92969,3.39551-4.04687,7.71-5.12744,11.88184-1.18457,4.57422-2.30371,8.89551-5.7207,11.4834A.99729.99729,0,0,1,59.26758,57.92285Z" style="fill:#6d6daa"/><path d="M54.04639,60.54785a1.00026,1.00026,0,0,1-.75928-1.65039c2.31982-2.71191,3.186-6.67383,4.18945-11.26074,1.55518-7.10937,3.31738-15.167,11.1582-21.39258,8.98145-7.125,19.85205-3.14453,20.31006-2.97266a1.00014,1.00014,0,0,1-.70459,1.87207c-.10107-.03809-10.28516-3.74023-18.36182,2.667-7.28271,5.7832-8.96436,13.4707-10.44775,20.25391-1.01709,4.64844-1.97754,9.03906-4.624,12.13379A.99952.99952,0,0,1,54.04639,60.54785Z" style="fill:#6d6daa"/><path d="M65.53577,75.43573c.09924-2.993.01331-7.41766-1.28577-8.31073,0,0-.97771-.38954-1.56251,2.5A24.14268,24.14268,0,0,1,57.125,80.5c-2.375,2.5625-4.93751,5.4375-7.56251,6.25-.43749,1-4.25,9.75-7.5,11.1875a20.88536,20.88536,0,0,1-4.125,4l.20069.52856c.46851.90454,1.00757,1.56641,1.58447,1.57281,1.04468.00232,3.33545-2.91211,3.86816-4.20752,4.772-4.05811,5.989-11.27478,8.24243-11.83136,2.22217-.16724,10.88342-5.21759,12.47339-12.92755A7.7097,7.7097,0,0,0,65.53577,75.43573Z" style="fill:#2c4b75;opacity:0.2"/><path d="M80.14424,5.36217a4.12259,4.12259,0,0,0,2.74358,2.74361q2.05771.68589,0,1.37178a4.12259,4.12259,0,0,0-2.74358,2.74361q-.68589,2.05767-1.37181,0a4.12253,4.12253,0,0,0-2.74358-2.74361q-2.05771-.68589,0-1.37178a4.12253,4.12253,0,0,0,2.74358-2.74361Q79.45837,3.3045,80.14424,5.36217Z" style="fill:#ff99b1"/><path d="M122.94872,30.08974a3.69876,3.69876,0,0,0,2.46153,2.46155q1.84616.61538,0,1.23075a3.69876,3.69876,0,0,0-2.46153,2.46155q-.61538,1.84613-1.23078,0a3.69872,3.69872,0,0,0-2.46153-2.46155q-1.84616-.61538,0-1.23075a3.69872,3.69872,0,0,0,2.46153-2.46155Q122.33336,28.24361,122.94872,30.08974Z" style="fill:#96d7ff"/><path d="M44.51114,120.40577a3.69876,3.69876,0,0,0,2.46153,2.46155q1.84616.61538,0,1.23075a3.69876,3.69876,0,0,0-2.46153,2.46155q-.61538,1.84613-1.23078,0a3.69872,3.69872,0,0,0-2.46153-2.46155q-1.84616-.61538,0-1.23075a3.69872,3.69872,0,0,0,2.46153-2.46155Q43.89578,118.55965,44.51114,120.40577Z" style="fill:#c9c1f5"/><path d="M20.17781,75.23911a3.69876,3.69876,0,0,0,2.46153,2.46155q1.84616.61538,0,1.23075A3.69876,3.69876,0,0,0,20.17781,81.393q-.61538,1.84613-1.23078,0a3.69872,3.69872,0,0,0-2.46153-2.46155q-1.84616-.61538,0-1.23075A3.69872,3.69872,0,0,0,18.947,75.23911Q19.56245,73.393,20.17781,75.23911Z" style="fill:#fff"/><path d="M68.71259,82.51021a3.69876,3.69876,0,0,0,2.46153,2.46155q1.84616.61538,0,1.23075a3.69876,3.69876,0,0,0-2.46153,2.46155q-.61538,1.84613-1.23078,0a3.69872,3.69872,0,0,0-2.46153-2.46155q-1.84616-.61538,0-1.23075a3.69872,3.69872,0,0,0,2.46153-2.46155Q68.09723,80.66408,68.71259,82.51021Z" style="fill:#fff"/></svg>