<?xml version="1.0" ?><!DOCTYPE svg  PUBLIC '-//W3C//DTD SVG 1.1//EN'  'http://www.w3.org/Graphics/SVG/1.1/DTD/svg11.dtd'><svg height="512px" id="Layer_1" style="enable-background:new 0 0 512 512;" version="1.1" viewBox="0 0 512 512" width="512px" xml:space="preserve" xmlns="http://www.w3.org/2000/svg" xmlns:xlink="http://www.w3.org/1999/xlink"><g><path d="M264.474,79.197c4.074-4.074,11.606-2.089,11.606-2.089l-2.747,5.042L264.474,79.197z" style="fill:#FCCE8D;"/><path d="M280.605,54.129c4.074-4.074,11.606-2.089,11.606-2.089l-2.747,5.042L280.605,54.129z" style="fill:#FCCE8D;"/><path d="M394.457,447.598c-0.696-1.547-9.246-4.797-14.12-6.267c1.083-0.658,1.354-0.58,1.431-4.217h0.039   c2.824,0.967,11.838,3.907,11.838,3.907c0.039,0.271,0.077,0.542,0.077,0.774c0,0.116,0.039,0.232,0.077,0.348   C394.186,445.239,394.379,447.018,394.457,447.598z" style="fill:#FCCE8D;"/><path d="M394.457,447.598c-0.077-0.58-0.271-2.36-0.658-5.455c0.851,2.321,7.157,1.586,7.157-0.967h0.039   c2.398,18.337,4.023,31.413,4.023,33.076c0,5.261-7.466,5.106-8.047,2.205c-0.58-2.901-0.542-4.023-1.47-10.406v-0.039   c0.812,0.271,1.47,0.426,1.47,0.426c-0.89-7.079-2.476-16.673-2.476-18.646C394.495,447.792,394.495,447.715,394.457,447.598z" style="fill:#FC9021;"/><path d="M322.502,52.079c-0.89-5.261,2.205-18.376,9.168-22.399c6.925-3.985,10.832,1.818,10.832,1.818   c-2.089-2.244-5.919-0.387-8.743,3.559c-0.774,1.083-1.47,2.36-2.05,3.714c-1.354,3.288-2.282,6.731-2.515,9.865   c-0.309,3.752,0.387,7.079,2.515,9.207c0.774,0.774,1.702,1.122,2.708,1.161c-0.696,0.077-1.354,0.077-1.973,0.116   c-1.586,0-2.979-0.155-4.139-0.425c0,0,0-0.039-0.039,0c-2.631-0.735-4.294-2.205-5.184-4.488   C322.811,53.588,322.618,52.853,322.502,52.079z" style="fill:#FC9021;"/><path d="M338.208,48.675c-1.625,0.58-2.631-1.199-2.05-3.907l4.913,1.161   c-0.967,1.509-1.896,2.36-2.669,2.669C338.324,48.636,338.285,48.675,338.208,48.675z" style="fill:#FC9021;"/><path d="M329.194,48.636c0.735,0.155,6.151,1.509,9.014,0.039c0.077,0,0.116-0.039,0.193-0.077   c0.774-0.309,1.702-1.16,2.669-2.669l-4.913-1.161c0.116-0.658,0.348-1.354,0.696-2.128c1.315-2.94,3.791-5.339,5.648-5.029   c0.58,0.077,1.083,0.425,1.47,1.083c0.619,1.044,0.967,2.979,0.774,5.958c-0.193,3.134-1.044,5.88-2.244,8.085   c-2.166,4.023-5.416,6.383-8.085,6.267c-1.006-0.039-1.934-0.387-2.708-1.161C329.581,55.715,328.885,52.388,329.194,48.636z" style="fill:#DB7102;"/><path d="M300.567,104.652c0,0,8.163-24.72,17.486-34.004c9.323-9.323,16.325-9.555,14.391-11.528   c0.619-0.039,1.277-0.039,1.973-0.116c2.669,0.116,5.919-2.244,8.085-6.267c-3.056,9.439-4.449,10.019-15.552,19.304   c-0.542,0.464-1.083,0.967-1.586,1.509l-0.967-0.348c-0.077-1.238-0.58-2.205-1.393-2.476c-1.431-0.503-3.25,1.006-4.101,3.404   c-0.812,2.36-0.348,4.681,1.045,5.184c0.271,0.116,0.58,0.116,0.89,0.039c-3.598,5.493-6.731,12.495-9.285,18.995l-0.116-0.039   c-0.271-1.547-1.006-2.631-2.089-2.824c-1.625-0.271-3.327,1.702-3.791,4.449c-0.464,2.708,0.464,5.145,2.089,5.455   c0.464,0.077,0.967-0.039,1.393-0.309c-1.818,5.377-3.134,9.787-3.714,11.799l-2.205-5.88l-1.277-3.366L300.567,104.652z" style="fill:#EB7E0E;"/><path d="M377.087,440.48c0-21.741-6.615-69.75-8.317-84.682c-1.702-14.933-13.346-80.62-20.658-102.787   c0.696-0.425,1.818-0.851,3.172-1.277v0.039c17.292,54.082,30.523,171.841,30.523,180.468c0,2.128,0,3.714-0.039,4.874   c-0.077,3.636-0.348,3.559-1.431,4.217C378.712,440.79,377.474,440.48,377.087,440.48z" style="fill:#BAE5E6;"/><path d="M329.194,48.636c0.232-3.134,1.161-6.577,2.515-9.865c0.58-1.354,1.277-2.631,2.05-3.714   c0,0,4.874,0.309,8.743,2.553c-1.857-0.31-4.333,2.089-5.648,5.029c-0.348,0.774-0.58,1.47-0.696,2.128   c-0.58,2.708,0.425,4.488,2.05,3.907C335.345,50.145,329.929,48.791,329.194,48.636z" style="fill:#EB7E0E;"/><path d="M400.956,441.177c0,2.553-6.306,3.288-7.157,0.967c-0.039-0.116-0.077-0.232-0.077-0.348   c0-0.232-0.039-0.503-0.077-0.774c-0.58-4.758-1.509-12.186-2.747-22.631c0.464,2.244,6.963,1.586,6.963-0.696   c1.161,8.395,2.205,16.325,3.134,23.482H400.956z" style="fill:#BAE5E6;"/><path d="M397.861,417.54c0,0.039,0,0.077,0,0.155c0,2.282-6.499,2.94-6.963,0.696   c-0.542-4.487-1.122-9.517-1.818-15.165c0.425,1.702,6.654,0.89,6.731-0.851C396.507,407.52,397.203,412.588,397.861,417.54z" style="fill:#915A01;"/><path d="M394.495,447.792c0,1.973,1.586,11.567,2.476,18.646c0,0-0.658-0.155-1.47-0.426   c-1.315-0.387-3.056-1.083-3.598-2.012c-1.547-2.669-1.586-11.296-3.288-12.998c-1.702-1.702-4.99-2.321-9.594-4.952   c-4.604-2.669-3.559-5.571-1.934-5.571c0.387,0,1.625,0.31,3.25,0.851c4.874,1.47,13.424,4.72,14.12,6.267   C394.495,447.715,394.495,447.792,394.495,447.792z M391.865,451.777c0.774-0.309,1.083-1.47,0.658-2.592   c-0.426-1.161-1.393-1.857-2.166-1.547c-0.812,0.271-1.122,1.431-0.696,2.592C390.085,451.351,391.052,452.047,391.865,451.777z" style="fill:#FFE699;"/><path d="M392.522,449.185c0.425,1.122,0.116,2.282-0.658,2.592c-0.812,0.271-1.78-0.425-2.205-1.547   c-0.425-1.161-0.116-2.321,0.696-2.592C391.13,447.328,392.097,448.024,392.522,449.185z" style="fill:#BAE5E6;"/><path d="M395.811,402.375c-0.077,1.741-6.306,2.553-6.731,0.851c0-0.039,0-0.039,0-0.077   c-1.625-13.617-3.598-30.716-6.035-51.722c-9.865-85.456-19.033-101.124-20.078-101.704c-0.774-0.464-7.312,0.696-11.683,2.012   c-1.354,0.426-2.476,0.851-3.172,1.277c-2.979,1.741-3.559-6.847-3.559-10.368c0-3.559,18.414-5.687,21.006-5.687   c3.366,0,11.103,32.573,17.254,72.961C385.791,329.569,391.13,367.713,395.811,402.375z" style="fill:#FC9021;"/><path d="M350.587,80.59c0.271,1.431-0.193,3.288-1.818,5.609c-5.029,7.195-18.105,2.631-18.105,2.631   l-0.696-3.211c0,0,0.077,0,0.193,0.039c0.116,0.039,0.309,0.116,0.542,0.155c0.348,0.077,0.812,0.232,1.393,0.348   c0.155,0.039,0.387,0.077,0.58,0.116c4.101,0.928,11.799,1.818,15.358-3.327c1.122-1.586,1.663-2.94,1.818-4.101   c0.155-0.928,0.039-1.702-0.232-2.399C350.394,78.153,350.587,80.59,350.587,80.59z" style="fill:#FCCE8D;"/><path d="M349.62,76.451c0.271,0.696,0.387,1.47,0.232,2.399c-0.155,1.161-0.696,2.515-1.818,4.101   c-3.559,5.145-11.257,4.255-15.358,3.327c-0.193-0.039-0.426-0.077-0.58-0.116c-0.58-0.155-1.044-0.271-1.393-0.348   c-0.232-0.077-0.426-0.116-0.542-0.155c-0.116-0.039-0.193-0.039-0.193-0.039V85.58v-0.039l3.288-4.139l3.133-3.907l4.333-5.455   c0,0,6.886,0.464,8.743,4.101C349.504,76.218,349.582,76.335,349.62,76.451z" style="fill:#FFE699;"/><path d="M343.431,33.084c0.812,2.166,0.812,4.101,0.542,5.609c-0.387-0.658-0.89-1.006-1.47-1.083   c-3.869-2.244-8.743-2.553-8.743-2.553c2.824-3.946,6.654-5.803,8.743-3.559C342.85,31.885,343.199,32.427,343.431,33.084z" style="fill:#DB7102;"/><path d="M336.39,77.495l-3.133,3.907l-10.6-3.134V78.23l-0.89-0.232l-0.155-0.077l-0.193-0.039   c-0.812-0.309-1.083-1.702-0.58-3.095c0.464-1.393,1.547-2.321,2.399-2.012l1.16,0.426l0.967,0.348L336.39,77.495z" style="fill:#FCCE8D;"/><path d="M333.256,106.316c0,1.277-0.116,2.321-0.464,3.172c-0.193,0.503-0.464,1.045-0.735,1.509   c-0.503,0.812-1.006,1.547-1.47,2.05c0.232-0.348,0.426-0.735,0.542-1.161c0.348-0.851,0.464-1.896,0.464-3.172   c0-8.666-6.306-11.915-9.401-12.921c-0.967-0.348-1.547-0.464-1.547-0.464l1.702-2.36   C322.347,92.969,333.256,94.942,333.256,106.316z" style="fill:#FCCE8D;"/><path d="M331.593,108.714c0,1.277-0.116,2.321-0.464,3.172c-0.116,0.426-0.309,0.812-0.542,1.161   c-0.271,0.426-0.503,0.658-0.503,0.658c-2.398,2.631-7.157,1.161-9.13,0.348c-0.58-0.232-0.928-0.774-0.928-1.354l0.155-4.604   l0.232-5.996l0.232-6.77c0,0,0.58,0.116,1.547,0.464C325.287,96.799,331.593,100.049,331.593,108.714z" style="fill:#FFE699;"/><path d="M328.266,58.694c-0.309,0.309-2.205,1.973-11.412,7.273c-10.252,5.919-17.834,24.643-22.786,35.668   l0.039,0.039l2.282,3.482l-8.975-4.023l-1.625-3.25c11.606-17.486,17.292-30.523,25.61-35.281   c8.317-4.797,13.501-5.648,10.948-8.201v-0.116c0.232,0,0.503-0.039,0.735-0.077C323.972,56.489,325.635,57.959,328.266,58.694z" style="fill:#DB7102;"/><path d="M318.904,54.284c-2.863-0.464-5.184-2.282-5.571-7.157c-0.077-1.044-0.116-2.205-0.039-3.443   c0.155-3.366,0.89-7.195,2.437-10.484c1.702-3.636,4.371-6.577,8.356-7.428c5.571-1.161,7.582,3.907,7.582,3.907   c-6.963,4.023-10.058,17.138-9.168,22.399c0.116,0.774,0.309,1.509,0.58,2.128c-0.232,0.039-0.503,0.077-0.735,0.077   C321.186,54.439,319.987,54.439,318.904,54.284z" style="fill:#FC9021;"/><path d="M331.67,29.68c0,0-0.559-1.358-1.858-2.509c-8.936,4.078-10.618,18.58-9.813,24.538   c0.107,0.897,0.286,1.749,0.537,2.466c-0.215,0.045-0.465,0.09-0.68,0.09c-0.183,0.031-0.368,0.026-0.552,0.046   c0.978,0.104,2.02,0.109,3.043-0.027c0.232,0,0.503-0.039,0.735-0.077c-0.271-0.619-0.464-1.354-0.58-2.128   C321.612,46.818,324.707,33.703,331.67,29.68z" style="fill:#EB7E0E;"/><path d="M324.397,73.201l-1.16-0.426c-0.851-0.309-1.934,0.619-2.399,2.012   c-0.503,1.393-0.232,2.785,0.58,3.095l0.193,0.039l0.155,0.077l0.89,0.232v0.039c-0.58,0.619-1.199,1.006-1.818,1.083   c-0.309,0.077-0.619,0.077-0.89-0.039c-1.393-0.503-1.857-2.824-1.045-5.184c0.851-2.399,2.669-3.907,4.101-3.404   C323.817,70.996,324.32,71.963,324.397,73.201z" style="fill:#BAE5E6;"/><path d="M322.347,54.4c2.553,2.553-2.631,3.404-10.948,8.201c-8.317,4.758-14.004,17.795-25.61,35.281   l-5.339-2.437c0,0,1.083-1.857,2.824-4.681c0.696-1.122,1.509-2.398,2.36-3.752c4.139-6.383,10.058-14.971,15.668-20.851   c1.238-1.315,2.437-2.437,3.598-3.366c1.006-0.89,1.934-1.547,2.863-2.089c10.716-6.19,12.65-2.205,11.141-6.422   c1.083,0.155,2.283,0.155,3.443,0V54.4z" style="fill:#FC9021;"/><path d="M320.413,102.099l-0.232,5.996l-10.019-4.062l-0.619-0.271l-0.58-0.232   c-0.967-0.155-1.509-1.625-1.238-3.211c0.309-1.625,1.315-2.824,2.244-2.631l0.503,0.232h0.039l0.928,0.387l0.116,0.039   L320.413,102.099z" style="fill:#FCCE8D;"/><path d="M313.256,43.684c-3.172-1.818-2.244-11.18,2.476-10.484c-1.547,3.288-2.283,7.118-2.437,10.484   H313.256z" style="fill:#FC9021;"/><path d="M311.322,239.432c8.201,17.486-9.091,45.997-10.948,53.695c-1.896,7.698,0.928,19.613,0.928,19.613   l-24.41-16.557c-4.952-24.294,17.873-23.443,15.319-50.794c-2.321-25.068-10.213-35.088-21.006-42.361l10.406,6.77   C294.3,218.852,303.159,221.908,311.322,239.432z" style="fill:#FC9021;"/><path d="M311.438,98.308l-0.928-0.387h-0.039l-0.503-0.232c-0.928-0.193-1.934,1.006-2.244,2.631   c-0.271,1.586,0.271,3.056,1.238,3.211l0.58,0.232l0.619,0.271c-0.348,0.426-0.696,0.774-1.083,1.006c0,0,0,0.039-0.039,0.039   c-0.426,0.271-0.928,0.387-1.393,0.309c-1.625-0.309-2.553-2.747-2.089-5.455c0.464-2.747,2.166-4.72,3.791-4.449   C310.432,95.677,311.167,96.76,311.438,98.308z" style="fill:#BAE5E6;"/><path d="M303.12,110.997l2.205,5.88c-7.737,18.337-32.186,52.999-36.171,61.471   c-3.985,8.472-6.306,12.457,6.925,19.459c8.008,4.255,5.532,11.992,5.532,11.992l-10.406-6.77   c-0.271-0.193-0.542-0.348-0.812-0.542l-16.712-10.832c2.244-3.907,4.41-7.698,6.499-11.296   C280.644,144.924,303.12,110.997,303.12,110.997z" style="fill:#EB7E0E;"/><path d="M304.861,62.756l0.039,0.039c-1.16,0.928-2.36,2.05-3.598,3.366l-9.091-2.321l-1.547-0.387h-0.039   c-0.658-0.155-0.967-1.199-0.696-2.36c0.232-1.161,0.967-1.973,1.586-1.857l0.696,0.193L304.861,62.756z" style="fill:#FCCE8D;"/><path d="M301.844,107.631l1.277,3.366c0,0-22.476,33.927-42.941,69.363   c-2.089,3.598-4.255,7.389-6.499,11.296c-19.575,34.275-42.902,76.752-42.902,76.752h-3.25   C234.415,216.453,259.483,172.236,301.844,107.631z" style="fill:#70571D;"/><path d="M296.389,105.155l5.455,2.476c-42.361,64.605-67.429,108.822-94.315,160.777l-19.691-13.23   c5.377-10.406,24.101-41.858,43.444-73.889c24.681-40.929,50.368-82.748,50.368-82.748l5.764,2.592L296.389,105.155z" style="fill:#937226;"/><path d="M301.302,312.741l-3.752,2.824l-18.066-12.186c0,0,0,0-0.039,0l-6.19-4.178l3.637-3.017   L301.302,312.741z" style="fill:#FF9102;"/><path d="M174.259,425.277c-2.631-1.238-5.377-2.592-8.201-4.023v-0.039   c-4.101-2.089-8.356-4.449-12.805-7.002c-42.709-24.643-51.219-43.328-43.947-79.808c4.333-21.664,21.973-19.768,19.497-42.98   l3.25-1.006c0,0,2.476,16.441,18.298,7.311c0.735-0.425,1.431-0.928,2.166-1.509c9.285-7.544,17.873-28.124,16.054-40.736   c-1.122-7.814-6.228-12.534-17.602-9.323l-0.619-4.139c0,0,12.921-6.77,12.921-21.548c0-14.816,19.884-51.645,68.009-39.188   c-19.343,32.032-38.066,63.483-43.444,73.889l19.691,13.23h3.25c0,0,23.327-42.477,42.902-76.752l16.712,10.832   c0.271,0.193,0.542,0.348,0.812,0.542c10.793,7.273,18.685,17.292,21.006,42.361c2.553,27.351-20.271,26.5-15.319,50.794   l-3.637,3.017c-8.163-10.29-21.47-18.917-34.314,13.54c-12.418,31.413-7.582,56.287,20.929,45.107   c0.928-0.348,1.896-0.735,2.901-1.199l-0.232,4.913c0,0-5.609,1.934-8.124,7.157c-2.515,5.261-0.696,35.591-15.822,55.049   c-10.213,13.114-26.035,15.436-48.279,8.008c-0.039-0.039-0.077-0.039-0.116-0.039c-4.642-1.857-9.014-3.714-13.153-5.223   C176.116,426.128,175.188,425.703,174.259,425.277z M226.562,310.033c-0.077-0.58-0.116-1.122-0.155-1.663   c-0.232-1.044-0.464-1.934-0.774-2.708c-0.271-0.774-0.619-1.277-0.812-1.663c-0.193-0.426-0.309-0.619-0.309-0.619l-0.039-0.077   c-0.155-0.348-0.464-0.542-0.812-0.58c-1.122-1.199-2.94-1.509-4.526-0.696c-1.818,1.044-2.553,3.095-1.702,4.565   c0.89,1.393,3.095,1.934,4.99,1.199c0.426-0.155,0.851-0.426,1.161-0.658c0.116,0.387,0.193,0.812,0.309,1.315   c0.039,0.426,0.077,0.89,0.116,1.393c-0.039,0.464-0.077,0.967-0.116,1.509c-0.271,2.05-1.199,4.333-2.553,6.576   c-1.277,2.166-2.979,4.217-4.72,6.228c-3.404,4.255-7.157,8.975-8.898,13.849c-0.426,1.315-0.696,2.631-0.812,3.83   c-0.116,1.238-0.039,2.437,0.155,3.443c0.193,1.006,0.426,1.857,0.735,2.398c0.232,0.542,0.387,0.851,0.387,0.851   c0.31,0.658,0.812,1.199,1.393,1.509c0.619,0.735,1.393,1.354,2.244,1.78c2.785,1.354,5.532,0.348,6.151-2.128   c0.619-2.476-1.122-5.455-3.83-6.809c-0.851-0.425-1.663-0.658-2.437-0.735c0.039-0.542,0.155-1.083,0.271-1.663   c1.161-4.797,4.41-10.136,7.505-14.778c1.625-2.128,3.25-4.371,4.526-6.693c1.315-2.36,2.205-4.874,2.476-7.234   C226.523,311.155,226.562,310.575,226.562,310.033z M204.937,323.689l2.592-8.124l-31.916-15.397l-14.43,1.857   c0.116-0.542,0.271-1.044,0.387-1.586c0.503-2.398,1.083-4.797,1.896-6.925c0.89-2.166,2.012-4.062,3.288-5.377   c0.348-0.309,0.696-0.58,1.006-0.851c0.348-0.232,0.696-0.464,1.006-0.658c0.426-0.155,0.735-0.309,1.083-0.464   c0,0.387,0,0.812,0.116,1.277c0.464,1.818,1.934,3.25,3.366,3.211c1.431-0.116,2.476-1.741,2.282-3.714   c-0.193-1.625-1.393-2.863-2.747-3.134c-0.232-0.232-0.503-0.348-0.812-0.309h-0.077c0,0-0.193,0.039-0.58,0.077   c-0.387,0.077-0.89,0.077-1.586,0.271c-0.696,0.155-1.431,0.464-2.244,0.851c-0.387,0.193-0.812,0.464-1.238,0.696   c-0.387,0.31-0.774,0.619-1.16,0.967c-1.509,1.431-2.785,3.443-3.791,5.725c-0.967,2.166-1.663,4.565-2.321,6.963   c-0.387,1.122-0.812,2.283-1.238,3.404l-7.195,0.928l-0.735,3.985l4.642,2.244c-0.58,1.044-1.238,2.05-1.934,2.901   c-0.348,0.426-0.696,0.774-1.006,1.122c-0.464-0.58-1.006-1.083-1.741-1.547c-2.321-1.354-5.261-1.122-6.654,0.619   c-1.431,1.779-0.735,4.449,1.625,5.841c0.735,0.464,1.547,0.696,2.36,0.812c0.503,0.271,1.16,0.387,1.78,0.271   c0,0,0.271-0.039,0.774-0.116c0.542-0.039,1.238-0.31,2.012-0.696c0.812-0.348,1.663-0.928,2.476-1.663   c0.774-0.735,1.547-1.625,2.244-2.631c0.619-0.967,1.199-2.05,1.663-3.172l25.648,12.341H204.937z M171.203,356.069   c0.58-1.393-0.155-2.94-1.586-3.404c-5.609-1.857-18.182-6.886-19.73-14.933c-0.426-2.205-1.547-0.464-1.547,2.631   c0,3.134,2.669,20.619,5.996,26.616c3.327,5.996-2.476,27.041-2.476,40.155c0,6.267,14.662,13.269,13.463,4.874   c-1.238-8.433-4.836-27.505,0.735-42.361C168.805,362.336,170.352,358.274,171.203,356.069z" style="fill:#FFAF02;"/><path d="M292.211,63.839v5.377l-2.747,1.431V53.433l2.747-1.393v7.389l-0.696-0.193   c-0.619-0.116-1.354,0.696-1.586,1.857c-0.271,1.16,0.039,2.205,0.696,2.36h0.039L292.211,63.839z" style="fill:#FCCE8D;"/><path d="M289.464,53.433v17.215c0,0-10.754-2.515-10.754-11.644c0-1.857,0.425-3.172,1.16-4.101   c0.039-0.039,0.077-0.077,0.077-0.116c0.193-0.232,0.425-0.464,0.658-0.658c0.039-0.039,0.077-0.116,0.193-0.155   c0.658-0.503,1.431-0.812,2.244-0.967C286.021,52.311,289.464,53.433,289.464,53.433z" style="fill:#FFE699;"/><polygon points="285.789,97.882 287.414,101.132 281.65,98.54 280.451,95.445  " style="fill:#EB7E0E;"/><polygon points="287.259,366.939 287.259,370.885 262.539,361.562 262.772,356.649  " style="fill:#FF9102;"/><path d="M262.539,361.562l24.72,9.323c-7.041,6.422-9.826,4.101-9.826,17.331   c0,22.167-8.356,44.566-34.817,50.639c-20.078,4.565-37.525-1.238-52.303-7.079c22.244,7.428,38.066,5.106,48.279-8.008   c15.126-19.459,13.308-49.788,15.822-55.049C256.93,363.496,262.539,361.562,262.539,361.562z" style="fill:#FF9102;"/><path d="M276.079,84.497l9.555,2.515c-0.851,1.354-1.663,2.631-2.36,3.752l-7.195-1.857l-1.547-0.387h-0.039   c-0.658-0.155-0.967-1.199-0.696-2.36c0.232-1.161,0.967-1.973,1.586-1.857L276.079,84.497z" style="fill:#FCCE8D;"/><path d="M273.255,299.201l6.19,4.178c-0.542-0.039-5.223,0-15.822,13.966   c-11.296,14.894-11.799,32.457-3.752,40.504c-28.511,11.18-33.347-13.695-20.929-45.107   C251.785,280.284,265.093,288.911,273.255,299.201z" style="fill:#FF9102;"/><path d="M276.079,88.907v5.377l-2.747,1.431V78.501l2.747-1.393v7.389l-0.696-0.193   c-0.619-0.116-1.354,0.696-1.586,1.857c-0.271,1.16,0.039,2.205,0.696,2.36h0.039L276.079,88.907z" style="fill:#FCCE8D;"/><path d="M273.333,78.501v17.215c0,0-10.755-2.515-10.755-11.644c0-1.857,0.426-3.172,1.161-4.101   c0.039-0.039,0.077-0.077,0.077-0.116c0.193-0.232,0.426-0.464,0.658-0.658c0.039-0.039,0.077-0.116,0.193-0.155   c0.658-0.503,1.431-0.812,2.244-0.967C269.89,77.379,273.333,78.501,273.333,78.501z" style="fill:#FFE699;"/><path d="M226.407,308.37c0.039,0.542,0.077,1.083,0.155,1.663c0,0.542-0.039,1.122-0.077,1.741   c-0.271,2.36-1.161,4.874-2.476,7.234c-1.277,2.321-2.901,4.565-4.526,6.693c-3.095,4.642-6.344,9.981-7.505,14.778   c-0.116,0.58-0.232,1.122-0.271,1.663c0.774,0.077,1.586,0.31,2.437,0.735c2.708,1.354,4.449,4.333,3.83,6.809   c-0.619,2.476-3.366,3.482-6.151,2.128c-0.851-0.426-1.625-1.044-2.244-1.78c-0.58-0.309-1.083-0.851-1.393-1.509   c0,0-0.155-0.309-0.387-0.851c-0.309-0.542-0.542-1.393-0.735-2.398c-0.193-1.006-0.271-2.205-0.155-3.443   c0.116-1.199,0.387-2.515,0.812-3.83c1.741-4.874,5.493-9.594,8.898-13.849c1.741-2.012,3.443-4.062,4.72-6.228   c1.354-2.244,2.282-4.526,2.553-6.576c0.039-0.542,0.077-1.045,0.116-1.509c-0.039-0.503-0.077-0.967-0.116-1.393   c-0.116-0.503-0.193-0.928-0.309-1.315c-0.31,0.232-0.735,0.503-1.161,0.658c-1.896,0.735-4.101,0.193-4.99-1.199   c-0.851-1.47-0.116-3.52,1.702-4.565c1.586-0.812,3.404-0.503,4.526,0.696c0.348,0.039,0.658,0.232,0.812,0.58l0.039,0.077   c0,0,0.116,0.193,0.309,0.619c0.193,0.387,0.542,0.89,0.812,1.663C225.943,306.435,226.175,307.325,226.407,308.37z" style="fill:#AD6301;"/><polygon points="207.529,315.565 204.937,323.689 183.776,323.689 184.743,319.666  " style="fill:#FCCE8D;"/><polygon points="207.529,315.565 184.743,319.666 159.559,307.635 156.309,306.087 150.623,303.379    157.818,302.451 161.184,302.025 175.613,300.168  " style="fill:#FFE699;"/><polygon points="184.743,319.666 183.776,323.689 158.128,311.349 154.568,309.608 154.53,309.608    149.887,307.364 150.623,303.379 156.309,306.087 159.559,307.635  " style="fill:#FFE699;"/><path d="M175.613,286.938c0.193,1.973-0.851,3.598-2.282,3.714c-1.431,0.039-2.901-1.393-3.366-3.211   c-0.116-0.464-0.116-0.89-0.116-1.277c-0.348,0.155-0.658,0.309-1.083,0.464c-0.309,0.193-0.658,0.426-1.006,0.658   c-0.31,0.271-0.658,0.542-1.006,0.851c-1.277,1.315-2.399,3.211-3.288,5.377c-0.812,2.128-1.393,4.526-1.896,6.925   c-0.116,0.542-0.271,1.044-0.387,1.586l-3.366,0.425c0.426-1.122,0.851-2.282,1.238-3.404c0.658-2.399,1.354-4.797,2.321-6.963   c1.006-2.282,2.282-4.294,3.791-5.725c0.387-0.348,0.774-0.658,1.16-0.967c0.426-0.232,0.851-0.503,1.238-0.696   c0.812-0.387,1.547-0.696,2.244-0.851c0.696-0.193,1.199-0.193,1.586-0.271c0.387-0.039,0.58-0.077,0.58-0.077h0.077   c0.309-0.039,0.58,0.077,0.812,0.309C174.221,284.075,175.42,285.313,175.613,286.938z" style="fill:#AD6301;"/><path d="M174.259,425.277l-17.873,53.773c-0.851-0.89-2.012-1.47-3.327-1.47   c-0.425,0-0.812,0.077-1.199,0.193l14.198-56.519C168.882,422.685,171.629,424.039,174.259,425.277z" style="fill:#BAE5E6;"/><path d="M169.617,352.664c1.431,0.464,2.166,2.012,1.586,3.404c-0.851,2.205-2.399,6.267-5.145,13.579   c-5.571,14.855-1.973,33.927-0.735,42.361c1.199,8.395-13.463,1.393-13.463-4.874c0-13.114,5.803-34.159,2.476-40.155   c-3.327-5.996-5.996-23.482-5.996-26.616c0-3.095,1.122-4.836,1.547-2.631C151.435,345.778,164.008,350.808,169.617,352.664z    M164.82,355.334c-1.702,3.83,3.675,3.366,3.172-0.116C167.605,352.626,165.671,353.4,164.82,355.334z M158.128,353.245   c-0.464,3.134,3.598,3.714,2.669-0.232C160.255,350.846,158.437,351.194,158.128,353.245z M152.673,348.719   c-0.542,3.211,3.211,3.791,2.36,0.309C154.53,346.9,153.098,346.359,152.673,348.719z M149.887,343.419   c-0.077,2.553,2.089,3.134,1.354,0.271C150.777,341.987,149.926,341.484,149.887,343.419z" style="fill:#AD6301;"/><path d="M168.573,255.487l-17.602-9.323C162.344,242.953,167.451,247.672,168.573,255.487z" style="fill:#FF9102;"/><path d="M167.992,355.218c0.503,3.482-4.874,3.946-3.172,0.116   C165.671,353.4,167.605,352.626,167.992,355.218z" style="fill:#FFAF02;"/><path d="M160.797,353.013c0.928,3.946-3.134,3.366-2.669,0.232   C158.437,351.194,160.255,350.846,160.797,353.013z" style="fill:#FFAF02;"/><path d="M154.568,309.608l3.559,1.741c-0.464,1.122-1.045,2.205-1.663,3.172   c-0.696,1.006-1.47,1.896-2.244,2.631c-0.812,0.735-1.663,1.315-2.476,1.663c-0.774,0.387-1.47,0.658-2.012,0.696   c-0.503,0.077-0.774,0.116-0.774,0.116c-0.619,0.116-1.277,0-1.78-0.271c-0.812-0.116-1.625-0.348-2.36-0.812   c-2.36-1.393-3.056-4.062-1.625-5.841c1.393-1.741,4.333-1.973,6.654-0.619c0.735,0.464,1.277,0.967,1.741,1.547   c0.31-0.348,0.658-0.696,1.006-1.122c0.696-0.851,1.354-1.857,1.934-2.901H154.568z" style="fill:#AD6301;"/><path d="M156.387,479.05c0.658,0.774,1.083,1.818,1.083,2.94c0,2.437-1.973,4.41-4.41,4.41   c-2.437,0-4.41-1.973-4.41-4.41c0-2.012,1.354-3.714,3.211-4.217c0.387-0.116,0.774-0.193,1.199-0.193   C154.375,477.58,155.536,478.16,156.387,479.05z" style="fill:#915A01;"/><path d="M155.033,349.028c0.851,3.482-2.901,2.901-2.36-0.309C153.098,346.359,154.53,346.9,155.033,349.028   z" style="fill:#FFAF02;"/><path d="M152.518,296.184v0.039c-0.735,0.58-1.431,1.083-2.166,1.509   c-15.822,9.13-18.298-7.311-18.298-7.311L152.518,296.184z" style="fill:#FF9102;"/><path d="M151.241,343.69c0.735,2.863-1.431,2.282-1.354-0.271   C149.926,341.484,150.777,341.987,151.241,343.69z" style="fill:#FFAF02;"/><g><path d="M166.251,356.282c-0.027,0-0.057-0.004-0.087-0.008c-0.261-0.049-0.438-0.298-0.389-0.563    c5.04-27.756,7.975-39.452,8.006-39.565c0.011-0.041,0.026-0.083,0.049-0.121l119.857-212.116c0.128-0.23,0.423-0.325,0.657-0.181    c0.234,0.129,0.313,0.423,0.181,0.657l-119.823,212.06c-0.238,0.952-3.132,12.766-7.975,39.441    C166.686,356.119,166.482,356.282,166.251,356.282z" style="fill:#E8E8E8;"/></g><g><path d="M159.504,354.049c-0.034,0-0.072-0.004-0.106-0.012c-0.261-0.06-0.423-0.317-0.366-0.578    c0.072-0.317,7.235-31.855,8.511-38.908c0.979-5.418,125.834-215.596,131.149-224.538c0.132-0.234,0.431-0.31,0.661-0.17    c0.23,0.136,0.306,0.434,0.17,0.661c-44.987,75.716-130.269,220.02-131.028,224.22c-1.281,7.072-8.447,38.629-8.519,38.946    C159.923,353.898,159.727,354.049,159.504,354.049z" style="fill:#E8E8E8;"/></g><g><path d="M153.645,349.772c-0.034,0-0.068-0.004-0.106-0.011c-0.261-0.057-0.423-0.318-0.366-0.578    c0.075-0.332,7.431-33.574,8.632-38.043c0.677-2.509,36.547-62.399,68.172-114.269c20.461-33.559,68.742-112.309,75.123-118.689    c0.181-0.189,0.495-0.185,0.684,0.004c0.189,0.189,0.185,0.495-0.004,0.684c-4.371,4.371-32.395,48.667-74.964,118.486    c-34.386,56.403-67.473,111.825-68.074,114.035c-1.197,4.45-8.549,37.669-8.625,38.005    C154.067,349.617,153.867,349.772,153.645,349.772z" style="fill:#E8E8E8;"/></g><g><path d="M150.622,344.525c-0.023,0-0.049,0-0.075-0.007c-0.265-0.038-0.442-0.287-0.4-0.552    c0.049-0.332,5.187-33.291,5.433-36.052c0.166-1.882,48.017-76.917,68.584-109.094c33.343-52.165,69.698-108.584,72.818-112.709    c5.837-7.718,11.541-13.423,13.691-15.568l0.163-0.166c0.189-0.189,0.499-0.189,0.687,0c0.185,0.189,0.185,0.499,0,0.688    l-0.166,0.163c-2.135,2.134-7.809,7.805-13.604,15.466C289.64,97.414,157.66,304.29,156.531,308.049    c-0.238,2.743-5.217,34.707-5.433,36.068C151.064,344.355,150.856,344.525,150.622,344.525z" style="fill:#E8E8E8;"/></g><path d="M332.444,59.12c1.934,1.973-5.068,2.205-14.391,11.528c-9.323,9.285-17.486,34.004-17.486,34.004   l-6.46-2.979l-0.039-0.039c4.952-11.025,12.534-29.749,22.786-35.668c9.207-5.3,11.103-6.963,11.412-7.273   c0.039-0.039,0.039,0,0.039,0C329.465,58.965,330.858,59.12,332.444,59.12z" style="fill:#FC9021;"/><polygon points="300.567,104.652 301.844,107.631 296.389,105.155 294.107,101.673  " style="fill:#EB7E0E;"/></g></svg>