<?xml version="1.0" ?><!DOCTYPE svg  PUBLIC '-//W3C//DTD SVG 1.1//EN'  'http://www.w3.org/Graphics/SVG/1.1/DTD/svg11.dtd'><svg enable-background="new 0 0 64 64" height="64px" version="1.1" viewBox="0 0 64 64" width="64px" xml:space="preserve" xmlns="http://www.w3.org/2000/svg" xmlns:xlink="http://www.w3.org/1999/xlink"><g id="Layer_1"><g><g><g><path d="M15.7,45.1c0,1.9-1.6,3.5-3.5,3.5H6c-1.9,0-3.5-1.6-3.5-3.5v-37c0-1.9,1.6-3.5,3.5-3.5h6.2      c1.9,0,3.5,1.6,3.5,3.5V45.1z" fill="#5F6D6A"/><path d="M31,42.4c0,1.9-1.6,3.5-3.5,3.5h-6.2c-1.9,0-3.5-1.6-3.5-3.5V10.9c0-1.9,1.6-3.5,3.5-3.5h6.2      c1.9,0,3.5,1.6,3.5,3.5V42.4z" fill="#5F6D6A"/><path d="M46.2,40.5c0,1.9-1.6,3.5-3.5,3.5h-6.2c-1.9,0-3.5-1.6-3.5-3.5V12.8c0-1.9,1.6-3.5,3.5-3.5h6.2      c1.9,0,3.5,1.6,3.5,3.5V40.5z" fill="#5F6D6A"/><path d="M61.5,38.7c0,1.9-1.6,3.5-3.5,3.5h-6.2c-1.9,0-3.5-1.6-3.5-3.5V14.6c0-1.9,1.6-3.5,3.5-3.5H58      c1.9,0,3.5,1.6,3.5,3.5V38.7z" fill="#5F6D6A"/><path d="M15.7,44.1c0,1.9-1.6,3.5-3.5,3.5H6c-1.9,0-3.5-1.6-3.5-3.5v-37c0-1.9,1.6-3.5,3.5-3.5h6.2      c1.9,0,3.5,1.6,3.5,3.5V44.1z" fill="#FF7A17"/><path d="M2.5,7.1c0-1.9,1.6-3.5,3.5-3.5h6.2c1.9,0,3.5,1.6,3.5,3.5v37c0,1.9-1.6,3.5-3.5,3.5" fill="#F96310"/><path d="M31,41.3c0,1.9-1.6,3.5-3.5,3.5h-6.2c-1.9,0-3.5-1.6-3.5-3.5V9.9c0-1.9,1.6-3.5,3.5-3.5h6.2      c1.9,0,3.5,1.6,3.5,3.5V41.3z" fill="#E81A6A"/><path d="M17.8,9.9c0-1.9,1.6-3.5,3.5-3.5h6.2c1.9,0,3.5,1.6,3.5,3.5v31.5c0,1.9-1.6,3.5-3.5,3.5" fill="#D8095E"/><path d="M46.2,39.5c0,1.9-1.6,3.5-3.5,3.5h-6.2c-1.9,0-3.5-1.6-3.5-3.5V11.7c0-1.9,1.6-3.5,3.5-3.5h6.2      c1.9,0,3.5,1.6,3.5,3.5V39.5z" fill="#17AEE2"/><path d="M33,11.7c0-1.9,1.6-3.5,3.5-3.5h6.2c1.9,0,3.5,1.6,3.5,3.5v27.8c0,1.9-1.6,3.5-3.5,3.5" fill="#199EE0"/><path d="M61.5,37.6c0,1.9-1.6,3.5-3.5,3.5h-6.2c-1.9,0-3.5-1.6-3.5-3.5V13.6c0-1.9,1.6-3.5,3.5-3.5H58      c1.9,0,3.5,1.6,3.5,3.5V37.6z" fill="#26BF64"/><path d="M48.3,13.6c0-1.9,1.6-3.5,3.5-3.5H58c1.9,0,3.5,1.6,3.5,3.5v24.1c0,1.9-1.6,3.5-3.5,3.5" fill="#1AAD55"/></g><g><g><path d="M10.8,16.4c0,1-0.8,3.7-1.8,3.7c-1,0-1.8-2.7-1.8-3.7c0-1,0.8-1.8,1.8-1.8       C10,14.5,10.8,15.4,10.8,16.4z" fill="#89A5A0" opacity="0.5"/><circle cx="9" cy="16.4" fill="#FFFFFF" r="1.8"/><path d="M7.7,15.1c0.7-0.7,1.9-0.7,2.6,0c0.7,0.7,0.7,1.9,0,2.6" fill="#E1E5E4"/></g><g><path d="M10.8,34.8c0,1-0.8,3.7-1.8,3.7c-1,0-1.8-2.7-1.8-3.7c0-1,0.8-1.8,1.8-1.8       C10,33,10.8,33.8,10.8,34.8z" fill="#89A5A0" opacity="0.5"/><circle cx="9" cy="34.8" fill="#FFFFFF" r="1.8"/><path d="M7.7,33.5c0.7-0.7,1.9-0.7,2.6,0c0.7,0.7,0.7,1.9,0,2.6" fill="#E1E5E4"/></g></g><g><g><path d="M26.2,16.4c0,1-0.8,3.7-1.8,3.7c-1,0-1.8-2.7-1.8-3.7c0-1,0.8-1.8,1.8-1.8       C25.3,14.5,26.2,15.4,26.2,16.4z" fill="#89A5A0" opacity="0.5"/><circle cx="24.3" cy="16.4" fill="#FFFFFF" r="1.8"/><path d="M23,15.1c0.7-0.7,1.9-0.7,2.6,0c0.7,0.7,0.7,1.9,0,2.6" fill="#E1E5E4"/></g><g><path d="M26.2,34.8c0,1-0.8,3.7-1.8,3.7c-1,0-1.8-2.7-1.8-3.7c0-1,0.8-1.8,1.8-1.8       C25.3,33,26.2,33.8,26.2,34.8z" fill="#89A5A0" opacity="0.5"/><circle cx="24.3" cy="34.8" fill="#FFFFFF" r="1.8"/><path d="M23,33.5c0.7-0.7,1.9-0.7,2.6,0c0.7,0.7,0.7,1.9,0,2.6" fill="#E1E5E4"/></g></g><g><g><path d="M41.5,16.4c0,1-0.8,3.7-1.8,3.7c-1,0-1.8-2.7-1.8-3.7c0-1,0.8-1.8,1.8-1.8       C40.7,14.5,41.5,15.4,41.5,16.4z" fill="#89A5A0" opacity="0.5"/><circle cx="39.7" cy="16.4" fill="#FFFFFF" r="1.8"/><path d="M38.4,15.1c0.7-0.7,1.9-0.7,2.6,0c0.7,0.7,0.7,1.9,0,2.6" fill="#E1E5E4"/></g><g><path d="M41.5,34.8c0,1-0.8,3.7-1.8,3.7c-1,0-1.8-2.7-1.8-3.7c0-1,0.8-1.8,1.8-1.8       C40.7,33,41.5,33.8,41.5,34.8z" fill="#89A5A0" opacity="0.5"/><circle cx="39.7" cy="34.8" fill="#FFFFFF" r="1.8"/><path d="M38.4,33.5c0.7-0.7,1.9-0.7,2.6,0c0.7,0.7,0.7,1.9,0,2.6" fill="#E1E5E4"/></g></g><g><g><path d="M56.9,16.4c0,1-0.8,3.7-1.8,3.7c-1,0-1.8-2.7-1.8-3.7c0-1,0.8-1.8,1.8-1.8       C56.1,14.5,56.9,15.4,56.9,16.4z" fill="#89A5A0" opacity="0.5"/><circle cx="55.1" cy="16.4" fill="#FFFFFF" r="1.8"/><path d="M53.7,15.1c0.7-0.7,1.9-0.7,2.6,0c0.7,0.7,0.7,1.9,0,2.6" fill="#E1E5E4"/></g><g><path d="M56.9,34.8c0,1-0.8,3.7-1.8,3.7c-1,0-1.8-2.7-1.8-3.7c0-1,0.8-1.8,1.8-1.8       C56.1,33,56.9,33.8,56.9,34.8z" fill="#89A5A0" opacity="0.5"/><circle cx="55.1" cy="34.8" fill="#FFFFFF" r="1.8"/><path d="M53.7,33.5c0.7-0.7,1.9-0.7,2.6,0c0.7,0.7,0.7,1.9,0,2.6" fill="#E1E5E4"/></g></g></g><g><path d="M60,60.4L35.2,37c-0.1-0.1-0.2-0.2-0.2-0.2c0.2-1-0.1-2-0.9-2.9c-1.2-1.2-3.6-1.9-4.7-0.9     c-1.1,1.1-0.3,3.5,0.9,4.7c0.8,0.8,1.9,1.1,2.9,0.9c0.1,0.1,0.2,0.2,0.2,0.2l20.3,21.6H60z" fill="#A4C1BC"/><path d="M60,60.4L35.2,37c-0.1-0.1-0.2-0.2-0.2-0.2c0.2-1-0.1-2-0.9-2.9c-1.2-1.2-3.6-1.9-4.7-0.9c0,0,0,0,0,0     l27.3,27.3H60z" fill="#B6CECB"/><path d="M35.2,37c-0.1-0.1-0.2-0.2-0.2-0.2c0.2-0.7,0-1.6-0.5-2.3l-3.7,3.7c0.7,0.5,1.5,0.6,2.3,0.5     c0.1,0.1,0.2,0.2,0.2,0.2l3.5,3.8c0.4-0.3,0.8-0.6,1.1-0.9c0.4-0.4,0.7-0.7,0.9-1.1L35.2,37z" fill="#88A59F"/><g><circle cx="29.5" cy="33.1" fill="#2C3331" r="7.6"/><path d="M34.9,27.8c3,3,3,7.8,0,10.8c-3,3-7.8,3-10.8,0" fill="#050706"/></g></g></g></g></svg>