<?xml version="1.0" ?><svg id="Layer_33" style="enable-background:new 0 0 128 128;" version="1.1" viewBox="0 0 128 128" xml:space="preserve" xmlns="http://www.w3.org/2000/svg" xmlns:xlink="http://www.w3.org/1999/xlink"><g><g><linearGradient gradientTransform="matrix(0.9274 -0.4375 0.4267 0.9044 -17.9934 33.4886)" gradientUnits="userSpaceOnUse" id="SVGID_1_" x1="55.705" x2="79.3717" y1="8.4993" y2="113.4993"><stop offset="0" style="stop-color:#8E5F75"/><stop offset="0.9468" style="stop-color:#64233F"/></linearGradient><path d="M96.991,71.051c20.85-16.859,28.339-55.894,29-64c0.238-2.921-4.281-7-9-4    c-4.3,2.734-8.446,4.827-10.855,5.971C104.651,9.728,102.607,10.655,101,11c-3.676,0.789-7.153,1.093-11,1    c-43.515-1.057-59.146,36.332-62,44c-0.364,0.978-1.569,3.048-2,4C18.939,75.588,10.705,85.852,3.991,91.051    c-3.314,2.566-2.196,7.107,2,7C58.543,96.71,84.402,84.094,96.991,71.051z" style="fill:url(#SVGID_1_);"/><linearGradient gradientUnits="userSpaceOnUse" id="SVGID_2_" x1="86.3845" x2="98.5099" y1="63.7318" y2="147.2626"><stop offset="0" style="stop-color:#8E5F75"/><stop offset="0.9468" style="stop-color:#64233F"/></linearGradient><path d="M122,88c-5.047,1.049-11-1-11-1c-21.245-8.478-43-7-51-7l-0.102,46H75    c37.591,1.441,50.07-21.483,51-33C126.22,90.274,124.611,87.457,122,88z" style="fill:url(#SVGID_2_);"/><linearGradient gradientUnits="userSpaceOnUse" id="SVGID_3_" x1="60" x2="60" y1="88.8397" y2="118.8051"><stop offset="0" style="stop-color:#FFC145"/><stop offset="0.9949" style="stop-color:#E2912C"/></linearGradient><path d="M69,103c0,12.703-3.973,23-9,23s-9-10.297-9-23s4.075-22.502,9.102-22.502S69,90.297,69,103    z" style="fill:url(#SVGID_3_);"/></g><g><path d="M125.171,87.907c-0.94-0.829-2.142-1.139-3.374-0.887c-4.713,0.984-10.415-0.947-10.426-0.949    c-7.969-3.18-16.284-4.936-23.999-5.906c3.923-2.558,7.382-5.364,10.296-8.375c11.244-9.118,18.352-24.436,22.337-35.688    c4.373-12.349,6.604-24.322,6.983-28.97c0.152-1.866-1.094-3.934-3.099-5.145c-2.313-1.394-5.022-1.314-7.435,0.22    c-4.144,2.634-8.132,4.668-10.749,5.911c-1.511,0.719-3.435,1.585-4.916,1.903c-3.54,0.76-6.967,1.07-10.766,0.978    c-0.622-0.015-1.235-0.022-1.846-0.022c-41.239,0-57.178,34.094-61.116,44.673c-0.192,0.518-0.696,1.468-1.142,2.307    c-0.335,0.633-0.649,1.228-0.832,1.63c-6.146,13.57-14.06,24.75-21.71,30.674c-1.981,1.534-2.794,3.841-2.068,5.877    c0.644,1.81,2.376,2.916,4.543,2.916c0.055,0,0.108-0.001,0.163-0.002c16.712-0.427,31.7-2.05,44.622-4.803    C50.226,96.937,50,99.88,50,103c0,13.683,4.299,24,10,24l14.86-0.001c1.186,0.046,2.34,0.068,3.476,0.067    c37.55-0.002,47.881-24.318,48.661-33.986C127.162,91.029,126.462,89.048,125.171,87.907z M5.966,97.052    c-1.412,0.022-2.4-0.543-2.771-1.585c-0.43-1.206,0.123-2.629,1.409-3.624c7.899-6.117,16.03-17.573,22.308-31.43    c0.17-0.375,0.465-0.93,0.777-1.519c0.496-0.937,1.01-1.905,1.249-2.546c1.163-3.124,3.413-8.364,7.091-14.137    c0.002,0.01-0.001,0.02,0.001,0.03c0.084,0.338,2.126,8.328,7.263,13.465C43.488,55.902,43.744,56,44,56s0.512-0.098,0.707-0.293    c0.391-0.391,0.391-1.023,0-1.414c-4.738-4.738-6.718-12.459-6.737-12.536c-0.13-0.522-0.652-0.834-1.173-0.728    C45.588,27.784,61.9,12.323,89.976,13c3.969,0.097,7.536-0.228,11.234-1.022c1.684-0.362,3.746-1.287,5.354-2.052    c1.719-0.816,4.022-1.972,6.572-3.408c-0.176,0.317-0.184,0.715,0.031,1.037c0.088,0.132,2.173,3.233,4.385,4.34    c0.144,0.071,0.296,0.105,0.446,0.105c0.367,0,0.72-0.202,0.896-0.553c0.247-0.494,0.047-1.095-0.447-1.342    c-1.44-0.72-3.099-2.887-3.615-3.66c-0.19-0.285-0.502-0.423-0.82-0.427c1.142-0.658,2.319-1.363,3.515-2.123    c2.396-1.522,4.366-0.775,5.328-0.194c1.329,0.802,2.229,2.177,2.139,3.27c-0.576,7.07-7.874,46.519-28.632,63.304    c-0.032,0.025-0.062,0.054-0.091,0.083c-3.322,3.441-7.388,6.616-12.081,9.446c-8.425-0.854-15.932-0.831-21.185-0.808L60,79    c-3.48,0-6.434,3.848-8.211,9.953c-2.353-3.89-3.847-10.163-3.863-10.235c-0.127-0.538-0.665-0.869-1.202-0.745    c-0.537,0.126-0.871,0.664-0.745,1.202c0.081,0.345,2.005,8.423,5.162,12.344c-0.044,0.201-0.085,0.405-0.126,0.609    C38.037,94.959,22.894,96.62,5.966,97.052z M52,103c0-13.16,4.137-22,8-22s8,8.84,8,22s-4.137,22-8,22S52,116.16,52,103z     M125.003,92.92c-0.411,5.098-3.675,14.496-12.722,21.821c0.48-3.67-0.252-9.576-0.289-9.865    c-0.069-0.548-0.566-0.933-1.117-0.867c-0.548,0.069-0.937,0.569-0.867,1.117c0.273,2.163,0.813,8.274,0.045,10.556    c-0.082,0.242-0.057,0.49,0.036,0.708c-7.689,5.381-18.956,9.236-35.19,8.612h-0.803c2.871-6.21,1.942-15.692,1.9-16.103    c-0.058-0.55-0.543-0.955-1.098-0.892c-0.549,0.057-0.948,0.548-0.893,1.097c0.011,0.098,0.967,9.782-1.897,15.446    c-0.073,0.145-0.097,0.299-0.097,0.451h-7.877C67.655,121.365,70,113.103,70,103c0-10.11-2.348-18.377-5.874-22.008    c3.777-0.01,8.539,0.003,13.904,0.326c0.138,1.189,0.877,8.099-0.011,12.483c-0.109,0.541,0.241,1.068,0.782,1.179    c0.066,0.014,0.134,0.02,0.199,0.02c0.466,0,0.883-0.327,0.979-0.802c0.885-4.376,0.293-10.787,0.079-12.738    c5.898,0.433,12.39,1.27,18.962,2.843c0.127,1.637,0.901,12.342-0.013,19.572c-0.069,0.548,0.318,1.048,0.867,1.117    c0.042,0.005,0.084,0.008,0.126,0.008c0.497,0,0.927-0.369,0.991-0.875c0.866-6.842,0.287-16.37,0.073-19.316    c3.221,0.847,6.445,1.874,9.61,3.137c0.254,0.088,6.278,2.126,11.528,1.034c0.633-0.133,1.169,0.009,1.645,0.428    C124.65,90.116,125.115,91.528,125.003,92.92z" style="fill:#3A322B;"/><path d="M61.861,87.492c-0.279-0.476-0.893-0.633-1.367-0.354c-0.476,0.278-0.635,0.891-0.356,1.367    c0.068,0.117,6.754,11.888,0.91,30.189c-0.169,0.526,0.122,1.089,0.648,1.257C61.797,119.985,61.899,120,62,120    c0.424,0,0.817-0.271,0.952-0.695C69.086,100.099,62.159,87.998,61.861,87.492z" style="fill:#3A322B;"/><path d="M56.244,92.03c-0.537-0.136-1.078,0.189-1.214,0.725c-0.085,0.336-2.055,8.337-0.011,18.443    c0.097,0.475,0.514,0.802,0.979,0.802c0.065,0,0.133-0.006,0.199-0.02c0.541-0.109,0.892-0.638,0.782-1.179    c-1.95-9.639-0.03-17.479-0.011-17.558C57.104,92.709,56.779,92.166,56.244,92.03z" style="fill:#3A322B;"/><path d="M23.992,70.875c-0.07-0.547-0.566-0.945-1.117-0.866c-0.548,0.068-0.936,0.567-0.867,1.115    c0.042,0.341,1.113,8.411,7.285,14.583C29.488,85.902,29.744,86,30,86s0.512-0.098,0.707-0.293c0.391-0.391,0.391-1.023,0-1.414    C25.035,78.621,24.002,70.952,23.992,70.875z" style="fill:#3A322B;"/><path d="M67.804,48.02c-0.541,0.108-0.893,0.635-0.784,1.177c1.018,5.088,5.411,13.359,10.331,17.563    C77.539,66.921,77.77,67,78,67c0.282,0,0.562-0.119,0.76-0.351c0.359-0.42,0.31-1.051-0.11-1.409    c-4.536-3.877-8.736-11.774-9.669-16.437C68.873,48.262,68.352,47.908,67.804,48.02z" style="fill:#3A322B;"/><path d="M74.229,37.638C74.428,37.877,74.713,38,75.001,38c0.225,0,0.45-0.075,0.637-0.229    c0.426-0.353,0.484-0.983,0.133-1.408c-5.975-7.212-8.771-18.486-8.799-18.599c-0.131-0.536-0.673-0.868-1.208-0.735    c-0.537,0.131-0.866,0.672-0.735,1.208C65.145,18.716,67.957,30.065,74.229,37.638z" style="fill:#3A322B;"/><path d="M110.213,47.617c0.197,0.251,0.491,0.383,0.788,0.383c0.216,0,0.433-0.069,0.616-0.213    c0.435-0.341,0.511-0.97,0.17-1.404c-6.523-8.321-10.809-19.621-10.851-19.734c-0.195-0.518-0.771-0.775-1.288-0.585    c-0.517,0.194-0.778,0.771-0.585,1.288C99.241,27.825,103.495,39.047,110.213,47.617z" style="fill:#3A322B;"/></g></g></svg>