<?xml version="1.0" ?><svg id="Layer_1" style="enable-background:new 0 0 300 300;" version="1.1" viewBox="0 0 300 300" xml:space="preserve" xmlns="http://www.w3.org/2000/svg" xmlns:xlink="http://www.w3.org/1999/xlink"><style type="text/css">
	.st0{fill:#BFBFBF;}
	.st1{fill:#6D6D6D;}
	.st2{fill:#424343;}
	.st3{fill:#E8E8E6;}
	.st4{fill:none;}
	.st5{fill:#ABABAB;}
</style><g><g><path class="st0" d="M246.7,201.5c-3.8-6.2-6.1-13.7-8.8-19.8c-3.9-8.9-9.3-13.8-13.2-14.8c-1.3-0.3-2.5,0-4,1.1    c-2.6,2-6.1,3.6-10,4.8c1.4,2.5,22.7,41.8,21.2,62.6c-0.8,11.1-2.1,17.5-3.7,21.7c2.3,5,7.6,5.7,13.2-0.9    c0.6-12.4,4.6-50.3,4.6-50.7C246.1,205.4,246.6,201.6,246.7,201.5z"/><path class="st1" d="M228.2,257.1c-1.6,4-3.4,6-5.4,8.2c-3.3,3.6-3.2,8.7-3,10.2l12,0.3l0.8-3.1c1-3.7,3.7-6.8,7.1-8.4    c3-1.4,1.7-5.2,1.6-5.4c0,0,0-0.1,0-0.1c0-0.6,0-1.5,0.1-2.6C237.6,257.5,231.8,257.3,228.2,257.1z"/></g><g><path class="st0" d="M103.6,58.9C99.4,53,76.3,26.9,66.1,24.2c-2.6-0.4-7.2-0.7-8.3,0.2c-0.1,0.1-2.1,1.4-2.2,1.4    c2,5.5,1.8,9.3,1.4,13.6c2.9,0.4,7.1,3.7,9.3,5.6c1.1,0.9,1.9,2.9,3.1,4l4.2,8c1.7,1.7,5.3,1.5,7.1,3.4l5.4,4.8    c0,0,1.7,1.8,1.6,1.9c3.5,3.8,4.1,4.3,7.1,7.7l6.4,4.5c2.3,2.1,4.6,2.6,7,4.4l5.4,4.8c2,1.2,3.6,1,5.7,2c0.1-0.4,0.5-3.3,0.6-4.1    c0.6-3.1,1.6-8.2,3.7-11.1C121.3,73.5,107.4,64.1,103.6,58.9z"/><path class="st0" d="M48.9,41.2c-0.1-0.5-0.2-1.1-0.3-1.8c-0.1,0-0.1-0.1-0.1-0.1c-2.2-4.7-9-16.6-13.6-14.5    c-0.2,0.1-0.4,0.3-0.5,0.6c-1.2,3.4,4,15.9,6.3,20.8C43.9,44.2,47.1,42.3,48.9,41.2z"/><path class="st2" d="M78.5,52.9L90,43.3c0,0-3.3-3.4-4.4-4.5c-1.5-1.5-5.4-5.1-5.4-5.1l-5.3,15.7C76,50.4,77.3,51.7,78.5,52.9z"/><path class="st2" d="M85.3,60c1.3,1.3,3.3,3.7,4.5,5l10.7-10c0,0-3.2-3.9-4.5-5.3c-1.6-1.8-5.4-5.7-5.4-5.7L85.3,60z"/><path class="st2" d="M113.7,86.1l9.3-11.5c0,0-4-2.8-5.3-3.8c-1.4-1-5.3-4-5.3-4l-3.9,15.8C109.7,83.5,112.4,85.3,113.7,86.1z"/><path class="st2" d="M100.9,76.7l10.7-10.2c0,0-4.2-3.5-5.5-4.8c-1.3-1.3-4.9-5.7-4.9-5.7l-4.6,16.5    C97.9,73.9,97.3,77.2,100.9,76.7z"/></g><path class="st0" d="M110.7,236.8c-0.5-2.8-1.5-5.7-2.2-8.5c-1.2-4.6-2.1-9.2-2.1-13.9c0-7.1-9.5-41.6-10-43.7l-0.8-1   c-2.4,11-8.7,42.5-6.9,46.2c2,3.9,18.8,25.6,22.8,30.8c-0.3-2.2-0.5-7.8-0.8-9.4L110.7,236.8z"/><g><path class="st3" d="M279,122.8c-3.8-16.6-11.9-25.3-16.5-28.9c-6.7-8.6-17.3-13.2-31.7-13.6c-23.2-0.7-39.4,4.2-53.6,8.5    c-16.2,4.9-30.2,9.1-49.3,3.5c-10-3-19.3-8.4-27.3-15.8c0,0,0,0,0,0c-0.1,0-0.1,0-0.2,0c-0.2-0.1-0.2-0.2-0.2-0.4    c-1.7-1.6-3.3-3.2-4.9-4.9c-8.3-9.3-19.9-22-28.2-29c-2.2-1.8-4.8-3-7.7-3.3c-0.2,0-0.4-0.2-0.4-0.5c0.5-4.3,0-7.9-2-13.3    c-0.1-0.1-0.1-0.2-0.1-0.3c0,0,0,0,0,0c-0.2-0.5-0.4-1-0.6-1.6c-1-2.5-2.1-3.9-3.2-3.9c0,0,0,0,0,0c-1.3,0-2.5,2-2.8,2.7    c-3,6.4-2.2,13.8-1.5,17.6c0,0.2,0,0.4-0.2,0.5c-8.8,5.2-18,11.3-18.8,13.3c-1.3,3.2-8.8,13.2-18.8,23.8c-0.9,1-1.7,2-2.5,2.9    l1.8,8.4c0,0,2.1,1,2.7,2.1s1.2,2,3,5c1.7,2.9,10.1,3,8.5,6.2c2.5-0.7,5.2-1.2,8.1-1.7c5.9-1,12.5-2.2,17.6-5.6    c0,0,0.1-0.1,0.2-0.1c0.1,0,3.5-0.6,5.5,5.3l0.1,0.3c8.2,24.5,19.6,47.1,32.2,63.7l8.7,9.9c0,0.1,0.1,0.1,0.1,0.2    c0.3,1.3,7.5,33.1,7.5,40.5c0,4.6,1.2,9.3,2.4,13.9c0.7,2.8,1.5,5.6,1.9,8.4l0.1,0.5c0.3,2.1,0.8,4.6,1.1,7.4c0,0,0,0,0,0.1    c0.1,0.1,0.1,0.3,0,0.4c0.4,2.7,0.7,5.5,0.8,8.3c3,3.5,11.7,6,13.6-6.7l0.3-0.1c-1.4-3.1-2.5-6.5-2.5-10.4c0-12.3,0-41.1,0.6-56.6    l-0.9-2.5c5.5,0.1,54.7,1.5,60.5,1.5c5.3,0,28.8-1.6,38.9-9.2c1.6-1.2,3.2-1.6,4.7-1.2c4.3,1.1,7.6,8.6,11.8,18    c3,6.8,6.4,14.6,10.9,21.3c9.2,13.8,5.6,38.5,3,50.6c4.8,9,12.2,1.4,14.3-4.3c-0.1-0.7-0.1-1.3,0-1.9c0.2-1.3,0.6-4.5,1.2-8.9    c1.5-10.8,3.7-27.1,5-36c0.7-4.9-1.6-10.8-4.1-17c-3.8-9.4-8.1-20-4-31.6c1.2-3.4,7.2-21.4,6.4-39.2c0-0.2,0.1-0.4,0.3-0.4    c0.2,0,0.4,0.1,0.5,0.2c2.8,6.2,4.9,13.7,6.2,21c3.2,2.5,4.9,2.5,5.8-1.5C281.8,133.5,280.3,128.4,279,122.8z"/><path class="st2" d="M278.9,161.4c-1.2,7.7,0.8,19,2.1,24.6c0.1-6,1.3-16.7,1.4-17.2c0-0.2,0.2-0.4,0.4-0.4c0,0,0,0,0,0    c0.2,0,0.4,0.2,0.4,0.4c0,0.1,1.4,11.2,1.8,22.3c0.2,4.4,5,10.8,7.4,13.6c-0.5-2.1-0.8-5.7,0.9-9c2.4-4.8-2.5-20.4-2.5-20.5    c-0.1-0.2,0-0.5,0.3-0.5c0.2-0.1,0.5,0,0.6,0.2l5.8,13.8c-0.3-4.3-0.9-12.7-1.4-14.4c-2.1-8.1-10.1-20-10.2-20.1    c-0.1-0.2-0.1-0.4,0.1-0.6c0.2-0.1,0.4-0.1,0.6,0.1c1.6,1.8,4.2,4.5,6.1,6.5c-2.1-4-5.9-11.8-9.3-21.9c-1.8,1-4,1.4-5.8,1.5    C279.2,148.3,279.7,156.5,278.9,161.4z"/></g><path class="st2" d="M24,92.9c-0.7-2-0.2-3.1-0.1-6.3c0.1-1.5-0.9-3.5-0.9-3.5c-0.7-1.1-4-2.9-5.3-3c-2.3,0-9.3-0.2-9.3-0.2   C3.9,86.1,3,91.6,3,91.7c-0.1,0.3-1.7,4.8,1.7,7.7c0.4,0.3,0.8,0.7,1.3,1.1c3.5,3.1,8,7,13.8,3.2c1.3-0.9,3-1.5,4.8-2   C26.1,98.5,25,96,24,92.9z"/><g><path class="st4" d="M39,63.2c-5.1,0-6.3,4.9-6.4,4.9c0,0.2,0,0.3,0.1,0.4c1.8,1.7,3.8,2.2,5.6,2.2c3.9,0,7.1-2.7,7.1-2.8    c0.1-0.1,0.2-0.3,0.1-0.5C45.6,67.5,44.1,63.2,39,63.2z"/><path class="st2" d="M251.7,257.7c-0.9,4.2-1.7,7-1.7,7.1c0,0.1,0,0.1-0.1,0.2c-1.9,2.2-6.9,8.3-7.4,9.8c-0.5,1.5-1,4.6-1.2,5.7    c4,0.5,13.5,1.2,15.3-1.1c0.9-1.1,1.4-2.3,2.1-3.8c1.1-2.6,2.4-5.5,6.1-8.7c3.5-3.1,2.6-6.8,1.8-10.3c-0.3-1.1-0.5-2.1-0.6-3.1    C263.2,255,256.7,258.3,251.7,257.7z"/></g><g><path class="st2" d="M110.8,253.2c0.2,4.7-0.1,9.1-1.5,12.2c-2.7,5.8-3,11.3-3.1,12.6c1.4,0.5,7.6,2.5,11.8-0.1    c4.9-3,5.9-4.7,4.8-7.6c-1.3-3.2,0.9-5.1,5.4-9l1-0.8c2.1-1.9,0.8-4.5-1.7-9c-0.9-1.6-1.8-3.3-2.7-5.1l-0.3,0.1    C121.7,251.4,114,252.9,110.8,253.2z"/></g><g><path class="st2" d="M150.9,94.6c-2.3,0.2-4.6,0.2-7,0.2c1.1,2.9,2.4,6.4,2.7,8.9c0.6,5,11.2,47.9,9.3,66    c-0.4,3.5-0.8,6.1-1.2,8.1c2,0,4,0.1,5.9,0.1c0.9-5.4,1.8-11.8,1.5-14.5C161.5,158.7,158.3,120,150.9,94.6z"/><path class="st2" d="M200.1,91.2c6-4.7,10.3-8.1,13.2-10.5c-3.9,0.4-7.5,0.9-11,1.5c-9.5,8.2-24.6,24.3-25.9,45.1l-5.6-36.8    c-2,0.6-3.9,1.1-5.8,1.6c2.2,11.2,12.1,63.1,9.1,86c1.8,0,3.3,0.1,4.6,0.1c1-12.2,3.3-40.1,3.3-45.9    C182,124.8,185.7,102.4,200.1,91.2z"/><path class="st2" d="M225.6,96.8c10.8-8.8,23.6-9.1,32.1-7.9c-3.6-3-7.8-5.2-12.8-6.6c-5.7,1.1-12.7,3.6-21.1,8.3    c-29.5,16.4-33.1,73.4-33.5,87.2c1.5-0.1,3.2-0.3,5-0.6C196.1,137.7,209.6,109.7,225.6,96.8z"/><path class="st2" d="M246.7,114.8c10.9-7.1,21.2,2,23.7,4.4c0-0.1,0-0.3,0-0.4c0-0.2,0.1-0.3,0.2-0.4l-2.1-8    c0,0-13.1-11.8-36.7,5.6c-20,14.8-26.4,49.4-27.9,59.6c2.3-0.5,4.6-1.1,6.8-1.7c1.8-7.4,7.5-29.4,11.2-36.1    C226.5,129.4,234.3,122.9,246.7,114.8z"/><path class="st2" d="M240.5,149c4-4,21.7-7.3,28.1-8.3c0.4-2.1,0.8-4.3,1.1-6.6c-3.8-0.6-12.9,1.8-25.4,5.6    c-13.6,4.2-19.3,22.3-20.7,28.1c0.8-0.2,1.6-0.3,2.4-0.1c1.3,0.4,2.6,1.3,3.8,2.7l0.3-1.3c1.4-7.5,5-14.5,10.4-20    C240.4,149.1,240.4,149.1,240.5,149z"/><path class="st2" d="M262.4,168.7c-0.1-2,0.1-4,0.4-6.1c-15.4-0.8-25.7,9.3-29.5,13.7c0.7,1.3,1.4,2.8,2.1,4.4    C246,170,256.3,168.4,262.4,168.7z"/><path class="st2" d="M268,189.6c-0.7-1.7-1.3-3.4-2-5.1c-9.3,0.4-21.4,3.9-26.4,5.5c0.9,1.9,1.8,3.9,2.7,5.9L268,189.6    C268,189.6,268,189.6,268,189.6z"/><path class="st2" d="M129.5,92.5c-0.5-0.1-1.1-0.3-1.6-0.4c-1.7-0.5-3.3-1.1-5-1.7l4.6,26.6c1.1,6.2,3,12.2,5.4,18    c8,19.3,6,34.9,4.2,42.4c1.8,0,3.8,0.1,5.8,0.1c4.8-22.6-5.4-46.7-6.6-51.7C135.1,120.2,131.2,101.2,129.5,92.5z"/><path class="st2" d="M113.7,86c-1.7-1.7-3.3-3-5.3-3.4l-4.6,34.3c-1.2,9.1-4.6,17.9-10.1,25.2c-4.7,6.3-7.4,12-9,16.6    c1.1,1.6,2.3,3.2,3.5,4.8l1.5,1.7c4.5-12.2,11.2-19.3,17-32.1C112.8,119.2,113.6,93.3,113.7,86z"/><path class="st2" d="M118.8,127.4c-1.9-0.5-7,21.9-9.8,23.3c-2.1,1.1-10.3,14.5-14,20.7l1.7,2c0,0.1,0.1,0.1,0.1,0.2    c0.1,0.4,0.9,3.8,1.9,8.5c3.7-8.6,14.2-31.5,19.2-30c4.4,1.4,7.6,6.9,9,9.8c0.7-2.9,1.3-5.7,1.8-8.1c-0.8-2.8-2.4-5.6-3.8-7.3    C123,144.2,120.7,127.9,118.8,127.4z"/><path class="st2" d="M116,170.3c-2.2,0.7-12.1,12.7-16.1,17.6c0.4,1.7,0.7,3.6,1.1,5.4c3.7-4.7,14.2-16.7,21.6-11.6    c0-0.9,0.1-1.7,0.1-2.5c0-0.1,0.5-2,1.2-4.9C121.7,172.4,117.9,169.7,116,170.3z"/><path class="st2" d="M100.6,76.3l-3.9-3.9C95.1,77,91.2,88.6,89,99.9c-2,10.3-11.7,28.1-17.2,37.5c1.3,2.5,2.6,4.8,3.9,7.2    c4.7-9.5,13.4-27.3,16.1-33c3.2-6.9,7.9-29.1,9-35C100.7,76.5,100.7,76.4,100.6,76.3z"/><path class="st2" d="M102.3,199.6c0.4,2.1,0.7,4.1,1,6c5.5-3.9,14.3-3.8,18.9-3.4c0-2.1,0-4.2,0.1-6.3    C113.5,193.3,105.8,197.2,102.3,199.6z"/><path class="st2" d="M89.8,65c-0.7-2.2-2.4-4.2-4.5-4.9c-2,6.2-11,33.7-16.4,40.8c-2.9,3.8-6.3,7.5-9,10.2c1,2.7,2.1,5.3,3.2,7.9    c3.8-3.9,9.8-10.5,12.8-17.2C79.9,92.9,87.8,70.9,89.8,65z"/><path class="st2" d="M78.5,52.9c-0.1-2.1-1.3-3.3-3.5-3.5c-2.8,6.3-9.7,21.6-12.2,25.3c-2.2,3.3-8.4,13.8-11.8,19.5    c0.9,0.1,2.5,0.7,3.9,3.2c3.7-5.3,10.7-16.1,14.8-25.3C73.5,63.4,76.8,56.4,78.5,52.9z"/><path class="st2" d="M69.4,45.4l0.4-1c-0.6-1.8-1.5-2.2-2.4-3c-0.2-0.1-0.8,0.3-1,0.2l-3.3,9.1l1.3-10.4c-1-0.5-2-1-3.1-1.2    c-0.3,8.9-5.7,38.7-5.7,38.7s2.8-6.5,5-12.4C62.8,59.4,69.4,45.4,69.4,45.4z"/><path class="st2" d="M45.4,61c0,0,2.5-5,2.2-10.6c-0.2-3.5-0.6-7.2-0.9-9.5c-1.2,0.7-2.4,1.4-3.5,2.2C45.6,48.4,45.4,61,45.4,61z"/><path class="st2" d="M38,59.4c0,0,0,0,1.2-1.2c0.9-0.9,1.8-9.4,2.2-14.1c-1.1,0.7-2.2,1.4-3.3,2.1l-2.7,15.7l2.5-1.2V59.4z"/><path class="st2" d="M29.9,64.7c1.9-1.6,4.1-11.4,5.1-16.3c-1.7,1.2-3.1,2.3-4,3.1c-1.1,3.2-2.6,7.3-3.8,10.3    c-2.5,5.9-14.6,19.3-14.6,19.3h4.4C16.8,81.2,27.4,66.9,29.9,64.7z"/><path class="st2" d="M47.9,74.4C47,77.8,37,80.9,37,80.9c-7.5-1.2-15.2,3.7-15.2,3.7s11.5-4,14.9,0.6c2.7,3.6,1.7,10.6,1.2,13.6    c1.9-0.4,3.8-0.9,5.7-1.5c0-3-0.3-9-2.3-12.9l6.6-4.8c6.2-6.8-0.9-16.5-0.9-16.5S48.8,70.9,47.9,74.4z"/><path class="st2" d="M23.3,90.8c5.4,2.3,6.6,6.6,6.8,9.5c0.8-0.2,1.6-0.3,2.5-0.4c0,0,0.1,0,0.1,0c-0.3-2.5-0.7-5.4-0.7-6.2    C32,92.1,23.3,90.8,23.3,90.8z"/><path class="st2" d="M122.2,215.9c0-1.5,0-2.9,0-4.4c-1.5-0.2-3.5-0.4-5.8-0.5c-4.2-0.2-9.3,0.7-12.1,1.3c0.1,0.7,0.1,1.3,0.1,1.8    c0,1.2,0.1,2.4,0.2,3.6C110.7,215.1,117.8,215.4,122.2,215.9z"/><path class="st2" d="M122.1,225.3c-2-0.2-4.9-0.4-7.6-0.4c-2.9,0-6.4-0.4-8.7-0.6c0.3,1.2,0.6,2.5,0.9,3.7    c0.1,0.4,0.2,0.8,0.3,1.2l15.1-1C122.1,227.3,122.1,226.3,122.1,225.3z"/><path class="st2" d="M115.1,236.5c-1.1-0.2-4.1,0.3-6.3,0.7c0.2,1.4,0.5,3,0.8,4.7c3.2-1.6,9.4-2.9,12.7-3.5    c-0.1-0.7-0.1-1.5-0.2-2.3C119.6,236.4,116.2,236.6,115.1,236.5z"/><path class="st2" d="M272.1,202.9c-4.1-0.6-10.4-1.6-12.6-1.6c-2.6,0-9.8,1.5-13,2.1c0.7,1.2,1.4,2.4,2.2,3.6    c0.4,0.6,0.8,1.3,1.2,1.9c2.6-1.1,6.2-2.6,8.8-3.3c2.9-0.8,9.2,1.5,13.2,3.1c0.1-0.8,0.2-1.5,0.3-2.2    C272.3,205.4,272.3,204.1,272.1,202.9z"/><path class="st2" d="M252.9,217.2c0.3,1.2,0.6,2.5,0.8,3.7c4.7-1.9,12.5-0.4,16.3,0.6c0.2-1.5,0.4-2.9,0.6-4.3    c-2.9-0.5-7.2-1.3-10.2-1.3C257.8,215.9,255,216.6,252.9,217.2z"/><path class="st2" d="M254.4,228.1c0.1,1.7,0.1,3.4,0.1,5.1l13.8,0.4c0.2-1.8,0.5-3.5,0.7-5.3c-0.9-0.1-1.9-0.2-3-0.2    C263,228.1,257.9,228.1,254.4,228.1z"/><path class="st2" d="M254,242c-0.1,1.5-0.3,3-0.5,4.4c2.9-0.9,9.7-1,13.2-1c0.1-0.8,0.2-1.7,0.4-2.7c-1.4-0.3-2.8-0.6-3.8-0.7    C261.2,241.8,256.4,241.9,254,242z"/></g><path class="st2" d="M61.4,39.1l-0.9-15.3c0,0,2.6-0.2,5.1,0.2c2.8,0.4,4.3,1.8,4.3,1.8l-5.4,14.6L61.4,39.1z"/><path class="st2" d="M66.5,41.6l3.4-15.7c0,0,2.3,1.3,5.3,3.5c1.2,0.9,4.6,4,4.6,4l-10,11.1L66.5,41.6z"/><path class="st2" d="M39,64.1c-3.9,0-5.1,3.1-5.4,4c4.7,4,9.9,0.4,11.1-0.5C44.3,66.7,42.8,64.1,39,64.1z"/><path class="st5" d="M55.9,30.4c0,0-1.6-7.2-2.9-7.6c-1.2-0.3-1.8,2.6-2.3,7.8c-0.5,5.2,3.5,14.7,3.5,14.7S56.9,38,55.9,30.4z"/></g></svg>