<?xml version="1.0" ?><!DOCTYPE svg  PUBLIC '-//W3C//DTD SVG 1.1//EN'  'http://www.w3.org/Graphics/SVG/1.1/DTD/svg11.dtd'><svg enable-background="new 0 0 50 50" height="50px" version="1.1" viewBox="0 0 50 50" width="50px" xml:space="preserve" xmlns="http://www.w3.org/2000/svg" xmlns:xlink="http://www.w3.org/1999/xlink"><g id="Layer_48"/><g id="Layer_47"/><g id="Layer_46"/><g id="Layer_45"/><g id="Layer_44"/><g id="Layer_43"/><g id="Layer_42"/><g id="Layer_41"/><g id="Layer_40"/><g id="Layer_39"/><g id="Layer_38"/><g id="Layer_37"/><g id="Layer_36"/><g id="Layer_35"/><g id="Layer_34"/><g id="Layer_33"/><g id="Layer_32"/><g id="Layer_31"/><g id="Layer_30"/><g id="Layer_29"/><g id="Layer_28"/><g id="Layer_27"/><g id="Layer_26"/><g id="Layer_25"/><g id="Layer_24"/><g id="Layer_23"/><g id="Layer_22"/><g id="Layer_21"><g><path clip-rule="evenodd" d="M30.66,19.225c-1.914,0.51-4.021-0.574-5.854-1.21    c-1.253-0.434-3.546-0.25-4.92-0.25c-7.896,0-14.362,6.416-14.456,14.291c-0.006,0.634-0.432,1.166-1.052,1.309    c-2.055,0.479-3.483,2.338-3.483,4.545c0,2.34,1.796,4.28,4.078,4.51c0.812,0.084,2.206,1.284,2.823,1.902    c0.531,0.527,1.174,0.794,1.921,0.794h19.47c0.499,0,0.909-0.41,0.909-0.909v-2.413c0-0.499-0.41-0.909-0.909-0.909h-8.05    c-0.815,0-0.897-1.539-0.086-1.557c3.518-0.079,6.061-1.327,7.973-4.18c0.3-0.446,1.001-0.336,1.343,0.077l7.766,9.386    c0.269,0.326,0.634,0.505,1.058,0.505h3.004c0.379,0,0.593-0.436,0.361-0.736l-5.697-7.802c-0.163-0.224-0.108-0.539,0.132-0.675    l1.048-0.605c6.215-3.589,1.79-10.625,3.636-9.636c2.403,1.284,5.462,0.303,6.846-1.612c2.142-2.961-2.081-7.708-4.853-8.784    l-3.679-1.425c-3.19-2.792-7.409-8.956-11.632-8.956h-6.139c0.956,1.323,2.044,2.25,3.355,2.515h-6.4    c1.644,6.964,5.566,10.517,13.631,10.368c0.471-0.01,0.463,0.762,0.008,0.885L30.66,19.225z" fill="#FAF0C7" fill-rule="evenodd"/><path clip-rule="evenodd" d="M18.982,7.717c5.422,2.34,10.284,5.211,13.822,10.05    c0.165,0.224-4.196,1.716-4.247,1.963c4.835,4.207-3.017,10.239,8.434,16.172c4.562-1.588,5.057-6.135,4.201-9.781    c-0.465-1.629,6.065,2.845,7.873-3.386c1.003-3.461-1.451-4.24-2.905-5.827l-6.171-3.07c-3.19-2.79-7.409-8.956-11.632-8.956    h-6.139c0.956,1.323,4.689,2.452,3.355,2.515L18.982,7.717z M48.012,20.832c-1.664,0.383-0.891,0.988-0.557,1.777    c0.371,0.876-0.715,1.707,0.008,1.707c0.725,0,1.119-0.167,1.514-1.61C49.373,21.265,49.563,20.475,48.012,20.832z M29.996,34.947    c-7.167-6.514-8.548-5.591-8.825-17.206c-0.469,0.011-0.911,0.025-1.285,0.025c-7.896,0-14.362,6.414-14.456,14.291    c2.378,5.214,1.857,8.411-0.457,10.364c0.812,0.082,2.206,1.282,2.823,1.9c0.531,0.528,1.174,0.795,1.921,0.795h10.303    c1.254-1.988,3.512-3.259,6.192-4.232h-5.075c-0.683,0-0.852-1.08-0.41-1.441c0.086-0.07,0.194-0.112,0.324-0.116    c3.518-0.079,6.061-1.325,7.973-4.18C29.235,34.831,29.651,34.794,29.996,34.947z" fill="#D18738" fill-rule="evenodd"/><path d="M42.193,46.012h-3.002c-0.687,0-1.309-0.294-1.751-0.83l-7.763-9.386    c-0.002-0.002-0.004-0.006-0.006-0.006c-1.6,2.319-3.642,3.685-6.32,4.201h5.835c0.994,0,1.803,0.809,1.803,1.804v2.412    c0,0.997-0.809,1.805-1.803,1.805H9.718c-0.98,0-1.863-0.367-2.556-1.058c-0.897-0.898-1.943-1.606-2.279-1.641    C2.1,43.029,0,40.708,0,37.91c0-2.619,1.718-4.845,4.176-5.418c0.216-0.049,0.357-0.224,0.359-0.444    c0.1-8.371,6.987-15.179,15.352-15.179c0.287,0,0.617-0.008,0.968-0.018c1.264-0.029,2.801-0.069,3.924,0.22    c-3.273-1.714-5.381-4.83-6.477-9.465c-0.061-0.268,0-0.548,0.171-0.763c0.17-0.214,0.429-0.34,0.702-0.34h3.224    c-0.308-0.322-0.61-0.687-0.905-1.094c-0.196-0.273-0.225-0.634-0.071-0.934c0.153-0.297,0.461-0.487,0.797-0.487h6.139    c3.473,0,6.674,3.418,9.501,6.435c0.928,0.99,1.806,1.928,2.603,2.641l3.528,1.366c2.146,0.833,4.982,3.552,5.782,6.269    c0.432,1.463,0.251,2.803-0.523,3.876c-1.382,1.91-4.331,3.174-7.062,2.277c0.318,2.153,0.93,6.551-3.699,9.223l-0.626,0.358    l5.418,7.419C43.95,44.724,43.304,46.012,42.193,46.012 M44.373,18.53c0.607,0,1.101,0.494,1.101,1.101    c0,0.607-0.494,1.1-1.101,1.1c-0.607,0-1.101-0.493-1.101-1.1C43.272,19.024,43.765,18.53,44.373,18.53z M31.057,34.654    l7.764,9.384c0.104,0.126,0.218,0.181,0.371,0.181h2.138l-5.195-7.113c-0.231-0.316-0.316-0.714-0.236-1.091    c0.079-0.373,0.311-0.695,0.642-0.889l1.052-0.606c3.61-2.083,3.113-5.446,2.817-7.458c-0.153-1.023-0.261-1.758,0.364-2.199    c0.255-0.184,0.699-0.326,1.323,0.006c2.038,1.091,4.594,0.184,5.7-1.345c0.444-0.615,0.53-1.396,0.259-2.319    c-0.626-2.117-3.004-4.441-4.712-5.108l-3.679-1.423c-0.096-0.036-0.186-0.094-0.266-0.161c-0.893-0.782-1.842-1.795-2.847-2.868    c-2.578-2.751-5.499-5.867-8.195-5.867h-4.111c0.465,0.371,0.937,0.611,1.425,0.726c3.657,0.051,6.73,3.01,9.704,5.874    c0.939,0.905,1.871,1.801,2.804,2.584c0.379,0.318,0.429,0.883,0.111,1.262c-0.318,0.377-0.883,0.424-1.262,0.112    c-0.962-0.809-1.924-1.735-2.894-2.668c-2.742-2.637-5.573-5.364-8.542-5.375c-1.753,0-3.506,0-5.259,0    c1.775,6.126,5.591,8.744,12.455,8.576c0.654-0.024,1.156,0.434,1.25,1.086c0.1,0.711-0.327,1.38-0.995,1.56L30.89,20.09    c-1.841,0.487-3.71-0.224-5.359-0.854c-0.346-0.13-0.687-0.26-1.017-0.375c-0.834-0.29-2.44-0.248-3.614-0.218    c-0.369,0.01-0.713,0.018-1.015,0.018c-7.389,0-13.472,6.012-13.56,13.405c-0.012,1.044-0.73,1.937-1.745,2.171    c-1.642,0.381-2.79,1.891-2.79,3.673c0,1.844,1.437,3.434,3.274,3.619c1.278,0.128,3.026,1.818,3.365,2.159    c0.359,0.357,0.78,0.532,1.288,0.532h19.469l0.012-2.425l-8.063-0.013c-0.873,0-1.538-0.734-1.549-1.706    c-0.003-0.249,0.038-0.481,0.117-0.687c0.24-1.361,0.471-4.416-1.932-5.712c-0.434-0.234-0.597-0.779-0.361-1.215    c0.234-0.432,0.779-0.599,1.213-0.361c2.095,1.13,3.167,3.433,2.998,6.304c2.989-0.194,5.059-1.37,6.659-3.756    C28.933,33.667,30.359,33.808,31.057,34.654z" fill="#3D3D3D"/></g></g><g id="Layer_20"/><g id="Layer_19"/><g id="Layer_18"/><g id="Layer_17"/><g id="Layer_16"/><g id="Layer_15"/><g id="Layer_14"/><g id="Layer_13"/><g id="Layer_12"/><g id="Layer_11"/><g id="Layer_10"/><g id="Layer_9"/><g id="Layer_8"/><g id="Layer_7"/><g id="Layer_6"/><g id="Layer_5"/><g id="Layer_4"/><g id="Layer_3"/><g id="Layer_2"/></svg>