<?xml version="1.0" ?><svg enable-background="new 0 0 60 60" height="60px" id="Layer_1" version="1.1" viewBox="0 0 60 60" width="60px" xml:space="preserve" xmlns="http://www.w3.org/2000/svg" xmlns:xlink="http://www.w3.org/1999/xlink"><path d="M28.5073242,17.954073c-0.0185547,0-0.0366211-0.0009766-0.0551758-0.0019531  c-0.4135742-0.0302734-0.7236328-0.3896484-0.6938477-0.8027344c0.3461914-4.7597666-3.1601563-6.1757822-4.2431641-6.4970713  c-0.3974609-0.1171875-0.6240234-0.5341797-0.5063477-0.9316406c0.1181641-0.3974609,0.5385742-0.6259766,0.9321289-0.5058594  c2.7915039,0.8261719,5.6533203,3.3730469,5.3134766,8.0439463C29.2255859,17.6532917,28.8964844,17.954073,28.5073242,17.954073z" fill="#EF4136"/><path d="M31.1669922,18.0849323c-0.0112305,0-0.0229492,0-0.034668-0.0009766  c-0.4135742-0.0185547-0.7338867-0.3691406-0.7148438-0.7832031c0.2080078-4.5664072,2.4980469-7.7109385,5.9765625-8.2080088  c0.4038086-0.0673828,0.7895508,0.2255859,0.8486328,0.6357422c0.0585938,0.4101563-0.2265625,0.7900391-0.6367188,0.8486328  c-4.0917969,0.5849609-4.6245117,5.3466797-4.6904297,6.7919931C31.8974609,17.7714558,31.5654297,18.0849323,31.1669922,18.0849323  z" fill="#EF4136"/><path d="M28.7420654,33.1613846c1.5900517,1.9301033,0.1590042,10.6155777-5.0881691,17.1779327  c-2.9605465,3.7025986-9.3938169,4.2113152-10.9713621-0.1930084c-3.1801052-8.8784828,0.1590052-14.6688004,5.8831949-15.8268623  C21.0947266,33.8078041,27.5259075,31.6851368,28.7420654,33.1613846z" fill="#8F5FC2"/><path d="M30.173111,33.354393c-1.5900517,1.9301071-0.1161995,10.0365486,5.1309738,16.5989037  c2.9605446,3.7025986,9.3938179,4.2113152,10.9713631-0.1930084c3.1801033-8.8784828-0.1590042-14.6688004-5.883194-15.8268623  C37.8632545,33.4217834,31.3892689,31.8781471,30.173111,33.354393z" fill="#8F5FC2"/><path d="M38.1602058,46.4051323c-0.57341-1.632988,0.5657043-3.1406403,2.1271248-3.5272827  c1.5614204-0.3866463,2.9871941,0.6119232,3.5272865,2.1271248c0.553688,1.5533485-0.5835533,3.0746078-2.1271248,3.5272827  C39.8356819,49.0753326,38.6931458,47.9228668,38.1602058,46.4051323z" fill="#FFFFFF"/><path d="M17.4786625,42.0854607c1.5466156-0.7768135,3.1871243,0.1609077,3.7695732,1.6603394  c0.582449,1.4994278-0.2263069,3.0408134-1.6603374,3.7695694c-1.4701366,0.7471085-3.1239033-0.187027-3.7695732-1.6603355  C15.0437202,44.0875168,16.0412102,42.8074455,17.4786625,42.0854607z" fill="#FFFFFF"/><path d="M28.5830593,30.2662258c-0.3180103,6.3693485-15.0989237,6.35145-21.1476974,3.0881672  c-2.8620949-1.5440826-7.4732471-14.4757862-6.2012053-23.9333c0.7745795-5.7589283,11.9201136-2.32162,17.4905777,3.4741888  C24.289917,18.6855965,28.9305439,23.3065338,28.5830593,30.2662258z" fill="#EF4136"/><path d="M30.8091335,30.6522484c0.3180103,6.3693466,14.8237171,6.1584358,20.8724918,2.8951569  c2.8620949-1.5440826,7.4732475-14.4757881,6.2012062-23.9333038c-0.7745819-5.7589283-11.9201164-2.32162-17.4905777,3.4741888  C34.8270683,18.8786068,30.461647,23.6925545,30.8091335,30.6522484z" fill="#EF4136"/><path d="M31.501112,29.036356c0.0560532,5.3193913-1.0504665,8.9787846-2.2153721,8.9650288  c-1.1649055-0.013752-1.9455318-4.0731049-2.0031242-9.0148354c-0.0590439-5.0661526,1.0490265-8.7676849,2.2153721-8.9650288  C30.8972397,19.7847672,31.4490147,24.0924129,31.501112,29.036356z" fill="#EF4136"/><path d="M15.6379986,20.2789001c-0.3474083,2.4943733-2.8260708,3.6845913-5.1033325,3.1433601  s-3.4553103-2.7835178-3.1433611-5.1033325c0.3198032-2.3782225,2.8051195-3.587285,5.1033325-3.1433611  C15.2517824,15.7081394,15.960887,17.9605827,15.6379986,20.2789001z" fill="#FFFFFF"/><path d="M48.4020157,23.5843372c-2.6113358,0.4212952-4.5713921-1.6995754-4.7310829-4.1527882  s1.7276421-4.3280802,4.1527901-4.731082c2.4862099-0.4131489,4.4672394,1.7085829,4.7310829,4.1527891  C52.8713379,21.7855473,50.8290367,23.1927795,48.4020157,23.5843372z" fill="#FFFFFF"/><path d="M32.6707611,19.9466419c-0.2532997,1.8186684-2.0605125,2.6864662-3.7208824,2.291851  s-2.5192947-2.0294857-2.291851-3.7208805c0.2331715-1.7339821,2.0452366-2.6155205,3.7208824-2.291851  C32.3891678,16.6140633,32.9061813,18.2563381,32.6707611,19.9466419z" fill="#EF4136"/><path d="M25.1913319,10.2669048c-0.0568943,0.9544725-0.9594364,1.4790773-1.837532,1.3423319  c-0.8780956-0.1367464-1.3910255-0.9501886-1.3423328-1.837532c0.049921-0.9096861,0.9544182-1.4416218,1.837532-1.3423319  C24.9084644,8.5484905,25.2442093,9.3797998,25.1913319,10.2669048z" fill="#EF4136"/><path d="M38.2300873,10.2700071c-0.131897,0.9470253-1.0729599,1.3989086-1.9375534,1.1934223  c-0.8645973-0.2054863-1.3118591-1.0568027-1.1934242-1.9375544c0.121418-0.9029274,1.0650063-1.3619661,1.9375572-1.1934233  C38.0834541,8.5346508,38.3526764,9.3898239,38.2300873,10.2700071z" fill="#EF4136"/><path d="M38.9586716,26.4568863c1.3277092-0.355423,2.4527397,0.63764,2.6645927,1.897398  c0.2118568,1.2597599-0.6649704,2.3284397-1.8973999,2.6645927c-1.2634544,0.3446178-2.3993683-0.6477852-2.6645927-1.897398  C36.7430878,27.6223297,37.7246742,26.7872238,38.9586716,26.4568863z" fill="#FBFFA1"/><path d="M17.2131195,29.0095844c-0.2812061-1.2432404,0.6798363-2.249752,1.8549004-2.4003811  c1.1750641-0.150631,2.1335754,0.7006569,2.4003811,1.8549023c0.2735233,1.1833038-0.6873035,2.1999283-1.8549023,2.4003792  C18.2127438,31.1049652,17.4744759,30.1650734,17.2131195,29.0095844z" fill="#FBFFA1"/></svg>