<?xml version="1.0" ?><!DOCTYPE svg  PUBLIC '-//W3C//DTD SVG 1.1//EN'  'http://www.w3.org/Graphics/SVG/1.1/DTD/svg11.dtd'><svg enable-background="new 0 0 512 512" height="512px" id="Layer_1" version="1.1" viewBox="0 0 512 512" width="512px" xml:space="preserve" xmlns="http://www.w3.org/2000/svg" xmlns:xlink="http://www.w3.org/1999/xlink"><g><path clip-rule="evenodd" d="M151.922,512h184.112C433.087,512,512,433.087,512,336.034   c0-32.199-13.607-96.138-31.746-96.138c-9.983,0-16.779,32.191-64.399,32.191h-112.02c-31.747,0-47.604-12.232-47.604-22.669   c0-4.078,0.453-10.429,8.608-16.326c33.56-22.67,55.322-61.22,55.322-105.208C320.161,57.143,262.574,0,192.284,0   C121.534,0,63.938,57.143,63.938,127.885c0,31.294,11.343,59.408,29.481,81.632c1.813,2.719,2.719,4.531,2.719,6.344   c0,3.179-5.438,4.991-11.788,8.163C34.465,248.966,0,300.21,0,360.079C0,443.977,68.024,512,151.922,512L151.922,512z" fill="#EABD56" fill-rule="evenodd"/><path clip-rule="evenodd" d="M144.211,127.885c17.686,0,31.747-14.061,31.747-31.746   s-14.061-32.2-31.747-32.2s-32.2,14.515-32.2,32.2S126.526,127.885,144.211,127.885L144.211,127.885z" fill="#2F4A59" fill-rule="evenodd"/><path clip-rule="evenodd" d="M144.211,112.012c8.616,0,15.874-7.257,15.874-15.873   c0-9.069-7.257-15.874-15.874-15.874c-9.069,0-16.327,6.804-16.327,15.874C127.885,104.755,135.142,112.012,144.211,112.012   L144.211,112.012z" fill="#0F2635" fill-rule="evenodd"/><path clip-rule="evenodd" d="M384.107,384.107c-0.453,52.604-43.073,95.693-96.146,95.693   h-143.75c-9.069,0-16.327-7.265-16.327-15.873c0-9.078,7.257-16.327,16.327-16.327l143.75,0.453   c63.946,0,81.632-63.946,63.946-112.02c-2.266-6.343-3.172-15.873,0-15.873C367.781,320.161,384.107,355.079,384.107,384.107   L384.107,384.107z" fill="#CFA63C" fill-rule="evenodd"/><path clip-rule="evenodd" d="M16.327,83.444c13.6,12.694,30.833,24.49,48.518,28.567   c12.249,2.719,14.514,7.71,14.061,15.873C78,158.726,83.444,181.848,92.061,208.15C34.918,192.737,0,144.211,0,96.139   C0,83.444,2.719,71.649,16.327,83.444L16.327,83.444z" fill="#C25C31" fill-rule="evenodd"/><path clip-rule="evenodd" d="M0,96.139c0,48.073,34.918,96.599,92.061,112.011   c-3.632-11.334-6.804-21.763-9.069-32.645C45.347,171.873,0,135.595,0,96.139L0,96.139z" fill="#A14431" fill-rule="evenodd"/></g></svg>