<?xml version="1.0" ?><svg id="Layer_1" style="enable-background:new 0 0 48 48;" version="1.1" viewBox="0 0 48 48" xml:space="preserve" xmlns="http://www.w3.org/2000/svg" xmlns:xlink="http://www.w3.org/1999/xlink"><style type="text/css">
	.st0{fill:#98D862;}
	.st1{fill:#88C057;}
	.st2{fill:#515151;}
	.st3{fill:#A57B51;}
	.st4{fill:#E7B95D;}
	.st5{fill:#FFCC66;}
	.st6{fill:#638B3F;}
	.st7{fill:#ED7161;}
	.st8{fill:#D56455;}
	.st9{fill:#BF8E5F;}
	.st10{fill:#FFFFFF;}
	.st11{fill:#CCCCCC;}
	.st12{fill:#E6E6E6;}
	.st13{fill:#54BBFF;}
	.st14{fill:#9A7BAA;}
	.st15{fill:#81688E;}
	.st16{fill:#8E729E;}
	.st17{fill:#6F5B7C;}
	.st18{fill:#333333;}
	.st19{fill:#E0AE55;}
	.st20{fill:#A2E667;}
	.st21{fill:#F27970;}
	.st22{fill:#B7845A;}
	.st23{fill:#99704A;}
	.st24{fill:#666666;}
	.st25{fill:#48A0DC;}
	.st26{fill:#B4FE73;}
	.st27{fill:#F2F2F2;}
	.st28{fill:#FFC257;}
	.st29{fill:#595959;}
	.st30{fill:#A387B2;}
	.st31{fill:#EDEDED;}
	.st32{fill:#E2645A;}
	.st33{fill:#AF7E54;}
	.st34{fill:#231F20;}
	.st35{fill:#494949;}
	.st36{fill:#1FADFC;}
	.st37{fill:#D6A14D;}
	.st38{fill:#DDAD58;}
	.st39{fill:#FFC45C;}
	.st40{fill:#B7855C;}
	.st41{fill:#D8D8D8;}
	.st42{fill:#FCC056;}
	.st43{fill:#FFBE57;}
	.st44{fill:#ED7B72;}
	.st45{fill:#606060;}
	.st46{fill:#92D3FF;}
	.st47{fill:#B3B3B3;}
	.st48{fill:none;}
	.st49{opacity:0.2;fill:#FFFFFF;}
</style><g><path class="st12" d="M42.9,39.3c-0.8,0.8-1.7,1.3-2.8,1.5c-1.9,0.4-3.9-0.2-5.2-1.5l-9.1-9.1c-0.2-0.2-0.2-0.4,0-0.6   c0.2-0.2,0.4-0.2,0.6,0l9.1,9.1c1.2,1.2,2.9,1.7,4.5,1.3c1.6-0.3,2.9-1.5,3.5-3c1.1-2.9,0.4-6.2-2.1-9.9c-3.1-4.7-4.3-8.5-3.5-11.6   c0.6-2.5,2.4-3.4,2.4-3.4c0.2-0.1,0.4,0,0.5,0.2c0.1,0.2,0,0.4-0.2,0.5c-0.1,0-1.5,0.8-2,2.9c-0.5,1.9-0.3,5.4,3.4,10.9   c2.7,4,3.4,7.5,2.2,10.6C43.9,38.1,43.5,38.8,42.9,39.3z"/><polygon class="st7" points="0,26.7 32,35.8 11.4,15.3  "/><polygon class="st14" points="0.7,4.6 0,26.7 11.4,15.3  "/><polygon class="st13" points="32,35.8 32,35.8 22.8,3.9 11.4,15.3  "/><polygon class="st5" points="0.7,4.6 11.4,15.3 22.8,3.9 0.7,4.6  "/><path class="st14" d="M37.5,36.9c-0.1,0.1-0.2,0.2-0.4,0.3L35.6,38l0,0.2c0,0.3-0.1,0.7-0.4,0.9c-0.2,0.2-0.6,0.4-0.9,0.4l-0.2,0   L33.3,41c-0.1,0.1-0.2,0.3-0.3,0.4c-0.6,0.6-1.5,0.6-2,0c-0.6-0.6-0.6-1.5,0-2c0.1-0.1,0.2-0.2,0.4-0.3l1.5-0.8l0-0.2   c0-0.3,0.1-0.7,0.4-0.9c0.2-0.2,0.6-0.4,0.9-0.4l0.2,0l0.8-1.5c0.1-0.1,0.2-0.3,0.3-0.4c0.6-0.6,1.5-0.6,2,0c0.3,0.3,0.4,0.6,0.4,1   C37.9,36.3,37.7,36.7,37.5,36.9L37.5,36.9z"/><path class="st5" d="M47.6,30.6c-0.3,0.3-0.6,0.4-1,0.4l-1.7,0.1l-0.1,0.1c-0.1,0.1-0.1,0.2-0.2,0.3c-0.1,0.1-0.3,0.2-0.5,0.3   c-0.3,0.1-0.7,0.1-1,0l-0.1-0.1l-1.4,1c-0.4,0.3-0.8,0.4-1.3,0.2c-0.4-0.1-0.8-0.5-0.9-0.9c-0.2-0.5-0.1-1.1,0.3-1.5   c0.3-0.3,0.6-0.4,1-0.4l1.7-0.1l0.1-0.1c0.1-0.1,0.1-0.2,0.2-0.3c0.1-0.1,0.3-0.2,0.5-0.3c0.3-0.1,0.7-0.1,1,0l0.1,0.1l1.4-1   c0.4-0.3,0.8-0.4,1.3-0.2c0.4,0.1,0.8,0.5,0.9,0.9C48.1,29.6,48,30.2,47.6,30.6L47.6,30.6z"/><path class="st13" d="M44.2,24c-0.2,0.2-0.5,0.4-0.9,0.4l-1.7,0.1l-0.1,0.1c-0.1,0.2-0.2,0.3-0.3,0.4c-0.1,0.1-0.3,0.2-0.4,0.3   c-0.3,0.1-0.7,0.1-1,0l-0.1-0.1l-1.3,1.1c-0.4,0.3-0.8,0.4-1.3,0.3c-0.4-0.1-0.8-0.4-1-0.8c-0.2-0.5-0.1-1.2,0.3-1.6   c0.2-0.2,0.5-0.4,0.9-0.4l1.7-0.1l0.1-0.1c0.1-0.2,0.2-0.3,0.3-0.4c0.1-0.1,0.3-0.2,0.4-0.3c0.3-0.1,0.7-0.1,1,0L41,23l1.3-1.1   c0.4-0.3,0.8-0.4,1.3-0.3c0.4,0.1,0.8,0.4,1,0.8C44.8,23,44.6,23.6,44.2,24L44.2,24z"/><path class="st7" d="M42.3,43.7c-0.3,0.3-0.6,0.4-1,0.4c-0.5,0-0.9-0.2-1.1-0.6c-0.3-0.4-0.3-0.8-0.2-1.3l0.6-1.6l-0.1-0.1   c-0.2-0.3-0.4-0.6-0.3-0.9c0-0.3,0.1-0.7,0.4-0.9l0.1-0.1L40,36.9c-0.1-0.5,0-1.1,0.4-1.4c0.3-0.3,0.6-0.4,1-0.4   c0.5,0,0.9,0.2,1.1,0.6c0.3,0.4,0.3,0.8,0.2,1.3l-0.6,1.6l0.1,0.1c0.2,0.3,0.4,0.6,0.3,0.9c0,0.3-0.1,0.7-0.4,0.9l-0.1,0.1l0.5,1.7   C42.8,42.8,42.7,43.3,42.3,43.7C42.3,43.7,42.3,43.7,42.3,43.7z"/></g></svg>