<?xml version="1.0" ?><svg style="enable-background:new 0 0 256 256;" version="1.1" viewBox="0 0 256 256" xml:space="preserve" xmlns="http://www.w3.org/2000/svg" xmlns:xlink="http://www.w3.org/1999/xlink"><style type="text/css">
	.st0{fill:#F9BD55;}
	.st1{fill:#F4DBCE;}
	.st2{fill:#52565B;}
	.st3{fill:#FD605B;}
	.st4{fill:#F98080;}
	.st5{fill:#F9E63A;}
	.st6{fill:#039BE6;}
	.st7{fill:none;stroke:#000000;stroke-width:5;stroke-linecap:round;stroke-linejoin:round;stroke-miterlimit:10;}
	.st8{fill:#7D3D1A;}
	.st9{fill:#EAA250;}
	.st10{fill:#DD7F57;}
	.st11{fill:#FFC097;}
	.st12{fill:#F49667;}
	.st13{fill:#F89422;}
	.st14{fill:#E3E4E5;}
	.st15{fill:#6E7175;}
	.st16{fill:#46BAF9;}
	.st17{fill:#D9F3FF;}
	.st18{fill:#828487;}
	.st19{fill:#A8AEB2;}
	.st20{fill:#C9CDD1;}
	.st21{fill:#8CD8F9;}
	.st22{fill:#1AA7E5;}
	.st23{fill:#ACE7FC;}
	.st24{fill:#FFFFFF;}
	.st25{fill:#9E512B;}
	.st26{fill:#7ED5FC;}
	.st27{fill:#7CCC4E;}
	.st28{fill:#3AA03A;}
	.st29{fill:#FCB1B1;}
	.st30{fill:#F76E23;}
	.st31{fill:#C16A44;}
	.st32{fill:#B796EA;}
</style><g id="Layer_1"/><g id="Layer_2"/><g id="Layer_3"/><g id="Layer_4"/><g id="Layer_5"/><g id="Layer_6"/><g id="Layer_7"/><g id="Layer_8"/><g id="Layer_9"/><g id="Layer_10"/><g id="Layer_11"/><g id="Layer_12"/><g id="Layer_13"/><g id="Layer_14"/><g id="Layer_15"/><g id="Layer_16"/><g id="Layer_17"><g><path class="st16" d="M93.736,72.081c-7.978,2.315-12.993,11.797-15.045,16.518c-0.304,0.7,0.484,1.378,1.123,0.959    c4.277-2.806,11.193-4.915,17.122-6.846c3.938-1.282,5.132-6.268,2.203-9.197l0,0C97.727,72.103,95.655,71.524,93.736,72.081z"/><path class="st16" d="M62.822,67.904c5.69,4.035,7.25,12.786,7.677,17.319c0.072,0.76-0.883,1.148-1.366,0.557    c-2.786-3.407-7.743-6.948-11.976-10.091c-2.883-2.141-2.489-6.568,0.727-8.168h0C59.474,66.73,61.374,66.877,62.822,67.904z"/><path class="st16" d="M80.445,54.243c-4.178,4.562-3.894,12.44-3.417,16.449c0.08,0.672,0.98,0.83,1.288,0.227    c1.778-3.474,5.414-7.471,8.496-10.987c2.099-2.395,0.929-6.159-2.157-6.945l0,0C83.128,52.6,81.509,53.082,80.445,54.243z"/><path class="st16" d="M253.494,27.03c0.027-1.854-2.012-2.95-3.602-1.995c-1.59,0.955-4.003,1.726-7.65,1.726    c-9.582,0-19.164,5.323-23.423,13.841c0,0-6.388-11.711-20.229-11.711c-5.019,0-8.218-0.7-10.256-1.592    c-1.729-0.756-3.623,0.664-3.289,2.521c1.284,7.13,6.393,18.701,25.257,25.688c0,0-1.288,17.542-13.077,34.725    c-7.061-8.573-9.099-24.181-12.475-12.367c-1.952,6.83-1.667,14.555-0.787,20.92c0.484,3.496-1.065,6.95-3.939,8.997    c-4.478,3.189-9.612,6.055-15.503,8.411C123.063,132.776,58.399,62.587,5.398,133.013c-2.968,3.944-3.696,9.146-1.998,13.78    c5.781,15.769,24.427,50.649,77.27,55.71c21.743,2.082,43.257-1.623,62.761-10.143c6.933,5.213,15.808,9.656,29.625,10.831    c3.867,0.329,6.912-3.253,6.017-7.03c-1.255-5.295-3.5-12.869-7.302-20.717c6.285-4.907,12.173-10.397,17.561-16.442    c20.743-23.268,40.028-57.472,37.473-102.964C226.804,56.039,253.203,46.643,253.494,27.03z"/><path class="st16" d="M179.072,196.162c-3.045-12.848-11.891-39.109-34.78-50.159l-36.199,4.259c0,0-5.323,15.97,11.711,23.423    c15.866,6.941,21.573,26.813,53.25,29.507C176.923,203.52,179.967,199.938,179.072,196.162z"/><path class="st17" d="M159.203,156.96c5.409,5.639,9.498,12.149,12.567,18.485c6.285-4.907,12.173-10.397,17.561-16.442    c16.872-18.926,32.778-45.088,36.753-78.674C209.499,121.683,185.459,144.977,159.203,156.96z"/><g><path class="st17" d="M119.805,173.684c-4.571-2-7.522-4.615-9.408-7.368c-52.524,5.991-64.88-17.584-81.089-26.701     c-10.97-6.171-20.609-4.393-26.086-2.346c-0.985,3.065-0.961,6.418,0.177,9.523c5.78,15.768,24.426,50.651,77.27,55.712     c21.743,2.082,43.257-1.623,62.761-10.143C134.468,185.622,128.751,177.598,119.805,173.684z"/></g><g><path class="st16" d="M104.819,202.466c4.024,5.109,9.55,10.104,17.774,14.654c3.396,1.879,7.638-0.148,8.363-3.961     c0.809-4.257,1.633-10.093,1.802-16.694C123.729,199.493,114.364,201.526,104.819,202.466z"/></g><path class="st7" d="M108.094,150.262c0,0-5.323,15.97,11.711,23.423c15.866,6.941,21.573,26.813,53.25,29.507    c3.867,0.329,6.912-3.253,6.017-7.03c-3.045-12.848-11.891-39.109-34.78-50.159"/><path class="st7" d="M253.494,27.03c0.027-1.854-2.012-2.95-3.602-1.995c-1.59,0.955-4.003,1.726-7.65,1.726    c-9.582,0-19.164,5.323-23.423,13.841c0,0-6.388-11.711-20.229-11.711c-5.019,0-8.218-0.7-10.256-1.592    c-1.729-0.756-3.623,0.664-3.289,2.521c1.284,7.13,6.393,18.701,25.257,25.688c0,0-1.288,17.542-13.077,34.725    c-7.061-8.573-9.099-24.181-12.475-12.367c-1.952,6.83-1.667,14.555-0.787,20.92c0.484,3.496-1.065,6.95-3.939,8.997    c-4.478,3.189-9.612,6.055-15.503,8.411C123.063,132.776,58.399,62.587,5.398,133.013c-2.968,3.944-3.696,9.146-1.998,13.78    c5.781,15.769,24.427,50.649,77.27,55.71c21.743,2.082,43.257-1.623,62.761-10.143c6.933,5.213,15.808,9.656,29.625,10.831    c3.867,0.329,6.912-3.253,6.017-7.03c-1.255-5.295-3.5-12.869-7.302-20.717c6.285-4.907,12.173-10.397,17.561-16.442    c20.743-23.268,40.028-57.472,37.473-102.964C226.804,56.039,253.203,46.643,253.494,27.03z"/><path class="st7" d="M159.203,156.96c5.409,5.639,9.498,12.149,12.567,18.485c6.285-4.907,12.173-10.397,17.561-16.442    c16.872-18.926,32.778-45.088,36.753-78.674C209.499,121.683,185.459,144.977,159.203,156.96z"/><g><path class="st7" d="M104.819,202.466c4.024,5.109,9.55,10.104,17.774,14.654c3.396,1.879,7.638-0.148,8.363-3.961     c0.809-4.257,1.633-10.093,1.802-16.694C123.729,199.493,114.364,201.526,104.819,202.466z"/></g><g><path class="st7" d="M119.805,173.684c-4.571-2-7.522-4.615-9.408-7.368c-52.524,5.991-64.88-17.584-81.089-26.701     c-10.97-6.171-20.609-4.393-26.086-2.346c-0.985,3.065-0.961,6.418,0.177,9.523c5.78,15.768,24.426,50.651,77.27,55.712     c21.743,2.082,43.257-1.623,62.761-10.143C134.468,185.622,128.751,177.598,119.805,173.684z"/></g><line class="st7" x1="196.993" x2="199.123" y1="90.108" y2="93.302"/><path class="st7" d="M69.075,140.493c0.725-3.048,3.784-4.931,6.832-4.206s4.931,3.784,4.206,6.832"/><path class="st7" d="M93.736,72.081c-7.978,2.315-12.993,11.797-15.045,16.518c-0.304,0.7,0.484,1.378,1.123,0.959    c4.277-2.806,11.193-4.915,17.122-6.846c3.938-1.282,5.132-6.268,2.203-9.197l0,0C97.727,72.103,95.655,71.524,93.736,72.081z"/><path class="st7" d="M62.822,67.904c5.69,4.035,7.25,12.786,7.677,17.319c0.072,0.76-0.883,1.148-1.366,0.557    c-2.786-3.407-7.743-6.948-11.976-10.091c-2.883-2.141-2.489-6.568,0.727-8.168h0C59.474,66.73,61.374,66.877,62.822,67.904z"/><path class="st7" d="M80.445,54.243c-4.178,4.562-3.894,12.44-3.417,16.449c0.08,0.672,0.98,0.83,1.288,0.227    c1.778-3.474,5.414-7.471,8.496-10.987c2.099-2.395,0.929-6.159-2.157-6.945l0,0C83.128,52.6,81.509,53.082,80.445,54.243z"/><path class="st7" d="M136.225,186.239c-5.383-4.968-10.097-9.788-16.42-12.555c-4.571-2-7.522-4.615-9.408-7.368    c-52.524,5.991-64.88-17.584-81.089-26.701c-7.566-4.256-14.496-4.73-19.867-3.943C12.424,146.215,42.085,214.142,136.225,186.239    z"/><path class="st7" d="M21.692,136.452c8.831,19.545,34.811,55.221,103.965,40.609c-1.83-1.304-3.75-2.457-5.852-3.376    c-4.571-2-7.522-4.615-9.408-7.368c-52.524,5.991-64.88-17.584-81.089-26.701C26.68,138.136,24.13,137.124,21.692,136.452z"/><path class="st7" d="M166.876,166.743c1.86,2.871,3.49,5.804,4.894,8.702c6.285-4.907,12.173-10.397,17.561-16.442    c7.002-7.855,13.835-16.96,19.721-27.321C193.976,147.877,176.62,160.328,166.876,166.743z"/></g></g><g id="Layer_18"/><g id="Layer_19"/><g id="Layer_20"/><g id="Layer_21"/><g id="Layer_22"/><g id="Layer_23"/><g id="Layer_24"/><g id="Layer_25"/><g id="Layer_26"/><g id="Layer_27"/><g id="Layer_28"/><g id="Layer_29"/><g id="Layer_30"/><g id="Layer_31"/><g id="Layer_32"/><g id="Layer_33"/><g id="Layer_34"/><g id="Layer_35"/><g id="Layer_36"/><g id="Layer_37"/><g id="Layer_38"/><g id="Layer_39"/><g id="Layer_40"/><g id="Layer_41"/><g id="Layer_42"/><g id="Layer_43"/><g id="Layer_44"/><g id="Layer_45"/><g id="Layer_46"/><g id="Layer_47"/><g id="Layer_48"/><g id="Layer_49"/><g id="Layer_50"/><g id="Layer_51"/><g id="Layer_52"/><g id="Layer_53"/><g id="Layer_54"/><g id="Layer_55"/><g id="Layer_56"/><g id="Layer_57"/><g id="Layer_58"/><g id="Layer_59"/><g id="Layer_60"/><g id="Layer_61"/><g id="Layer_62"/><g id="Layer_63"/><g id="Layer_64"/><g id="Layer_65"/><g id="Layer_66"/><g id="Layer_67"/><g id="Layer_68"/><g id="Layer_69"/><g id="Layer_70"/><g id="Layer_71"/><g id="Layer_72"/><g id="Layer_73"/><g id="Layer_74"/><g id="Layer_75"/><g id="Layer_76"/><g id="Layer_77"/><g id="Layer_78"/><g id="Layer_79"/><g id="Layer_80"/><g id="Layer_81"/><g id="Layer_82"/><g id="Layer_83"/><g id="Layer_84"/><g id="Layer_85"/><g id="Layer_86"/><g id="Layer_87"/><g id="Layer_88"/><g id="Layer_89"/><g id="Layer_90"/><g id="Layer_91"/><g id="Layer_92"/><g id="Layer_93"/><g id="Layer_94"/><g id="Layer_95"/><g id="Layer_96"/><g id="Layer_97"/><g id="Layer_98"/><g id="Layer_99"/><g id="Layer_100"/></svg>