<?xml version="1.0" ?><svg height="60" id="Food_1" viewBox="0 0 60 60" width="60" xmlns="http://www.w3.org/2000/svg"><title/><path d="M27.89586,10.71a3.26365,3.26365,0,0,1-1.89619-3.3284c0-2.7876,2.68209-4.3644,4.024-6.3816h0c1.33959,2.0172,4.02179,3.594,4.02179,6.3816a3.26389,3.26389,0,0,1-1.8897,3.3252Z" style="fill:#ff9797;fill-rule:evenodd"/><path d="M15.89406,10.71a3.27325,3.27325,0,0,1-1.89439-3.3284c0-2.7876,2.68379-4.3644,4.02639-6.3816h0c1.3411,2.0172,4.02161,3.594,4.02161,6.3816a3.26472,3.26472,0,0,1-1.89131,3.3252Z" style="fill:#ff9797;fill-rule:evenodd"/><rect height="4" style="fill:#fffad1" width="48" x="5.99967" y="48.99998"/><rect height="5" style="fill:#fffad1" width="48" x="5.99967" y="40.99998"/><path d="M54.07967,33.38l-.08.17V38h-48V33.55h-.89a3.8998,3.8998,0,0,0,.86-.1c2.42-.63,3.51-3.73,5.36-3.73,2.08,0,4.15,3.83,6.23,3.83,2.07,0,4.14-3.83,6.22-3.83,2.07,0,4.15,3.83,6.22,3.83s4.15-3.83,6.22-3.83c2.08,0,4.15,3.83,6.22,3.83,2.08,0,4.15-3.83,6.22-3.83C50.46967,29.72,52.26967,32.62,54.07967,33.38Z" style="fill:#fffad1"/><path d="M53.99967,53.17a3.83674,3.83674,0,0,1-3.83,3.83h-40.34a3.83674,3.83674,0,0,1-3.83-3.83V52h48Z" style="fill:#d6b5b0"/><rect height="4" style="fill:#d6b5b0" width="48" x="5.99967" y="44.99998"/><rect height="4" style="fill:#d6b5b0" width="48" x="5.99967" y="36.99998"/><g style="opacity:0.2"><path d="M53.99967,53.17V29h-9V57h5.17A3.83675,3.83675,0,0,0,53.99967,53.17Z" style="fill:#750000"/><path d="M53.99967,28.007c-.11737-.0094-47.88263-.0094-48,0V36.44C8.398,35.79185,9.48758,32.72,11.32968,32.72c2.08,0,4.15,3.83,6.23,3.83,2.07,0,4.14-3.83,6.22-3.83,2.06995,0,4.15,3.83,6.22,3.83s4.15-3.83,6.22-3.83c2.08,0,4.15,3.83,6.22,3.83,2.08,0,4.15-3.83,6.22-3.83,1.78333,0,3.55695,2.811,5.34,3.62079Z" style="fill:#750000"/><path d="M50.16965,54h-40.34A3.81988,3.81988,0,0,1,6.487,52H5.99967v1.17a3.83675,3.83675,0,0,0,3.83,3.83h40.34a3.83675,3.83675,0,0,0,3.83-3.83V52H53.5123A3.81988,3.81988,0,0,1,50.16965,54Z" style="fill:#750000"/></g><rect height="30" style="fill:#fff;opacity:0.5" width="12" x="13.99967" y="26.99998"/><path d="M39.83975,10.71A3.27268,3.27268,0,0,1,37.95,7.38158c0-2.7876,2.6791-4.3644,4.02171-6.3816h0c1.34259,2.0172,4.028,3.594,4.028,6.3816a3.26561,3.26561,0,0,1-1.893,3.3252Z" style="fill:#ff9797;fill-rule:evenodd"/><path d="M40.91635,10.81a1.58747,1.58747,0,0,1-.91668-1.6145c0-1.35217,1.29954-2.117,1.9508-3.0955h0c.65125.97848,1.95385,1.74333,1.95385,3.0955a1.584,1.584,0,0,1-.91823,1.61294Z" style="fill:#fffad1;fill-rule:evenodd"/><path d="M37.99967,25V14.06448A1.06636,1.06636,0,0,1,39.05945,13h5.8773a1.067,1.067,0,0,1,1.06291,1.0645V25" style="fill:#fff27d;fill-rule:evenodd"/><path d="M25.99967,25V14.06448A1.06636,1.06636,0,0,1,27.05946,13h5.8773a1.067,1.067,0,0,1,1.06291,1.0645V25" style="fill:#fff27d;fill-rule:evenodd"/><path d="M13.99967,25V14.06448A1.06636,1.06636,0,0,1,15.05946,13h5.8773a1.067,1.067,0,0,1,1.06291,1.0645V25" style="fill:#fff27d;fill-rule:evenodd"/><path d="M20.93674,13h-3a1.067,1.067,0,0,1,1.06293,1.06451V25h3V14.0645A1.067,1.067,0,0,0,20.93674,13Z" style="fill:#750000;fill-rule:evenodd;opacity:0.2"/><path d="M18.05948,13h-3a1.06639,1.06639,0,0,0-1.05981,1.06451V25h3V14.0645A1.06639,1.06639,0,0,1,18.05948,13Z" style="fill:#fff;fill-rule:evenodd;opacity:0.75"/><path d="M32.93674,13h-3a1.067,1.067,0,0,1,1.06293,1.06451V25h3V14.0645A1.067,1.067,0,0,0,32.93674,13Z" style="fill:#750000;fill-rule:evenodd;opacity:0.2"/><path d="M29.02051,10.81a1.58747,1.58747,0,0,1-.91668-1.6145c0-1.35217,1.29954-2.117,1.9508-3.0955h0c.65125.97848,1.95385,1.74333,1.95385,3.0955a1.584,1.584,0,0,1-.91823,1.61294Z" style="fill:#fffad1;fill-rule:evenodd"/><path d="M16.91635,10.81a1.58747,1.58747,0,0,1-.91668-1.6145c0-1.35217,1.29954-2.117,1.9508-3.0955h0c.65125.97848,1.95385,1.74333,1.95385,3.0955a1.584,1.584,0,0,1-.91823,1.61294Z" style="fill:#fffad1;fill-rule:evenodd"/><path d="M30.05948,13h-3a1.06639,1.06639,0,0,0-1.05981,1.06451V25h3V14.0645A1.06639,1.06639,0,0,1,30.05948,13Z" style="fill:#fff;fill-rule:evenodd;opacity:0.75"/><path d="M44.93674,13h-3a1.067,1.067,0,0,1,1.06293,1.06451V25h3V14.0645A1.067,1.067,0,0,0,44.93674,13Z" style="fill:#750000;fill-rule:evenodd;opacity:0.2"/><path d="M42.05948,13h-3a1.06639,1.06639,0,0,0-1.05981,1.06451V25h3V14.0645A1.06639,1.06639,0,0,1,42.05948,13Z" style="fill:#fff;fill-rule:evenodd;opacity:0.75"/><path d="M5.96967,33.45c2.42-.63,3.51-3.73,5.36-3.73,2.08,0,4.15,3.83,6.23,3.83,2.07,0,4.14-3.83,6.22-3.83,2.07,0,4.15,3.83,6.22,3.83s4.15-3.83,6.22-3.83c2.08,0,4.15,3.83,6.22,3.83,2.08,0,4.15-3.83,6.22-3.83,1.81,0,3.61,2.9,5.42,3.66a2.14029,2.14029,0,0,0,.81.17,3.28672,3.28672,0,0,0,3.11-3.42v-.88a4.3135,4.3135,0,0,0-4.35-4.25h-47.3a4.3135,4.3135,0,0,0-4.35,4.25v.88c0,1.88.63,3.42,3.11,3.42A3.8998,3.8998,0,0,0,5.96967,33.45Z" style="fill:#fff27d"/><path d="M5.96967,33.45c2.42-.63,3.51-3.73,5.36-3.73,2.08,0,4.15,3.83,6.23,3.83,2.07,0,4.14-3.83,6.22-3.83,2.07,0,4.15,3.83,6.22,3.83s4.15-3.83,6.22-3.83c2.08,0,4.15,3.83,6.22,3.83,2.08,0,4.15-3.83,6.22-3.83,1.81,0,3.61,2.9,5.42,3.66a2.14029,2.14029,0,0,0,.81.17,3.28672,3.28672,0,0,0,3.11-3.42v-.88a4.3135,4.3135,0,0,0-4.35-4.25h-47.3a4.3135,4.3135,0,0,0-4.35,4.25v.88c0,1.88.63,3.42,3.11,3.42A3.8998,3.8998,0,0,0,5.96967,33.45Z" style="fill:#fff27d"/><g style="opacity:0.75"><path d="M53.64969,25h-47.3a4.31349,4.31349,0,0,0-4.35,4.25v.88a5.93312,5.93312,0,0,0,.11407,1.18671A4.34066,4.34066,0,0,1,6.34964,28h47.3a4.33789,4.33789,0,0,1,4.1875,3.16528A3.6592,3.6592,0,0,0,57.99967,30.13v-.88A4.31349,4.31349,0,0,0,53.64969,25Z" style="fill:#fff"/><path d="M16.85633,33.55c2.24251,0,4.485-3.83,6.73837-3.83a4.20962,4.20962,0,0,1,2.405,1.11871V25h-13v6.22809C14.28441,32.30009,15.56862,33.55,16.85633,33.55Z" style="fill:#fff"/></g><path d="M53.64969,25h-10.65s3,1.00069,3,3.00034v3.226a4.55058,4.55058,0,0,1,2.66-1.50641c1.81,0,3.61,2.9,5.42,3.66a2.1403,2.1403,0,0,0,.81.17,3.28671,3.28671,0,0,0,3.11-3.42v-.88A4.31349,4.31349,0,0,0,53.64969,25Z" style="fill:#750000;opacity:0.2"/><path d="M39.83887,11.71a.99514.99514,0,0,1-.40137-.085,4.215,4.215,0,0,1-2.4873-4.24316c0-2.30664,1.46289-3.86621,2.75391-5.24219A13.99273,13.99273,0,0,0,41.13965.44629a1.03569,1.03569,0,0,1,1.66406,0A13.87948,13.87948,0,0,0,44.24219,2.1416C45.53516,3.5166,47,5.0752,47,7.38184A4.21424,4.21424,0,0,1,44.50879,11.623,1,1,0,0,1,43.7041,9.792C44.26074,9.54688,45,9.03125,45,7.38184c0-1.51367-1.07617-2.65918-2.21484-3.87109-.27246-.28906-.54785-.583-.81348-.88672-.26367.30273-.53809.5957-.80859.88379-1.1377,1.21289-2.21289,2.3584-2.21289,3.874,0,1.65332.7373,2.16895,1.292,2.41309a.99986.99986,0,0,1-.40332,1.915Z" style="fill:#6d6daa"/><path d="M46,26a.99942.99942,0,0,1-1-1V14.06445L39.05957,14,39,25a1,1,0,0,1-2,0V14.06445A2.06408,2.06408,0,0,1,39.05957,12h5.877A2.06616,2.06616,0,0,1,47,14.06445V25A.99942.99942,0,0,1,46,26Z" style="fill:#6d6daa"/><path d="M34,26a.99942.99942,0,0,1-1-1V14.06445L27.05957,14,27,25a1,1,0,0,1-2,0V14.06445A2.06408,2.06408,0,0,1,27.05957,12h5.877A2.06616,2.06616,0,0,1,35,14.06445V25A.99942.99942,0,0,1,34,26Z" style="fill:#6d6daa"/><path d="M22,26a.99942.99942,0,0,1-1-1V14.06445L15.05957,14,15,25a1,1,0,0,1-2,0V14.06445A2.06408,2.06408,0,0,1,15.05957,12h5.877A2.06616,2.06616,0,0,1,23,14.06445V25A.99942.99942,0,0,1,22,26Z" style="fill:#6d6daa"/><path d="M27.89453,11.71a.99539.99539,0,0,1-.39844-.083A4.20944,4.20944,0,0,1,25,7.38184c0-2.30664,1.46387-3.86523,2.75488-5.24121A13.76381,13.76381,0,0,0,29.19043.44629,1.00162,1.00162,0,0,1,30.02344,0h0a1.00014,1.00014,0,0,1,.833.44727A13.768,13.768,0,0,0,32.293,2.14258c1.29,1.375,2.75293,2.93359,2.75293,5.23926A4.21341,4.21341,0,0,1,32.55762,11.623,1,1,0,0,1,31.75293,9.792c.55469-.24414,1.293-.75977,1.293-2.41016,0-1.51367-1.07422-2.6582-2.21094-3.87012-.27148-.28906-.54687-.583-.81152-.88672-.26465.30273-.54.59668-.81055.88477C28.0752,4.72168,27,5.86719,27,7.38184c0,1.65527.73926,2.16895,1.29492,2.41113a1.00007,1.00007,0,0,1-.40039,1.917Z" style="fill:#6d6daa"/><path d="M15.89355,11.71a1.01043,1.01043,0,0,1-.40137-.084A4.21732,4.21732,0,0,1,13,7.38184c0-2.30664,1.46484-3.86523,2.75684-5.24121A13.86159,13.86159,0,0,0,17.19434.44629.99623.99623,0,0,1,18.02637,0h0a1.00162,1.00162,0,0,1,.833.44629A13.84173,13.84173,0,0,0,20.29492,2.1416c1.29,1.375,2.75293,2.93457,2.75293,5.24023a4.21206,4.21206,0,0,1-2.48926,4.24023A.99959.99959,0,0,1,19.75391,9.792c.55566-.24512,1.29395-.76074,1.29395-2.41016,0-1.51465-1.07422-2.65918-2.21191-3.87207-.27051-.28809-.5459-.582-.81055-.88477-.26367.30273-.54.59668-.81152.88477C16.0752,4.72266,15,5.86719,15,7.38184c0,1.65234.74023,2.168,1.29688,2.41211a1.00016,1.00016,0,0,1-.40332,1.916Z" style="fill:#6d6daa"/><path d="M54.88965,34.5498a3.13359,3.13359,0,0,1-1.18848-.24414A9.71807,9.71807,0,0,1,51.09766,32.373c-.83887-.77539-1.78906-1.65332-2.43848-1.65332-.6416,0-1.58789.874-2.42285,1.64551-1.16211,1.07422-2.36426,2.18457-3.79687,2.18457-1.4248,0-2.62207-1.10645-3.78027-2.17676-.83887-.77539-1.78906-1.65332-2.43945-1.65332-.64453,0-1.59473.877-2.43262,1.65039C32.626,33.44141,31.42578,34.5498,30,34.5498s-2.627-1.1084-3.78809-2.17969c-.83887-.77344-1.78809-1.65039-2.43262-1.65039-.65039,0-1.60059.87793-2.43848,1.65332-1.1582,1.07031-2.35645,2.17676-3.78125,2.17676-1.43066,0-2.63184-1.1084-3.79395-2.18066-.83789-.77344-1.78711-1.64941-2.43555-1.64941-.49707,0-1.10449.64355-1.748,1.32422a7.24753,7.24753,0,0,1-3.36035,2.374l-.03711.00879a4.87831,4.87831,0,0,1-1.0752.123C3.23438,34.5498,1,33.7832,1,30.12988V29.25A5.30646,5.30646,0,0,1,6.34961,24h47.2998A5.30731,5.30731,0,0,1,59,29.25v.87988A4.27811,4.27811,0,0,1,54.88965,34.5498ZM5.96973,33.4502h0Zm42.68945-4.73047c1.43262,0,2.63379,1.11035,3.7959,2.18457A8.51322,8.51322,0,0,0,54.4668,32.458a1.14449,1.14449,0,0,0,.42285.0918A2.28366,2.28366,0,0,0,57,30.12988V29.25A3.30514,3.30514,0,0,0,53.64941,26H6.34961A3.30491,3.30491,0,0,0,3,29.25v.87988c0,1.78711.55176,2.41992,2.10938,2.41992a2.87381,2.87381,0,0,0,.626-.07227A5.714,5.714,0,0,0,8.12793,30.6709c.90625-.959,1.84277-1.95117,3.20215-1.95117,1.43066,0,2.63086,1.1084,3.792,2.17969.83789.77344,1.78809,1.65039,2.4375,1.65039.64258,0,1.58887-.875,2.42383-1.64648,1.16211-1.07324,2.36328-2.18359,3.7959-2.18359,1.42578,0,2.627,1.1084,3.78809,2.17969.83887.77344,1.78809,1.65039,2.43262,1.65039.64355,0,1.59277-.876,2.43066-1.64941,1.16211-1.07227,2.36328-2.18066,3.78906-2.18066,1.43262,0,2.63477,1.11035,3.79688,2.18457.835.77148,1.78125,1.64551,2.42285,1.64551.65039,0,1.60059-.87793,2.43945-1.65332C46.03711,29.82617,47.23438,28.71973,48.65918,28.71973Z" style="fill:#6d6daa"/><path d="M50.16992,58H9.83008A4.83584,4.83584,0,0,1,5,53.16992V33.5498a1,1,0,0,1,2,0V53.16992A2.83324,2.83324,0,0,0,9.83008,56H50.16992A2.83324,2.83324,0,0,0,53,53.16992V33.5498a1,1,0,0,1,2,0V53.16992A4.83584,4.83584,0,0,1,50.16992,58Z" style="fill:#6d6daa"/><g style="opacity:0.5"><path d="M6.97461,38A1.02054,1.02054,0,0,1,5.9502,37a.97808.97808,0,0,1,.97461-1h.0498a1,1,0,0,1,0,2Z" style="fill:#6d6daa"/><path d="M48.26465,38h-.10059a1,1,0,0,1,0-2h.10059a1,1,0,0,1,0,2Zm-5.16113,0h-.10059a1,1,0,0,1,0-2h.10059a1,1,0,0,1,0,2Zm-5.16113,0h-.10156a1,1,0,0,1,0-2h.10156a1,1,0,0,1,0,2Zm-5.16113,0h-.10156a1,1,0,0,1,0-2h.10156a1,1,0,0,1,0,2Zm-5.16113,0h-.10156a1,1,0,0,1,0-2h.10156a1,1,0,1,1,0,2ZM22.459,38h-.10156a1,1,0,0,1,0-2H22.459a1,1,0,1,1,0,2Zm-5.16113,0h-.10156a1,1,0,1,1,0-2h.10156a1,1,0,0,1,0,2Zm-5.16113,0h-.10156a1,1,0,0,1,0-2h.10156a1,1,0,0,1,0,2Z" style="fill:#6d6daa"/><path d="M53.375,38a1.0214,1.0214,0,0,1-1.02539-1,.97808.97808,0,0,1,.97461-1H53.375a1,1,0,0,1,0,2Z" style="fill:#6d6daa"/><path d="M6.97461,46A1.02054,1.02054,0,0,1,5.9502,45a.97808.97808,0,0,1,.97461-1h.0498a1,1,0,0,1,0,2Z" style="fill:#6d6daa"/><path d="M48.26465,46h-.10059a1,1,0,0,1,0-2h.10059a1,1,0,0,1,0,2Zm-5.16113,0h-.10059a1,1,0,0,1,0-2h.10059a1,1,0,0,1,0,2Zm-5.16113,0h-.10156a1,1,0,0,1,0-2h.10156a1,1,0,0,1,0,2Zm-5.16113,0h-.10156a1,1,0,0,1,0-2h.10156a1,1,0,0,1,0,2Zm-5.16113,0h-.10156a1,1,0,0,1,0-2h.10156a1,1,0,1,1,0,2ZM22.459,46h-.10156a1,1,0,0,1,0-2H22.459a1,1,0,1,1,0,2Zm-5.16113,0h-.10156a1,1,0,1,1,0-2h.10156a1,1,0,0,1,0,2Zm-5.16113,0h-.10156a1,1,0,0,1,0-2h.10156a1,1,0,0,1,0,2Z" style="fill:#6d6daa"/><path d="M53.375,46a1.0214,1.0214,0,0,1-1.02539-1,.97808.97808,0,0,1,.97461-1H53.375a1,1,0,0,1,0,2Z" style="fill:#6d6daa"/><path d="M6.97461,54A1.02054,1.02054,0,0,1,5.9502,53a.97808.97808,0,0,1,.97461-1h.0498a1,1,0,0,1,0,2Z" style="fill:#6d6daa"/><path d="M48.26465,54h-.10059a1,1,0,0,1,0-2h.10059a1,1,0,0,1,0,2Zm-5.16113,0h-.10059a1,1,0,0,1,0-2h.10059a1,1,0,0,1,0,2Zm-5.16113,0h-.10156a1,1,0,0,1,0-2h.10156a1,1,0,0,1,0,2Zm-5.16113,0h-.10156a1,1,0,0,1,0-2h.10156a1,1,0,0,1,0,2Zm-5.16113,0h-.10156a1,1,0,0,1,0-2h.10156a1,1,0,1,1,0,2ZM22.459,54h-.10156a1,1,0,0,1,0-2H22.459a1,1,0,1,1,0,2Zm-5.16113,0h-.10156a1,1,0,1,1,0-2h.10156a1,1,0,0,1,0,2Zm-5.16113,0h-.10156a1,1,0,0,1,0-2h.10156a1,1,0,0,1,0,2Z" style="fill:#6d6daa"/><path d="M53.375,54a1.0214,1.0214,0,0,1-1.02539-1,.97808.97808,0,0,1,.97461-1H53.375a1,1,0,0,1,0,2Z" style="fill:#6d6daa"/></g><path d="M54,50H6a1,1,0,0,1,0-2H54a1,1,0,0,1,0,2Z" style="fill:#6d6daa"/><path d="M54,42H6a1,1,0,0,1,0-2H54a1,1,0,0,1,0,2Z" style="fill:#6d6daa"/></svg>