<?xml version="1.0" ?><svg version="1.1" viewBox="-343 345 512 512" xmlns="http://www.w3.org/2000/svg" xmlns:xlink="http://www.w3.org/1999/xlink"><g fill="#344154"><g fill="#344154"><path d="M30,92.7c-4.6,0 -9.2,-0.6 -13.6,-1.8c-14.8,-4.3 -16.4,-13 -16.1,-17.7c0.6,-7.6 7.6,-14 15.4,-14.4l34.9,-1.4c3.1,-0.1 5.8,2.3 5.9,5.5c0.1,3.1 -2.3,5.8 -5.5,5.9l-34.9,1.4c-2.1,0.1 -4.4,2.1 -4.5,3.9c-0.2,2.3 2.5,4.3 7.8,5.9c6.7,1.9 14.1,1.9 21.4,0l23.1,-5.9c8.4,-2.2 14.3,-9.8 14.3,-18.5v-49.9c0,-3.1 2.6,-5.7 5.7,-5.7c3.1,0 5.7,2.6 5.7,5.7v49.8c0,13.9 -9.4,26.1 -22.9,29.5l-23.1,5.9c-4.3,1.2 -9,1.8 -13.6,1.8Z" transform="translate(-151.1, 760.5)"/><path d="M6.4,62.8c-2.3,0 -4.4,-1.4 -5.3,-3.6c-1.1,-2.9 0.3,-6.2 3.2,-7.4c17.8,-7 33.6,-7.3 45.3,-6.8c1,0 1.9,-0.3 2.6,-1c0.7,-0.6 1,-1.5 1,-2.4v-35.9c0,-3.1 2.6,-5.7 5.7,-5.7c3.1,0 5.7,2.6 5.7,5.7v35.9c0,4.1 -1.6,7.8 -4.5,10.6c-2.9,2.8 -6.9,4.3 -11,4.2c-10.6,-0.5 -24.9,-0.2 -40.7,6c-0.6,0.3 -1.3,0.4 -2,0.4Z" transform="translate(-162, 754.1)"/></g><path d="M13.3551,2.88988c2.88988,2.88988 2.88988,7.5753 0,10.4652c-2.88988,2.88988 -7.5753,2.88988 -10.4652,0c-2.88988,-2.88988 -2.88988,-7.5753 0,-10.4652c2.88988,-2.88988 7.5753,-2.88988 10.4652,0" transform="translate(-221.422, 368.878)"/><g fill="#344154"><path d="M62.3,50.4c-7.3,0 -15.4,-1.8 -23.5,-6.7c-3,-1.8 -5.9,-4.1 -9.2,-7.3l-27.2,-25.9c-2.3,-2.2 -2.4,-5.8 -0.2,-8.1c2.2,-2.3 5.8,-2.4 8.1,-0.2l27.2,25.9c2.7,2.6 5,4.4 7.2,5.7c21.4,12.8 39.2,-2.3 39.9,-2.9c2.4,-2.1 6,-1.8 8,0.5c2.1,2.4 1.8,5.9 -0.5,8c-5.5,5 -16.5,11 -29.8,11Z" transform="translate(-46.3, 637.5)"/><path d="M58.3,52.1c-3,0 -6.1,-0.4 -9.3,-1.2c-5.5,-1.4 -11,-4.7 -15.8,-9.5l-31,-31.1c-2.2,-2.2 -2.2,-5.8 0,-8.1c2.2,-2.2 5.8,-2.2 8.1,0l31,31.1c3.3,3.3 7,5.6 10.6,6.5c15.8,4.2 30.5,-9.3 30.7,-9.4c2.3,-2.1 5.9,-2 8.1,0.2c2.2,2.3 2.1,5.9 -0.2,8c-0.7,0.8 -14.5,13.5 -32.2,13.5Z" transform="translate(-94.2, 639.7)"/><path d="M242,424.3c-26.3,0 -52.3,-5.3 -76.9,-15.9c-38.4,-16.4 -69.7,-44.1 -90.7,-80c-29.1,-49.8 -19.8,-76.8 -8.1,-110.9c8.7,-25.2 19.5,-56.6 18,-107.2c-1.2,-39.1 -27.9,-47.6 -71.8,-56.9c-7.5,-1.6 -12.5,-8 -11.9,-15.4c0.7,-8 8.1,-16.3 23.2,-16.9c13.2,-0.5 28.4,-5.5 38.7,-12.8c8.3,-5.9 18.3,-8.3 27.9,-6.7c13.2,2.3 24.9,9.2 33.8,19.9c12,14.5 19.4,36 22,64v0.3l3.6,91.2c0.2,6 2.7,11.3 7.1,15c4.4,3.8 10.1,5.5 16.2,4.8c23.5,-2.7 51.9,-3.6 84.5,10.2c33.4,14.2 68.4,42.6 107.1,86.8l0.1,0.1l24.5,29.3l-4.7,3.6c-1.3,1 -2.9,2.1 -4.7,3.1l33.7,33.1c5.3,5.3 6.8,13.1 3.7,19.9c-3.1,6.8 -9.9,10.8 -17.4,10.2c-28.9,-2.3 -42.4,2.7 -62.9,10.3c-12.6,4.7 -28.3,10.5 -51.3,15.7c-14.5,3.5 -29.1,5.2 -43.7,5.2Zm-157.4,-411.6c-5.3,0 -10.7,1.7 -15.4,5.1c-12.2,8.6 -29.3,14.3 -44.8,14.8c-8.1,0.3 -12.1,3.6 -12.3,6.5c-0.1,1.6 0.9,2.9 2.9,3.3c21.2,4.5 41.3,9.3 55.9,19c16.1,10.7 24.3,26.6 24.9,48.7c1.6,52.7 -9.6,85.2 -18.6,111.3c-11.6,33.8 -19.3,56.1 7.1,101.4c40.3,69 120.2,103.4 198.8,85.5c22.2,-5.1 36.9,-10.5 49.8,-15.3c21.1,-7.9 36.4,-13.5 67.8,-11c4,0.3 5.7,-2.6 6.1,-3.6c0.4,-0.9 1.6,-4.2 -1.3,-7l-37,-36.4c-11.4,3.3 -25.7,3 -37.9,-8.9c-0.3,-0.2 -28.4,-27.4 -39.7,-36c-2.5,-1.9 -3,-5.5 -1.1,-8c1.9,-2.5 5.5,-3 8,-1.1c11.8,9 39.5,35.8 40.7,36.9c9.6,9.4 20.4,8.4 28.2,5.7c0.7,-0.4 1.4,-0.7 2.2,-0.8c1.3,-0.5 2.4,-1.1 3.4,-1.6l-16.5,-19.7c-83.6,-95.6 -133.6,-98.6 -181.6,-93.1c-9.2,1.1 -18.1,-1.6 -24.9,-7.4c-6.8,-5.8 -10.7,-14 -11,-23.2l-3.6,-91c-5,-55 -27.9,-70.4 -46.3,-73.6c-1.1,-0.4 -2.5,-0.5 -3.8,-0.5Z" transform="translate(-296.8, 347.5)"/><path d="M8.2,36.3c-2.8,0 -5.2,-2 -5.6,-4.8c-2.6,-16.3 8.1,-28.5 8.6,-29c2.1,-2.3 5.7,-2.5 8,-0.4c2.3,2.1 2.5,5.7 0.5,8c-0.1,0.1 -7.6,8.8 -5.8,19.6c0.5,3.1 -1.6,6 -4.7,6.5c-0.4,0.1 -0.7,0.1 -1,0.1Z" transform="translate(-246.2, 354.3)"/></g><g fill="#FFC524"><path d="M164.8,135.5c-20.4,-4.7 -46.6,-31.3 -62.6,-49.5c-9.7,-11 -23.6,-17.4 -38.3,-17.6c-1.6,0 -3.2,0 -4.5,-0.1c-15.1,-0.4 -30.1,-9.7 -37.1,-23.1c-6.4,-12.1 -8.2,-28.2 -8.3,-45.2c-10,29.3 -14,45.8 7.3,82.3c36.5,62.4 108.8,93.5 180,77.3c21.1,-4.8 35.2,-10 47.6,-14.6c9.7,-3.6 18.8,-7 29.1,-9.3c-31.1,-28.6 -71.8,9.5 -113.2,-0.2Z" transform="translate(-218.8, 579.1)"/></g></g></svg>