<?xml version="1.0" ?><svg data-name="Layer 1" id="Layer_1" viewBox="0 0 290 245.9" xmlns="http://www.w3.org/2000/svg"><defs><style>.cls-1{fill:#d2cd28;}.cls-2{fill:#f3cc91;}.cls-3{fill:#c17139;}.cls-4{fill:#c9c53c;}.cls-5{fill:#81ae40;}.cls-6{fill:#99ca3c;}.cls-7{fill:#b7b033;}.cls-8{fill:none;}.cls-9{fill:#e3d755;}.cls-10{fill:#4c4a29;}</style></defs><title/><path class="cls-1" d="M103.2,63.65c-5.24,1.57-15.52,5.26-18.49,7L91,76.56C93.63,73,100.49,66.23,103.2,63.65Z" transform="translate(-5 -27.05)"/><path class="cls-1" d="M113,73.39c-6.79,0-15.09,4.41-18.1,6.7l5.66,5.13C104,80.88,110.17,75,113,73.39Z" transform="translate(-5 -27.05)"/><path class="cls-1" d="M159.69,114.6l5.25,3.19a26.84,26.84,0,0,1,2.36-4.58C166.15,113.22,160.83,114.37,159.69,114.6Z" transform="translate(-5 -27.05)"/><path class="cls-1" d="M150.2,110.42l3.1,2.35,2.24.85c.42.22,1.08-.22,1.5,0a33.62,33.62,0,0,1,3.5-5.77C158.43,107.88,152.21,109.65,150.2,110.42Z" transform="translate(-5 -27.05)"/><path class="cls-1" d="M142.93,107.75l1.18-.32c.29.14,1.92,1.28,3-2A10.47,10.47,0,0,1,151,101c-2.85.06-8.68,1.9-11.33,3.31l-.32,2.14S141.46,108.61,142.93,107.75Z" transform="translate(-5 -27.05)"/><path class="cls-1" d="M143.73,93.33c-5.62,0-12.75,3.45-16,5.56l6,3.53C136.71,99.4,141.51,94.62,143.73,93.33Z" transform="translate(-5 -27.05)"/><path class="cls-1" d="M134,87.06c-6.61,0-14.23,4.54-17.28,6.8l6.62,3.42C126.62,93.65,131.55,88.52,134,87.06Z" transform="translate(-5 -27.05)"/><path class="cls-1" d="M123.22,80.22c-7.08,0-15.31,5.59-18.43,8.09l7.37,3.2C115.56,87.34,120.5,81.81,123.22,80.22Z" transform="translate(-5 -27.05)"/><path class="cls-1" d="M103.71,54.62c-6.41-.81-20.6,1-25.41,1.85l4.38,6.84C88.06,61.08,99.11,56.11,103.71,54.62Z" transform="translate(-5 -27.05)"/><path class="cls-1" d="M101.4,45.92c-11.55-5.47-26-2.88-32.6-1.62-.09,0,1.05,3.93,1,4l4.49,2.35C82.12,49.05,96.39,46.67,101.4,45.92Z" transform="translate(-5 -27.05)"/><path class="cls-2" d="M281.09,244.4c-.67,5.46-2.19,12-3.7,14C274.72,262,268.53,269.75,266,273l.38-.12c4.88-1.66,17.7-9.86,24.37-25.83C288.21,245.3,287.26,241,281.09,244.4Z" transform="translate(-5 -27.05)"/><path class="cls-3" d="M281.39,236.73l-.3,7.68c3.48-.69,7,.85,9.64,2.6l2.94-7.95C291.64,231.14,283.94,232.31,281.39,236.73Z" transform="translate(-5 -27.05)"/><path class="cls-2" d="M293.62,218.5l-.65-2.34c-4.5-1.09-9-4.68-15,4a61,61,0,0,1,3.42,16.58,16.24,16.24,0,0,1,3.78-.46,14.31,14.31,0,0,1,8.5,2.79,39.74,39.74,0,0,0,.43-18.59C294,219.81,293.79,219.16,293.62,218.5Z" transform="translate(-5 -27.05)"/><path class="cls-3" d="M293,216.16l-3-9.38c-6.89-1.89-12.61-.11-16,5.58l4,7.79C282.61,215.24,288.84,215.34,293,216.16Z" transform="translate(-5 -27.05)"/><path class="cls-2" d="M290.16,207a121.81,121.81,0,0,0-10.29-20.59c-4.94,1-12.05-3.31-15,12.61,2.6,3.46,6.34,8.74,9.09,13.38C277.67,208.87,283.23,205.54,290.16,207Z" transform="translate(-5 -27.05)"/><path class="cls-3" d="M279.87,186.37l-6.34-8.79c-8.72.95-12.55,3.78-15.49,13.63l6.81,7.77A21.49,21.49,0,0,1,279.87,186.37Z" transform="translate(-5 -27.05)"/><path class="cls-2" d="M273.53,177.58A115.22,115.22,0,0,0,258,162.39c-4.27,3.21-13,1.88-9.7,21.24a81.57,81.57,0,0,1,9.74,7.58C260.15,186.82,265,179,273.53,177.58Z" transform="translate(-5 -27.05)"/><path class="cls-3" d="M258,162.39l-8.7-6.15c-8.75,5.95-13.11,11-9.69,22.55l8.69,4.84C248.85,172.18,253.64,165.81,258,162.39Z" transform="translate(-5 -27.05)"/><path class="cls-2" d="M249.31,156.24a93.75,93.75,0,0,0-15.07-7.51L229.36,147c-7.86,7.41-9.61,17.09-3.68,29.63a58.35,58.35,0,0,1,14.09,2.7C239.72,173.55,240.83,162.45,249.31,156.24Z" transform="translate(-5 -27.05)"/><path class="cls-4" d="M229.87,147l-11.06-4.52c-4.62,4.29-14,11.11-4.63,33.33l11.49.79C224.13,169.55,222.17,155,229.87,147Z" transform="translate(-5 -27.05)"/><path class="cls-5" d="M193.25,176.87l21.42-1.07c-5.15-3.65-21.84-20.51-38.72-14.1C177.58,163.77,191.47,174.09,193.25,176.87Z" transform="translate(-5 -27.05)"/><path class="cls-5" d="M150.3,158.71c-.15.11-9-3.63-9.19-3.63l-19.87-2.56C113,150,92.32,140.23,88.56,137.77c.11,2-4.93,11.27-5.34,13-1.18,5.1,3.37,9.78-.64,14.74a175.71,175.71,0,0,0,16.18,10.4,39.66,39.66,0,0,0,15.6,4.8c16.69,1.53,46.13.82,51.54.61C160.8,176.67,152.57,164.69,150.3,158.71Z" transform="translate(-5 -27.05)"/><path class="cls-6" d="M204.91,194.93a.86.86,0,0,1-.81-.58c-4.05-12.17-11.31-21.73-15.8-26.85l2.94.24c.72.13,17.2,3.13,23.41,8.06-4.41-19.08-.48-28.61,4.15-33.33l-1-.42c-4.75-2-8.86-3.73-16-6.42s-16.26-7.72-26.93-13.6c-3.15-1.74-6.45-3.55-9.88-5.41h0l-3.6-1.94h0q-2.47-1.32-5-2.65h0l-4.39-2.27-3.74-1.89-1.32-.66-1.41-.69-5-2.41h0l-5.32-2.5h0l-6.89-3.22h0l-3.88-1.83h0l-7.1-3.44h0q-2.44-1.21-4.6-2.35h0l-6.9-3.94h0c-1.37-.86-2.59-1.67-3.73-2.5l0,0,0,0L96,79.3l0,0,0,0,0,0h0l-.31-.36,0,0-7.46-8.7a.84.84,0,0,1-.18-.71.83.83,0,0,1-.1-.09c-.66-.93-.76-1.09-1.24-1.84l-.35-.54c-.94-1.45-1.75-2.8-2.53-4.11h0l-4-6.57c-1.08-1.67-2.18-3.26-3.38-4.84L70.06,43.8c5.07,23.86-8.25,31.31-11.2,33.08l-.41.25c-6,3.58-7.95,12.28-9,17.49-1.2,6-2.12,17.34,0,22.65,1.84,4.59,13.8,25.4,17.77,32.25-5,7.18-11.3,21.39-11.37,21.56-1.29,3.45-9.28,3.11-17.74,2.74a72.23,72.23,0,0,0-11.4,0c-7.19,1-7.81,12.19-7.81,12.3-.81,3.56.14,5.8,1.26,7.14a10.75,10.75,0,0,1,1-4.37,5.64,5.64,0,0,0,.63-2.61c-.46-1.85,1.77-5.11,4.42-6.46,1.72-.87,5.1-1.74,8.46,2.29a11,11,0,0,0,12.14,3.74.86.86,0,0,1,1.07,1.18C46.4,190,47.88,193,49.4,195c.29-3.42,3.14-6.94,3.31-7.15a.83.83,0,0,1,.73-.31c.06,0,6.62.52,10.33-1.6,4.08-2.33,25.31-19.17,28.65-33.63a21,21,0,0,0,0-8.28c5.68,3.54,18.6,11.28,25.89,13.5,8.05,2.45,24.34,4.8,29.45,5.49,3.21,9.15,15.74,20.73,20.51,22.9a41.79,41.79,0,0,1,11.08,7.58.85.85,0,0,1-.6,1.46c-.07,0-7.11.05-10.79,3.74s-4.31,6.92-4.32,6.95a.88.88,0,0,1-.08.24,2.56,2.56,0,0,0-.17,2.31,5.78,5.78,0,0,0,3.09,2.39,7.46,7.46,0,0,1,2.28-3.45c3.36-3.21,9-5.46,13.19-3.54,5.58,2.54,18.78-1.24,20.33-1.7,4.3-3.3,9.51-.47,12.43,1.69C211.55,195.09,205.21,194.93,204.91,194.93Z" transform="translate(-5 -27.05)"/><path class="cls-1" d="M84.83,34.74C74.5,27.58,68.41,31.39,64.29,34c-.5.31-4.67,2-5.11,2.21l5.23,5.13C69.94,38.57,80.86,35,84.83,34.74Z" transform="translate(-5 -27.05)"/><path class="cls-7" d="M70.57,45a.84.84,0,0,1,0-.52l-.54-.65c-1.22-1.35-2.3-2.47-3.41-3.54l-5.84-5c-1.72-1.31-3.56-2.62-5.64-4-4.05-2.7-15.37-5.37-17.8-3.71-3,2-8.35,3.05-13.54,4-5.37,1-10.93,2.07-13.19,4.15-3.93,3.61-5.87,7-5.62,9.86a5.67,5.67,0,0,0,2.4,4.08c.69.62,13.88,13,17.91,17.57a.88.88,0,0,1,.11.16h0c1.19,1.79,3.19,17.71,5,23.55,1.31,4.23,10,27.7,9.92,42.15l.21.41c2.41,4.7,5.15,10,6.86,10.75,1.83-1.13,3-12,3.16-21.78a.85.85,0,0,1,.14-.45c-1.13-7.58.83-21.91,1.79-26.73,1.19-5.94,4.61-8,10.81-11.71l.41-.25C66.58,81.68,76.7,69.51,70.57,45Z" transform="translate(-5 -27.05)"/><path class="cls-8" d="M25.44,67.42a.88.88,0,0,0-.11-.16l.11.17Z" transform="translate(-5 -27.05)"/><path class="cls-9" d="M39,91c-1.81-5.84-12.36-21.76-13.55-23.55l1,5.6,1,23c0,13.17,1.75,22.06,4.8,24.43,2.64,2.05,5.42,7.4,8.12,12.66C40.42,118.68,40.31,95.21,39,91Z" transform="translate(-5 -27.05)"/><circle class="cls-2" cx="49.22" cy="42.26" r="5.98"/><path class="cls-10" d="M34.68,39.33c1.44,2.26,2.92,3.4,4.41,3.4h0c1.95,0,3.58-1.93,4.3-2.92-1.1-.91-3.16-2.26-4.82-2.08A8.42,8.42,0,0,0,34.68,39.33Z" transform="translate(-5 -27.05)"/></svg>